<svg width="150" height="109" viewBox="0 0 150 109" fill="none" xmlns="http://www.w3.org/2000/svg">
<mask id="mask0_264_1026" style="mask-type:alpha" maskUnits="userSpaceOnUse" x="0" y="0" width="150" height="109">
<path d="M0 0H135C143.284 0 150 6.71573 150 15V94C150 102.284 143.284 109 135 109H0V0Z" fill="white"/>
</mask>
<g mask="url(#mask0_264_1026)">
<path opacity="0.22" d="M296.644 56.9761C296.899 56.8261 297.16 56.6754 297.416 56.5255C297.133 56.7441 296.857 56.9679 296.574 57.1807C296.272 57.384 295.971 57.5931 295.663 57.797C295.991 57.5192 296.321 57.2473 296.644 56.9761ZM205.268 10.6644C205.074 10.0937 204.888 9.49812 204.699 8.92086C204.57 8.25304 204.449 7.54865 204.323 6.85668C204.501 7.54222 204.681 8.23948 204.864 8.90673C204.994 9.48527 205.126 10.0872 205.268 10.6644ZM205.932 12.5984C205.867 12.4102 205.797 12.2284 205.727 12.0409C205.67 11.816 205.623 11.578 205.566 11.3532C205.688 11.7663 205.81 12.1853 205.932 12.5984ZM300.38 54.3692C300.687 54.2011 300.992 54.0271 301.299 53.859C300.944 54.1221 300.583 54.3742 300.228 54.6314C299.99 54.7792 299.753 54.9271 299.515 55.0749C299.802 54.8438 300.088 54.6068 300.38 54.3692ZM298.559 55.3281C298.951 55.1258 299.342 54.9236 299.727 54.7162C299.261 55.088 298.801 55.4532 298.333 55.8133C297.996 56.0208 297.657 56.2166 297.319 56.4124C297.732 56.0529 298.146 55.6876 298.559 55.3281ZM206.318 14.8873C206.052 14.2659 205.787 13.6086 205.525 12.9689C205.312 11.9547 205.091 10.9712 204.882 9.9328C205.117 10.6471 205.349 11.3796 205.594 12.069C205.83 13.0328 206.079 13.9535 206.318 14.8873ZM207.268 16.9825C207.065 16.5377 206.864 16.1046 206.666 15.6531C206.467 14.8929 206.262 14.1392 206.061 13.3672C206.214 13.7944 206.366 14.2156 206.525 14.6362C206.766 15.4449 207.018 16.1987 207.268 16.9825ZM207.943 18.4695C207.893 18.3566 207.838 18.2445 207.789 18.1316L207.713 17.9031C207.79 18.0958 207.872 18.2761 207.943 18.4695ZM306.048 50.9325C306.098 50.9085 306.154 50.8779 306.204 50.8481C306.087 50.9158 305.977 50.9886 305.861 51.0563C305.922 51.0192 305.988 50.9755 306.048 50.9325ZM304.221 51.8446C304.513 51.702 304.805 51.5595 305.091 51.4177C304.762 51.6479 304.433 51.8781 304.098 52.1032C303.771 52.2918 303.45 52.4913 303.117 52.6805C303.487 52.4036 303.857 52.1266 304.221 51.8446ZM302.369 52.7419C302.757 52.5579 303.139 52.3747 303.526 52.1907C303.08 52.5304 302.64 52.8693 302.193 53.1973C301.798 53.4178 301.397 53.6449 301.002 53.8654C301.456 53.4892 301.917 53.124 302.369 52.7419ZM300.524 53.5968C300.963 53.3947 301.402 53.1926 301.841 52.9905C301.328 53.4156 300.809 53.8355 300.289 54.2554C299.871 54.4788 299.445 54.6971 299.026 54.9146C299.526 54.4792 300.025 54.038 300.524 53.5968ZM207.275 18.5033C206.956 17.93 206.646 17.3377 206.331 16.752C206.11 15.7685 205.895 14.7367 205.687 13.7159C205.971 14.3827 206.248 15.0444 206.534 15.6871C206.775 16.6385 207.021 17.5892 207.275 18.5033ZM208.414 20.4864C208.127 19.9805 207.835 19.4871 207.546 18.9696C207.317 18.1594 207.099 17.3004 206.883 16.453C207.144 17.0334 207.403 17.6021 207.663 18.1708C207.906 18.9495 208.157 19.7391 208.414 20.4864ZM209.563 22.4981C209.287 22.0384 209.02 21.5538 208.749 21.0817C208.554 20.511 208.362 19.9103 208.171 19.3154C208.411 19.8211 208.645 20.3276 208.89 20.8267C209.118 21.3814 209.336 21.9551 209.563 22.4981ZM210.384 23.8186C210.258 23.6199 210.134 23.4271 210.015 23.2276C209.898 22.9565 209.786 22.6729 209.675 22.3894C209.911 22.8658 210.148 23.3481 210.384 23.8186ZM309.81 48.7326C309.883 48.6999 309.956 48.6672 310.024 48.6352C309.879 48.7181 309.734 48.7953 309.589 48.8724C309.667 48.8273 309.738 48.7829 309.81 48.7326ZM307.945 49.5721C308.288 49.4172 308.632 49.2624 308.976 49.1076C308.585 49.3633 308.181 49.6086 307.783 49.8592C307.499 50.0127 307.208 50.1611 306.918 50.3153C307.268 50.0705 307.606 49.8213 307.945 49.5721ZM306.13 50.34C306.538 50.1715 306.944 49.9971 307.345 49.8234C306.881 50.1593 306.416 50.4894 305.951 50.8195C305.559 51.0217 305.167 51.2181 304.774 51.4086C305.231 51.0617 305.68 50.6979 306.13 50.34ZM304.308 51.091C304.75 50.9182 305.192 50.7396 305.633 50.5551C305.134 50.9487 304.636 51.3423 304.136 51.7301C303.682 51.9519 303.234 52.1789 302.779 52.3948C303.285 51.9646 303.796 51.5278 304.308 51.091ZM302.475 51.8077C302.946 51.6254 303.417 51.4374 303.882 51.2558C303.349 51.713 302.817 52.1761 302.278 52.6282C301.811 52.8455 301.339 53.0636 300.866 53.2817C301.406 52.7879 301.941 52.3007 302.475 51.8077ZM208.3 22.0338C207.943 21.5424 207.591 21.0444 207.238 20.5347C206.974 19.4435 206.7 18.3712 206.439 17.25C206.761 17.8467 207.089 18.4368 207.41 19.0218C207.702 20.0502 208 21.0362 208.3 22.0338ZM209.582 23.7737C209.234 23.3108 208.892 22.8473 208.549 22.372C208.26 21.4146 207.975 20.4865 207.689 19.505C207.999 20.0555 208.309 20.5944 208.624 21.1325C208.937 22.0395 209.26 22.8916 209.582 23.7737ZM210.874 25.5004C210.542 25.0713 210.209 24.6246 209.875 24.1837C209.59 23.3983 209.299 22.6253 209.018 21.8333C209.304 22.3216 209.596 22.8151 209.886 23.2909C210.215 24.0413 210.545 24.7559 210.874 25.5004ZM212.066 26.9897C211.785 26.6376 211.505 26.2913 211.224 25.9333C210.955 25.336 210.692 24.738 210.423 24.1407C210.638 24.489 210.852 24.8315 211.066 25.1739C211.397 25.7933 211.736 26.382 212.066 26.9897ZM213.068 28.2406C212.907 28.0403 212.745 27.8283 212.578 27.6287C212.479 27.4564 212.386 27.2776 212.287 27.0994C212.544 27.4961 212.807 27.8563 213.068 28.2406ZM313.613 46.7296C313.721 46.6868 313.829 46.644 313.931 46.6018C313.712 46.7117 313.5 46.8208 313.28 46.9247C313.392 46.8636 313.503 46.7966 313.613 46.7296ZM311.757 47.4433C312.098 47.3185 312.439 47.1878 312.774 47.0637C312.392 47.2886 312.003 47.5143 311.62 47.7334C311.277 47.8941 310.94 48.0599 310.597 48.2205C310.982 47.9656 311.372 47.7041 311.757 47.4433ZM309.903 48.1328C310.336 47.979 310.768 47.8134 311.2 47.6538C310.717 47.9801 310.22 48.2962 309.73 48.6174C309.325 48.8035 308.913 48.9845 308.508 49.1706C308.977 48.8222 309.44 48.4804 309.903 48.1328ZM308.084 48.7646C308.546 48.6072 309.008 48.444 309.463 48.2814C308.935 48.6786 308.394 49.0656 307.859 49.4518C307.424 49.6414 306.983 49.8259 306.548 50.0097C307.063 49.6023 307.576 49.1831 308.084 48.7646ZM306.273 49.3656C306.748 49.2127 307.222 49.0597 307.69 48.9017C307.145 49.3486 306.591 49.7845 306.039 50.2263C305.569 50.4202 305.106 50.6134 304.63 50.8081C305.184 50.3305 305.731 49.8477 306.273 49.3656ZM304.465 49.9426C304.957 49.7875 305.444 49.6331 305.93 49.4787C305.361 49.9819 304.792 50.4793 304.216 50.9715C303.734 51.161 303.252 51.3564 302.764 51.5466C303.336 51.0192 303.901 50.4809 304.465 49.9426ZM209.292 25.3426C208.897 24.933 208.503 24.5293 208.113 24.1072C207.845 23.0819 207.587 21.9899 207.332 20.9214C207.692 21.4363 208.055 21.927 208.419 22.4294C208.705 23.4109 208.993 24.4042 209.292 25.3426ZM210.672 26.7673C210.279 26.3753 209.891 25.9709 209.503 25.5664C209.215 24.6683 208.944 23.7088 208.663 22.7682C209.026 23.2648 209.384 23.7562 209.746 24.2411C210.057 25.0888 210.358 25.9496 210.672 26.7673ZM212.058 28.1438C211.68 27.7737 211.295 27.3927 210.915 27.011C210.621 26.2505 210.337 25.4351 210.044 24.6387C210.391 25.1015 210.744 25.552 211.096 26.0024C211.415 26.7242 211.731 27.4585 212.058 28.1438ZM213.41 29.4352C213.054 29.0982 212.698 28.7612 212.341 28.4183C212.038 27.7836 211.747 27.1058 211.452 26.4404C211.79 26.8688 212.126 27.2855 212.462 27.7023C212.771 28.2887 213.087 28.8802 213.41 29.4352ZM214.741 30.6995C214.42 30.4058 214.102 30.0938 213.781 29.7942C213.509 29.3221 213.242 28.8375 212.968 28.3478C213.268 28.7095 213.566 29.0595 213.865 29.4154C214.161 29.843 214.447 30.2837 214.741 30.6995ZM215.747 31.5874C215.574 31.4361 215.407 31.29 215.234 31.1328C215.047 30.8703 214.855 30.6143 214.668 30.3458C215.028 30.7597 215.389 31.1853 215.747 31.5874ZM317.327 45.0111C317.487 44.9618 317.635 44.9082 317.796 44.8589C317.485 44.9918 317.168 45.1255 316.858 45.2585C317.009 45.1806 317.171 45.0955 317.327 45.0111ZM315.512 45.577C315.867 45.4684 316.228 45.359 316.577 45.2452C316.186 45.4533 315.795 45.6614 315.398 45.8643C315.035 46.0095 314.673 46.1606 314.311 46.3059C314.715 46.0605 315.119 45.821 315.512 45.577ZM313.699 46.113C314.123 45.9899 314.548 45.8668 314.961 45.7451C314.491 46.0342 314.016 46.324 313.539 46.6079C313.102 46.78 312.671 46.9514 312.234 47.1176C312.722 46.7847 313.211 46.4518 313.699 46.113ZM311.884 46.6314C312.349 46.5033 312.803 46.3707 313.263 46.2434C312.742 46.604 312.21 46.9661 311.683 47.3274C311.217 47.5031 310.751 47.6787 310.284 47.8485C310.818 47.4448 311.351 47.041 311.884 46.6314ZM310.066 47.1263C310.549 46.9961 311.032 46.8658 311.51 46.7363C310.956 47.1664 310.389 47.5861 309.823 48.0118C309.35 48.1823 308.871 48.3477 308.392 48.513C308.954 48.0523 309.516 47.5915 310.066 47.1263ZM308.267 47.5832C308.763 47.4633 309.253 47.3382 309.738 47.2138C309.16 47.6943 308.583 48.1748 307.999 48.6501C307.514 48.8162 307.022 48.9772 306.531 49.1381C307.115 48.621 307.694 48.1047 308.267 47.5832ZM306.471 48.016C306.973 47.8954 307.477 47.7806 307.972 47.6548C307.384 48.1901 306.783 48.721 306.187 49.2453C305.69 49.407 305.192 49.5687 304.688 49.7252C305.286 49.165 305.882 48.5931 306.471 48.016ZM210.371 28.593C209.945 28.2704 209.516 27.9661 209.09 27.6377C208.786 26.5573 208.474 25.5076 208.177 24.3907C208.574 24.8178 208.973 25.215 209.374 25.6297C209.7 26.6479 210.043 27.6047 210.371 28.593ZM211.861 29.6953C211.431 29.3852 211.005 29.0626 210.579 28.74C210.254 27.781 209.921 26.8469 209.604 25.8573C209.999 26.2668 210.4 26.6816 210.8 27.0846C211.141 27.9821 211.505 28.8234 211.861 29.6953ZM213.339 30.7515C212.916 30.4582 212.5 30.1642 212.083 29.8585C211.738 29.0268 211.394 28.2068 211.058 27.3561C211.444 27.743 211.835 28.1175 212.225 28.4919C212.593 29.2673 212.968 30.0003 213.339 30.7515ZM214.819 31.7778C214.404 31.4955 213.994 31.2066 213.585 30.9177C213.231 30.2119 212.878 29.506 212.528 28.7819C212.912 29.1512 213.289 29.5153 213.671 29.8729C214.048 30.5225 214.433 31.1472 214.819 31.7778ZM216.283 32.7703C215.889 32.5092 215.494 32.2482 215.104 31.9748C214.755 31.3992 214.406 30.8295 214.062 30.2474C214.417 30.5785 214.778 30.9031 215.132 31.2225C215.51 31.747 215.893 32.2531 216.283 32.7703ZM217.664 33.6659C217.316 33.4409 216.968 33.2217 216.625 32.9901C216.299 32.5603 215.972 32.1187 215.651 31.6823C215.958 31.954 216.264 32.2257 216.57 32.4916C216.928 32.8937 217.296 33.2769 217.664 33.6659ZM218.845 34.4314C218.614 34.2872 218.386 34.1306 218.155 33.9865C217.992 33.8162 217.833 33.6393 217.67 33.469C218.061 33.8018 218.455 34.1045 218.845 34.4314ZM319.222 43.9778C319.609 43.889 319.985 43.8016 320.366 43.7135C319.944 43.9076 319.521 44.0958 319.093 44.2848C318.739 44.4051 318.378 44.5204 318.018 44.6356C318.431 44.4188 318.827 44.1983 319.222 43.9778ZM317.427 44.3689C317.867 44.2736 318.307 44.1784 318.747 44.0832C318.257 44.351 317.76 44.6195 317.264 44.888C316.841 45.0228 316.411 45.1524 315.987 45.2873C316.468 44.985 316.947 44.677 317.427 44.3689ZM315.63 44.7424C316.1 44.6495 316.564 44.5572 317.028 44.4591C316.503 44.7905 315.98 45.1277 315.443 45.4546C314.979 45.5944 314.514 45.7342 314.044 45.8747C314.58 45.4944 315.105 45.1155 315.63 44.7424ZM313.836 45.0918C314.323 44.9967 314.805 44.9023 315.287 44.8079C314.735 45.2021 314.183 45.6022 313.624 45.9913C313.137 46.1339 312.649 46.2766 312.16 46.4134C312.725 45.976 313.283 45.5336 313.836 45.0918ZM312.046 45.4287C312.546 45.3381 313.04 45.2423 313.534 45.1523C312.96 45.6087 312.391 46.0643 311.809 46.5096C311.315 46.6471 310.814 46.7795 310.314 46.9178C310.895 46.4248 311.471 45.9268 312.046 45.4287ZM310.265 45.7408C310.772 45.6553 311.272 45.5647 311.767 45.4806C311.176 45.9925 310.584 46.5044 309.986 47.0053C309.49 47.1369 308.983 47.2642 308.48 47.3848C309.08 46.8422 309.672 46.2886 310.265 45.7408ZM308.488 46.0288C308.995 45.9491 309.502 45.8695 309.997 45.7854C309.394 46.3463 308.797 46.9065 308.187 47.4622C307.679 47.5895 307.171 47.7108 306.663 47.8322C307.273 47.2347 307.884 46.6373 308.488 46.0288ZM211.418 31.6692C210.956 31.4401 210.501 31.2221 210.039 30.9872C209.732 29.9844 209.447 28.9077 209.153 27.8618C209.586 28.1954 210.015 28.4997 210.447 28.8274C210.771 29.7805 211.087 30.7585 211.418 31.6692ZM212.986 32.4468C212.525 32.2237 212.069 31.9939 211.608 31.7649C211.285 30.8711 210.972 29.9107 210.655 28.9744C211.093 29.3014 211.526 29.6292 211.962 29.9445C212.302 30.7827 212.639 31.6451 212.986 32.4468ZM214.551 33.1893C214.097 32.9772 213.644 32.7709 213.195 32.5521C212.85 31.768 212.523 30.9342 212.185 30.1135C212.615 30.4237 213.043 30.7162 213.472 31.0147C213.828 31.744 214.186 32.4849 214.551 33.1893ZM216.114 33.9202C215.667 33.7131 215.22 33.5061 214.766 33.2939C214.409 32.6122 214.054 31.8947 213.706 31.1823C214.135 31.4807 214.564 31.785 214.991 32.0718C215.364 32.692 215.738 33.324 216.114 33.9202ZM217.667 34.6165C217.234 34.4257 216.8 34.2289 216.365 34.0322C215.998 33.4588 215.64 32.8605 215.277 32.2688C215.692 32.5511 216.104 32.8158 216.518 33.0923C216.902 33.6043 217.281 34.1287 217.667 34.6165ZM219.193 35.2865C218.779 35.111 218.371 34.929 217.956 34.7477C217.591 34.2811 217.229 33.8021 216.861 33.318C217.261 33.5783 217.661 33.8386 218.061 34.093C218.437 34.493 218.813 34.8989 219.193 35.2865ZM220.655 35.9167C220.291 35.7648 219.921 35.602 219.557 35.4442C219.224 35.1044 218.885 34.7594 218.557 34.4071C218.911 34.6314 219.27 34.8491 219.624 35.0675C219.968 35.3526 220.312 35.6434 220.655 35.9167ZM221.806 36.3887C221.593 36.3016 221.375 36.2153 221.161 36.1225C220.925 35.9373 220.69 35.7639 220.458 35.5722C220.907 35.8443 221.357 36.1224 221.806 36.3887ZM317.589 43.309C318.082 43.2549 318.574 43.2008 319.055 43.1481C318.499 43.513 317.932 43.8794 317.364 44.2457C316.883 44.346 316.396 44.4469 315.903 44.5486C316.471 44.1347 317.033 43.7215 317.589 43.309ZM315.817 43.4952C316.322 43.4456 316.82 43.3908 317.313 43.3367C316.735 43.7637 316.157 44.1908 315.566 44.6134C315.074 44.7151 314.574 44.8116 314.075 44.9081C314.66 44.4386 315.238 43.964 315.817 43.4952ZM314.043 43.6698C314.554 43.6194 315.059 43.5697 315.558 43.5208C314.963 44.0034 314.368 44.486 313.767 44.9694C313.262 45.0666 312.763 45.1631 312.251 45.2552C312.852 44.7243 313.448 44.2 314.043 43.6698ZM312.273 43.8319C312.791 43.7866 313.296 43.737 313.801 43.6873C313.195 44.2248 312.589 44.7623 311.97 45.2953C311.47 45.386 310.958 45.4722 310.452 45.5636C311.065 44.9895 311.666 44.4111 312.273 43.8319ZM310.509 43.9815C311.027 43.9422 311.539 43.8977 312.044 43.8538C311.432 44.4396 310.815 45.0319 310.19 45.6133C309.684 45.6988 309.171 45.785 308.658 45.8654C309.283 45.2423 309.896 44.609 310.509 43.9815ZM212.568 34.6673C212.075 34.5312 211.589 34.3943 211.097 34.2581C210.764 33.2347 210.428 32.2296 210.103 31.1696C210.565 31.4045 211.026 31.6277 211.495 31.8619C211.844 32.8238 212.21 33.7361 212.568 34.6673ZM214.216 35.1262C213.725 34.9959 213.232 34.8538 212.746 34.7169C212.391 33.8032 212.031 32.902 211.685 31.9576C212.153 32.1918 212.615 32.4266 213.082 32.6491C213.453 33.4955 213.837 34.3046 214.216 35.1262ZM215.857 35.5623C215.371 35.4313 214.887 35.3119 214.395 35.1758C214.023 34.3711 213.647 33.5788 213.285 32.7493C213.746 32.9724 214.205 33.178 214.665 33.3953C215.059 34.1379 215.46 34.8439 215.857 35.5623ZM217.503 35.9977C217.018 35.8725 216.532 35.7415 216.053 35.6156C215.665 34.914 215.272 34.2249 214.892 33.4985C215.352 33.7158 215.813 33.9331 216.272 34.1446C216.676 34.773 217.089 35.3824 217.503 35.9977ZM219.134 36.4111C218.662 36.2904 218.184 36.1762 217.705 36.0503C217.306 35.457 216.907 34.8637 216.512 34.258C216.965 34.4643 217.411 34.6597 217.862 34.8543C218.284 35.3854 218.708 35.8924 219.134 36.4111ZM220.758 36.8135C220.292 36.6979 219.826 36.5823 219.361 36.4667C218.956 35.9751 218.545 35.4843 218.145 34.9803C218.585 35.1763 219.031 35.3716 219.47 35.5618C219.902 35.9847 220.333 36.3958 220.758 36.8135ZM222.357 37.2012C221.916 37.0945 221.475 36.9877 221.028 36.8817C220.63 36.4963 220.233 36.1108 219.834 35.7195C220.248 35.895 220.667 36.0697 221.081 36.2452C221.513 36.5671 221.932 36.8845 222.357 37.2012ZM223.874 37.5572C223.483 37.4682 223.091 37.3733 222.693 37.2791C222.327 37.0028 221.96 36.7265 221.593 36.4443C221.962 36.5955 222.325 36.7474 222.693 36.8927C223.09 37.1237 223.479 37.3379 223.874 37.5572ZM225.104 37.8472C224.86 37.7937 224.614 37.7285 224.364 37.6758C224.16 37.5639 223.956 37.4462 223.752 37.3343C224.201 37.5114 224.655 37.6701 225.104 37.8472ZM317.808 41.838C318.319 41.8351 318.829 41.8265 319.328 41.8251C318.735 42.2777 318.136 42.7252 317.531 43.1793C317.027 43.2348 316.522 43.2844 316.012 43.3407C316.616 42.8332 317.215 42.3382 317.808 41.838ZM316.056 41.8494C316.573 41.8458 317.083 41.843 317.588 41.8351C316.984 42.3426 316.368 42.8515 315.752 43.3545C315.241 43.4049 314.731 43.4611 314.213 43.5064C314.836 42.9609 315.452 42.4044 316.056 41.8494ZM314.304 41.8608C314.82 41.8572 315.331 41.8544 315.848 41.8509C315.233 42.4132 314.606 42.977 313.979 43.5349C313.468 43.5853 312.956 43.6298 312.433 43.6816C313.061 43.0761 313.689 42.4707 314.304 41.8608ZM312.551 41.8663C313.074 41.8621 313.585 41.8651 314.096 41.8623C313.47 42.4795 312.837 43.0915 312.199 43.7043C311.687 43.7488 311.169 43.794 310.651 43.8334C311.296 43.1782 311.924 42.5252 312.551 41.8663ZM213.689 37.5322C213.173 37.4882 212.656 37.4442 212.133 37.395C211.796 36.4316 211.47 35.4192 211.146 34.4127C211.638 34.5547 212.136 34.6902 212.629 34.8263C212.984 35.74 213.328 36.661 213.689 37.5322ZM215.408 37.6854C214.891 37.6414 214.375 37.5973 213.858 37.5533C213.504 36.693 213.155 35.7845 212.808 34.8818C213.3 35.018 213.799 35.1651 214.296 35.2947C214.662 36.1002 215.028 36.9114 215.408 37.6854ZM217.119 37.8275C216.603 37.7835 216.093 37.7446 215.576 37.7006C215.204 36.9376 214.839 36.138 214.469 35.345C214.961 35.4812 215.452 35.6057 215.943 35.736C216.338 36.4369 216.728 37.1501 217.119 37.8275ZM218.831 37.9697C218.321 37.9308 217.81 37.886 217.299 37.8413C216.909 37.1756 216.526 36.4733 216.139 35.7835C216.63 35.9138 217.122 36.0441 217.613 36.1744C218.02 36.7787 218.427 37.3888 218.831 37.9697ZM220.541 38.106C220.037 38.0664 219.533 38.0268 219.028 37.9813C218.626 37.4121 218.226 36.813 217.827 36.2197C218.312 36.3449 218.796 36.4642 219.286 36.5828C219.7 37.103 220.119 37.6166 220.541 38.106ZM222.234 38.2444C221.736 38.2041 221.238 38.1638 220.745 38.1227C220.33 37.6443 219.919 37.1476 219.514 36.6501C219.998 36.7695 220.477 36.8954 220.96 37.0088C221.385 37.4207 221.811 37.8443 222.234 38.2444ZM223.914 38.3726C223.434 38.336 222.948 38.3001 222.468 38.2576C222.052 37.8743 221.641 37.4727 221.223 37.0718C221.695 37.1867 222.16 37.2965 222.625 37.4062C223.058 37.734 223.49 38.0617 223.914 38.3726ZM225.564 38.4984C225.108 38.4648 224.652 38.4312 224.196 38.3917C223.785 38.097 223.379 37.7898 222.968 37.4893C223.415 37.5953 223.868 37.7006 224.315 37.8066C224.73 38.0414 225.144 38.2761 225.564 38.4984ZM227.124 38.6174C226.722 38.5891 226.32 38.5549 225.918 38.5266C225.549 38.3279 225.173 38.124 224.804 37.9194C225.207 38.0129 225.605 38.1012 226.002 38.1895C226.376 38.3341 226.75 38.4787 227.124 38.6174ZM228.353 38.7054L227.64 38.6556C227.403 38.5656 227.161 38.4822 226.924 38.3921C227.401 38.5005 227.877 38.6029 228.353 38.7054ZM318.091 39.9668C318.608 40.0109 319.124 40.0549 319.629 40.1004C319.01 40.6334 318.385 41.1613 317.755 41.6958C317.244 41.6986 316.727 41.7021 316.211 41.7057C316.842 41.1295 317.473 40.5533 318.091 39.9668ZM316.35 39.8282C316.873 39.8716 317.383 39.9163 317.899 39.9545C317.275 40.5417 316.633 41.1252 315.998 41.7138C315.481 41.7173 314.97 41.7201 314.448 41.7244C315.083 41.0882 315.726 40.4571 316.35 39.8282ZM314.616 39.689C315.138 39.7323 315.654 39.7705 316.17 39.8145C315.535 40.4507 314.887 41.0883 314.246 41.7252C313.735 41.728 313.212 41.7322 312.689 41.7306C313.331 41.0462 313.979 40.3668 314.616 39.689ZM214.888 40.2986C214.347 40.3467 213.8 40.3896 213.253 40.4384C212.894 39.4896 212.534 38.5408 212.188 37.5488C212.71 37.5922 213.233 37.6413 213.75 37.6854C214.126 38.5786 214.51 39.4353 214.888 40.2986ZM216.677 40.1461C216.135 40.1883 215.594 40.2364 215.046 40.2793C214.669 39.4278 214.292 38.5762 213.922 37.6881C214.445 37.7314 214.968 37.7806 215.484 37.8247C215.873 38.6214 216.274 39.3808 216.677 40.1461ZM218.455 40.0067C217.913 40.0489 217.377 40.0904 216.83 40.1334C216.435 39.3791 216.04 38.6248 215.653 37.8398C216.175 37.8832 216.692 37.9272 217.208 37.9713C217.62 38.67 218.04 39.338 218.455 40.0067ZM220.233 39.8673C219.697 39.9088 219.155 39.951 218.619 39.9925C218.206 39.3297 217.799 38.672 217.388 37.985C217.905 38.029 218.427 38.0724 218.943 38.1164C219.368 38.7186 219.8 39.29 220.233 39.8673ZM222.006 39.7403C221.47 39.7818 220.94 39.8168 220.404 39.8583C219.978 39.292 219.559 38.725 219.136 38.1346C219.652 38.1786 220.162 38.2175 220.678 38.2557C221.114 38.7613 221.56 39.2479 222.006 39.7403ZM223.767 39.6089C223.243 39.6431 222.713 39.6839 222.183 39.7247C221.744 39.2433 221.311 38.767 220.876 38.2732C221.386 38.3121 221.897 38.3568 222.401 38.3964C222.862 38.8099 223.314 39.2065 223.767 39.6089ZM225.524 39.4899C225.005 39.5234 224.487 39.5628 223.968 39.5963C223.528 39.2042 223.083 38.8186 222.647 38.414C223.151 38.4536 223.649 38.494 224.147 38.5284C224.603 38.8533 225.063 39.1716 225.524 39.4899ZM227.252 39.3745C226.75 39.4059 226.25 39.4431 225.742 39.4752C225.301 39.1724 224.859 38.8636 224.417 38.549C224.903 38.5849 225.389 38.6267 225.875 38.6626C226.338 38.9033 226.795 39.1389 227.252 39.3745ZM228.944 39.2634C228.472 39.2912 228 39.3249 227.522 39.3534C227.091 39.1325 226.666 38.9109 226.235 38.6901C226.697 38.7229 227.158 38.7558 227.615 38.7953C228.056 38.9496 228.497 39.1098 228.944 39.2634ZM230.543 39.1637C230.13 39.1902 229.716 39.2109 229.298 39.2382C228.912 39.1008 228.527 38.9635 228.142 38.8262C228.543 38.8545 228.952 38.888 229.353 38.9163C229.745 39.0054 230.14 39.082 230.543 39.1637ZM231.747 39.0942C231.523 39.1097 231.292 39.1199 231.068 39.1353C230.849 39.0907 230.629 39.0462 230.41 39.0016C230.865 39.0293 231.303 39.0592 231.747 39.0942ZM318.413 37.7284C318.935 37.8193 319.451 37.9051 319.961 37.9974C319.328 38.6095 318.683 39.2171 318.032 39.8254C317.516 39.7814 316.999 39.7373 316.477 39.694C317.128 39.0381 317.779 38.3822 318.413 37.7284ZM316.689 37.4392C317.211 37.5242 317.732 37.6092 318.242 37.6957C317.603 38.356 316.947 39.0185 316.297 39.6803C315.78 39.6362 315.264 39.598 314.736 39.5554C315.393 38.8512 316.045 38.1478 316.689 37.4392ZM216.091 42.9515C215.525 43.0859 214.959 43.2203 214.387 43.3553C214.022 42.4548 213.663 41.5118 213.305 40.5689C213.851 40.52 214.399 40.4771 214.946 40.4283C215.324 41.2857 215.701 42.1373 216.091 42.9515ZM217.935 42.5247C217.374 42.6525 216.808 42.7869 216.241 42.9154C215.857 42.1063 215.482 41.2664 215.105 40.4149C215.652 40.3719 216.199 40.3231 216.746 40.2802C217.136 41.041 217.531 41.7953 217.935 42.5247ZM219.781 42.1096C219.22 42.2374 218.658 42.3594 218.091 42.4879C217.695 41.7695 217.3 41.0211 216.906 40.2726C217.454 40.2297 217.995 40.1875 218.543 40.1445C218.951 40.8081 219.364 41.4709 219.781 42.1096ZM221.609 41.6967C221.053 41.8179 220.492 41.9457 219.931 42.0735C219.516 41.4465 219.109 40.7888 218.702 40.1311C219.243 40.0889 219.791 40.0459 220.333 40.0037C220.759 40.5758 221.179 41.1487 221.609 41.6967ZM223.446 41.3123C222.889 41.4277 222.333 41.5431 221.771 41.665C221.343 41.1229 220.923 40.5558 220.497 39.9896C221.039 39.9473 221.581 39.911 222.123 39.8687C222.563 40.356 223.003 40.8433 223.446 41.3123ZM225.259 40.9249C224.714 41.0389 224.159 41.1601 223.608 41.2748C223.172 40.8168 222.733 40.3353 222.3 39.859C222.836 39.8175 223.378 39.7811 223.908 39.7403C224.361 40.1369 224.809 40.5459 225.259 40.9249ZM227.075 40.561C226.53 40.6691 225.99 40.7765 225.439 40.8911C224.996 40.5172 224.549 40.1199 224.109 39.7278C224.645 39.6921 225.17 39.6579 225.7 39.6171C226.161 39.9354 226.616 40.2544 227.075 40.561ZM228.869 40.2058C228.34 40.3058 227.806 40.4125 227.272 40.5192C226.82 40.2236 226.372 39.9097 225.924 39.6017C226.449 39.5674 226.967 39.5281 227.486 39.4945C227.949 39.7353 228.413 39.976 228.869 40.2058ZM230.64 39.8651C230.129 39.963 229.618 40.061 229.101 40.1596C228.652 39.9409 228.208 39.7097 227.764 39.4786C228.271 39.4465 228.778 39.4144 229.28 39.383C229.733 39.5476 230.187 39.7122 230.64 39.8651ZM232.378 39.5463C231.896 39.6348 231.413 39.7233 230.925 39.8126C230.497 39.6685 230.062 39.5135 229.634 39.3636C230.112 39.3351 230.59 39.3066 231.062 39.2788C231.5 39.3621 231.939 39.4571 232.378 39.5463ZM233.977 39.2504C233.57 39.3238 233.152 39.4045 232.744 39.4779C232.36 39.3999 231.976 39.3218 231.592 39.2438C232.005 39.2173 232.419 39.1966 232.832 39.1701C233.215 39.1947 233.598 39.2193 233.977 39.2504ZM235.216 39.034C234.995 39.0728 234.779 39.1051 234.558 39.1439L233.946 39.0996C234.372 39.0834 234.797 39.0554 235.216 39.034ZM217.34 45.4919C216.754 45.706 216.158 45.939 215.567 46.1597C215.188 45.2906 214.811 44.3973 214.439 43.4858C215.011 43.3507 215.582 43.2097 216.149 43.0812C216.546 43.9065 216.941 44.7025 217.34 45.4919ZM219.252 44.7953C218.666 45.0093 218.073 45.2182 217.488 45.4382C217.089 44.6546 216.695 43.8587 216.304 43.0385C216.876 42.9035 217.443 42.7749 218.01 42.6464C218.42 43.381 218.834 44.0914 219.252 44.7953ZM221.155 44.1176C220.574 44.3251 219.981 44.5341 219.395 44.7481C218.983 44.0494 218.57 43.3449 218.16 42.6162C218.727 42.4877 219.294 42.3591 219.861 42.2306C220.29 42.8738 220.723 43.4986 221.155 44.1176ZM223.041 43.4538C222.465 43.6548 221.879 43.863 221.298 44.0705C220.872 43.4566 220.44 42.8376 220.018 42.1997C220.579 42.0719 221.151 41.9426 221.707 41.8214C222.15 42.3797 222.595 42.9138 223.041 43.4538ZM224.931 42.8135C224.348 43.0093 223.771 43.1985 223.189 43.4001C222.75 42.8711 222.305 42.337 221.869 41.7838C222.436 41.6612 222.999 41.5451 223.561 41.429C224.017 41.9025 224.477 42.3576 224.931 42.8135ZM226.803 42.1811C226.238 42.3689 225.656 42.5706 225.084 42.7591C224.631 42.3091 224.178 41.8591 223.729 41.3908C224.286 41.2754 224.847 41.1535 225.398 41.0388C225.867 41.4274 226.335 41.8043 226.803 42.1811ZM228.673 41.5788C228.101 41.7614 227.534 41.9375 226.963 42.126C226.501 41.7543 226.04 41.3826 225.583 40.9984C226.14 40.883 226.692 40.7801 227.248 40.6647C227.721 40.9816 228.197 41.2802 228.673 41.5788ZM230.522 40.991C229.966 41.1657 229.406 41.3469 228.851 41.5215C228.381 41.2281 227.916 40.928 227.446 40.6287C227.992 40.5207 228.537 40.4126 229.083 40.3045C229.557 40.5379 230.042 40.7641 230.522 40.991ZM232.355 40.4288C231.811 40.5962 231.267 40.7635 230.716 40.9316C230.249 40.7091 229.777 40.4874 229.309 40.2591C229.844 40.1583 230.378 40.0575 230.913 39.9567C231.396 40.1177 231.872 40.2678 232.355 40.4288ZM234.161 39.8877C233.639 40.0405 233.112 40.1999 232.59 40.3585C232.126 40.2071 231.668 40.0549 231.203 39.9034C231.72 39.8048 232.238 39.712 232.75 39.6199C233.219 39.7113 233.687 39.797 234.161 39.8877ZM235.888 39.3742C235.411 39.5096 234.924 39.6581 234.448 39.7993C234.004 39.7167 233.565 39.6275 233.121 39.5449C233.604 39.4564 234.086 39.3679 234.564 39.2859C235.007 39.3151 235.445 39.345 235.888 39.3742ZM237.549 38.9102C237.129 39.0268 236.716 39.1426 236.29 39.2598L235.146 39.1853C235.57 39.1097 235.996 39.0401 236.415 38.9653C236.799 38.9482 237.171 38.9325 237.549 38.9102ZM238.745 38.5802C238.55 38.6338 238.354 38.6873 238.159 38.7409L237.568 38.7712C237.964 38.7051 238.355 38.6456 238.745 38.5802ZM218.618 47.9335C218.018 48.2266 217.403 48.5452 216.792 48.8515C216.399 48.0138 216.01 47.1636 215.624 46.2894C216.216 46.0687 216.811 45.8357 217.403 45.6209C217.803 46.4103 218.211 47.1807 218.618 47.9335ZM220.583 46.9868C219.977 47.2806 219.37 47.5685 218.759 47.8688C218.353 47.1219 217.951 46.3566 217.545 45.5679C218.142 45.3465 218.729 45.1325 219.321 44.9235C219.739 45.6215 220.156 46.3137 220.583 46.9868ZM222.532 46.0539C221.93 46.3353 221.324 46.629 220.718 46.9228C220.298 46.2548 219.875 45.5693 219.463 44.8705C220.055 44.6558 220.648 44.4468 221.235 44.2386C221.666 44.8518 222.098 45.4649 222.532 46.0539ZM224.472 45.1459C223.875 45.4206 223.274 45.7078 222.673 45.9892C222.239 45.4061 221.808 44.7988 221.383 44.1849C221.97 43.9767 222.562 43.7678 223.144 43.5661C223.578 44.1017 224.023 44.63 224.472 45.1459ZM226.409 44.262C225.812 44.5309 225.214 44.7998 224.612 45.0753C224.164 44.5712 223.725 44.0422 223.28 43.5139C223.868 43.3115 224.45 43.1157 225.039 42.9192C225.498 43.3744 225.952 43.8302 226.409 44.262ZM228.324 43.3985C227.743 43.6536 227.142 43.9349 226.556 44.2024C226.099 43.7707 225.647 43.3265 225.194 42.8765C225.77 42.6814 226.358 42.4791 226.929 42.2906C227.391 42.6623 227.859 43.0392 228.324 43.3985ZM230.244 42.5702C229.652 42.8266 229.069 43.07 228.471 43.3331C228.006 42.9796 227.55 42.6072 227.089 42.2355C227.672 42.0455 228.245 41.8687 228.829 41.6847C229.299 41.9781 229.77 42.2833 230.244 42.5702ZM232.137 41.7571C231.566 41.999 230.984 42.2482 230.402 42.4975C229.934 42.2157 229.463 41.9164 228.999 41.6164C229.565 41.4345 230.137 41.2518 230.704 41.0757C231.184 41.3085 231.659 41.5419 232.137 41.7571ZM234.02 40.9748C233.455 41.2101 232.882 41.4403 232.312 41.6823C231.84 41.4664 231.367 41.2446 230.899 41.0163C231.466 40.8402 232.022 40.6715 232.584 40.5019C233.061 40.6637 233.544 40.8247 234.02 40.9748ZM235.896 40.2231C235.341 40.4453 234.791 40.6669 234.231 40.8956C233.761 40.7507 233.29 40.5883 232.82 40.4375C233.37 40.2695 233.915 40.108 234.46 39.9464C234.934 40.0372 235.416 40.1331 235.896 40.2231ZM237.71 39.4969C237.187 39.6973 236.661 39.9159 236.134 40.1229C235.671 40.0366 235.208 39.9444 234.746 39.858C235.268 39.7053 235.791 39.5525 236.307 39.4004C236.775 39.4326 237.242 39.4647 237.71 39.4969ZM239.511 38.8139C239.016 38.9989 238.522 39.184 238.022 39.3757C237.584 39.3458 237.147 39.3159 236.709 39.286C237.204 39.1485 237.692 39.0117 238.181 38.8749C238.624 38.8565 239.068 38.8381 239.511 38.8139ZM241.13 38.2005C240.737 38.3434 240.335 38.5054 239.937 38.6549C239.559 38.6713 239.175 38.6943 238.791 38.7114C239.176 38.605 239.561 38.4927 239.947 38.3922C240.337 38.3268 240.734 38.2666 241.13 38.2005ZM242.228 37.7992C242.074 37.8536 241.92 37.908 241.767 37.9624C241.627 37.9854 241.481 38.0091 241.335 38.0328C241.634 37.9488 241.929 37.8773 242.228 37.7992ZM219.925 50.2706C219.305 50.6434 218.671 51.0476 218.04 51.4335C217.641 50.6441 217.248 49.8064 216.855 48.9746C217.465 48.6684 218.08 48.3497 218.687 48.056C219.093 48.8088 219.505 49.5551 219.925 50.2706ZM221.944 49.0796C221.312 49.4538 220.689 49.809 220.058 50.1891C219.645 49.4787 219.233 48.7324 218.827 47.9854C219.444 47.6844 220.051 47.3964 220.663 47.1019C221.083 47.7758 221.515 48.4365 221.944 49.0796ZM223.946 47.9025C223.33 48.2628 222.704 48.6363 222.077 49.0039C221.649 48.3667 221.218 47.7059 220.797 47.038C221.404 46.7442 222.016 46.4497 222.617 46.1683C223.057 46.7566 223.503 47.3383 223.946 47.9025ZM225.94 46.756C225.323 47.1047 224.7 47.4599 224.079 47.8209C223.635 47.2568 223.197 46.6861 222.757 46.0978C223.364 45.8098 223.972 45.5278 224.573 45.2464C225.023 45.7682 225.482 46.265 225.94 46.756ZM227.927 45.6461C227.309 45.9889 226.697 46.331 226.074 46.6862C225.616 46.1952 225.163 45.6976 224.715 45.1876C225.322 44.9055 225.92 44.6366 226.523 44.367C226.986 44.8038 227.46 45.2276 227.927 45.6461ZM229.886 44.5515C229.284 44.8805 228.667 45.235 228.06 45.5704C227.593 45.1519 227.132 44.7326 226.669 44.3015C227.261 44.0333 227.862 43.752 228.454 43.4896C228.927 43.8541 229.409 44.2054 229.886 44.5515ZM231.857 43.5089C231.248 43.8327 230.644 44.1441 230.026 44.481C229.549 44.1348 229.073 43.7887 228.602 43.4301C229.206 43.1663 229.793 42.9164 230.392 42.6592C230.879 42.9505 231.37 43.2235 231.857 43.5089ZM233.788 42.4831C233.196 42.793 232.593 43.116 232.002 43.4318C231.522 43.1515 231.037 42.8778 230.556 42.5916C231.144 42.3417 231.73 42.08 232.313 41.8367C232.803 42.0563 233.298 42.2635 233.788 42.4831ZM235.724 41.4923C235.13 41.7905 234.542 42.088 233.95 42.3979C233.466 42.1835 232.977 41.9756 232.494 41.7611C233.082 41.5171 233.659 41.2803 234.243 41.0428C234.731 41.1972 235.224 41.3393 235.724 41.4923ZM237.634 40.5344C237.062 40.8181 236.486 41.1083 235.903 41.3992C235.415 41.2506 234.928 41.1078 234.441 40.9592C235.013 40.729 235.579 40.4937 236.146 40.27C236.644 40.3579 237.136 40.4465 237.634 40.5344ZM239.495 39.6122C238.945 39.8754 238.391 40.1569 237.836 40.4326C237.356 40.3484 236.869 40.2591 236.384 40.1756C236.933 39.9541 237.489 39.7377 238.034 39.5228C238.531 39.5514 239.01 39.5822 239.495 39.6122ZM241.367 38.7303C240.833 38.9855 240.298 39.229 239.76 39.4908C239.292 39.4586 238.825 39.4323 238.358 39.4001C238.897 39.1918 239.432 38.9958 239.96 38.7948C240.433 38.7728 240.9 38.7516 241.367 38.7303ZM243.127 37.9037C242.654 38.1218 242.171 38.353 241.693 38.5777C241.255 38.5953 240.818 38.6188 240.381 38.6365C240.852 38.4601 241.335 38.2706 241.801 38.1008C242.25 38.0283 242.689 37.9689 243.127 37.9037ZM244.805 37.1463C244.388 37.3338 243.976 37.5089 243.559 37.6965C243.202 37.7458 242.852 37.8004 242.496 37.8498C242.934 37.6894 243.368 37.5414 243.801 37.3876C244.135 37.3052 244.471 37.2287 244.805 37.1463ZM246.052 36.5962C245.872 36.6776 245.691 36.7532 245.51 36.8346C245.372 36.8693 245.233 36.8981 245.094 36.9328C245.414 36.8225 245.738 36.7057 246.052 36.5962ZM221.285 52.5062C220.651 52.9579 220 53.4236 219.356 53.8885C218.936 53.1253 218.517 52.3681 218.103 51.5625C218.733 51.1708 219.368 50.7724 219.994 50.3931C220.421 51.1196 220.85 51.8103 221.285 52.5062ZM223.346 51.0782C222.699 51.5255 222.062 51.9539 221.417 52.4129C220.982 51.7229 220.554 51.0381 220.126 50.3115C220.763 49.9249 221.391 49.569 222.023 49.1948C222.459 49.8431 222.903 50.4665 223.346 51.0782ZM225.386 49.6706C224.754 50.0983 224.114 50.5507 223.478 50.9908C223.035 50.3791 222.591 49.7615 222.157 49.1191C222.783 48.7456 223.415 48.3714 224.036 48.0103C224.48 48.5803 224.934 49.1313 225.386 49.6706ZM227.419 48.3113C226.781 48.7338 226.149 49.1497 225.512 49.5839C225.06 49.0446 224.607 48.4995 224.164 47.9353C224.791 47.5736 225.414 47.2184 226.036 46.8632C226.495 47.36 226.958 47.8386 227.419 48.3113ZM229.444 46.9769C228.816 47.3862 228.184 47.8022 227.551 48.2239C227.09 47.7571 226.628 47.2785 226.17 46.7875C226.792 46.4323 227.416 46.0888 228.034 45.746C228.501 46.1646 228.974 46.5825 229.444 46.9769ZM231.443 45.6753C230.826 46.0715 230.199 46.4867 229.571 46.8961C229.101 46.5016 228.634 46.0889 228.167 45.6703C228.78 45.3282 229.402 44.973 230.01 44.6434C230.486 44.9954 230.963 45.3416 231.443 45.6753ZM233.448 44.4206C232.824 44.8117 232.204 45.1903 231.576 45.5938C231.102 45.2652 230.626 44.919 230.15 44.5729C230.774 44.2352 231.383 43.9173 231.998 43.5928C232.483 43.8724 232.963 44.1527 233.448 44.4206ZM235.419 43.1877C234.817 43.5584 234.199 43.9487 233.586 44.3325C233.102 44.0705 232.622 43.7901 232.142 43.5098C232.745 43.1868 233.352 42.8571 233.95 42.5465C234.441 42.7661 234.931 42.9857 235.419 43.1877ZM237.397 42.0017C236.788 42.3672 236.183 42.7203 235.569 43.0982C235.087 42.8954 234.597 42.6817 234.113 42.4672C234.722 42.1493 235.317 41.857 235.921 41.5515C236.409 41.7001 236.903 41.8538 237.397 42.0017ZM239.348 40.8427C238.754 41.1885 238.156 41.5467 237.557 41.9049C237.07 41.7621 236.583 41.6135 236.095 41.4649C236.683 41.1674 237.277 40.8692 237.859 40.5783C238.357 40.6662 238.856 40.7541 239.348 40.8427ZM241.268 39.7231C240.695 40.0485 240.113 40.3928 239.536 40.7306C239.051 40.6471 238.558 40.5585 238.072 40.4692C238.644 40.1855 239.221 39.9012 239.788 39.63C240.279 39.6593 240.777 39.6938 241.268 39.7231ZM243.194 38.6504C242.626 38.9691 242.063 39.2755 241.491 39.6008C241.012 39.5701 240.526 39.54 240.047 39.5093C240.614 39.2381 241.171 38.98 241.728 38.7161C242.218 38.692 242.708 38.6679 243.194 38.6504ZM245.024 37.6249C244.512 37.9072 243.984 38.2093 243.461 38.499C242.994 38.5202 242.521 38.5422 242.054 38.5634C242.565 38.3227 243.087 38.069 243.599 37.8342C244.078 37.7639 244.551 37.6944 245.024 37.6249ZM246.844 36.6601C246.347 36.9228 245.866 37.1657 245.364 37.4349C244.931 37.4936 244.499 37.5581 244.067 37.6226C244.568 37.3951 245.066 37.1859 245.562 36.965C245.99 36.8653 246.417 36.7598 246.844 36.6601ZM248.487 35.8002C248.107 35.9951 247.727 36.1959 247.347 36.3968C246.989 36.482 246.631 36.5673 246.273 36.6525C246.651 36.4875 247.028 36.3167 247.401 36.1525C247.761 36.0373 248.121 35.9162 248.487 35.8002ZM249.465 35.2887C249.386 35.328 249.309 35.3732 249.23 35.4124C249.122 35.4494 249.019 35.4798 248.91 35.5168C249.097 35.4406 249.278 35.365 249.465 35.2887ZM222.652 54.6517C221.991 55.1781 221.331 55.7102 220.666 56.249C220.24 55.54 219.837 54.763 219.423 54.0051C220.074 53.5394 220.718 53.0687 221.358 52.6162C221.787 53.3069 222.217 54.0035 222.652 54.6517ZM224.763 52.9978C224.101 53.5182 223.449 54.0197 222.783 54.5526C222.348 53.9102 221.924 53.2129 221.496 52.5281C222.147 52.0683 222.791 51.6392 223.437 51.186C223.875 51.8043 224.312 52.4226 224.763 52.9978ZM226.841 51.3656C226.194 51.8605 225.533 52.3927 224.882 52.9001C224.437 52.3242 223.994 51.7125 223.557 51.1001C224.199 50.6593 224.839 50.2068 225.476 49.7726C225.928 50.3178 226.386 50.8563 226.841 51.3656ZM228.925 49.7921C228.272 50.2877 227.623 50.765 226.96 51.2738C226.506 50.7645 226.054 50.2311 225.602 49.6918C226.251 49.2562 226.883 48.8344 227.521 48.4119C227.988 48.8839 228.455 49.3442 228.925 49.7921ZM230.989 48.2448C230.346 48.7214 229.698 49.2105 229.051 49.6995C228.58 49.2517 228.12 48.7907 227.653 48.3245C228.291 47.902 228.924 47.4861 229.556 47.0702C230.034 47.4756 230.509 47.8635 230.989 48.2448ZM233.029 46.7363C232.396 47.1997 231.746 47.6771 231.109 48.153C230.634 47.771 230.159 47.3831 229.683 46.9835C230.31 46.5742 230.942 46.1524 231.566 45.7555C232.053 46.0944 232.544 46.4149 233.029 46.7363ZM235.074 45.2804C234.435 45.7387 233.799 46.1788 233.155 46.6496C232.67 46.3283 232.185 46.007 231.699 45.6798C232.333 45.2756 232.958 44.8904 233.588 44.4986C234.084 44.7651 234.579 45.0198 235.074 45.2804ZM237.082 43.853C236.463 44.285 235.83 44.7485 235.206 45.193C234.717 44.9375 234.223 44.6828 233.732 44.4156C234.351 44.0311 234.975 43.6342 235.582 43.257C236.082 43.4576 236.582 43.6524 237.082 43.853ZM239.095 42.4724C238.469 42.8993 237.848 43.3138 237.218 43.7532C236.725 43.5577 236.225 43.3629 235.731 43.1558C236.356 42.7764 236.966 42.4168 237.586 42.044C238.086 42.1971 238.59 42.3318 239.095 42.4724ZM241.077 41.1313C240.467 41.5385 239.857 41.9515 239.243 42.3711C238.744 42.2298 238.246 42.0944 237.742 41.9538C238.351 41.5883 238.955 41.2293 239.555 40.8829C240.07 40.9686 240.573 41.0441 241.077 41.1313ZM243.028 39.8295C242.439 40.2163 241.84 40.6162 241.247 41.0154C240.75 40.9334 240.246 40.8521 239.749 40.77C240.343 40.4242 240.937 40.0785 241.525 39.7393C242.029 39.773 242.526 39.8016 243.028 39.8295ZM244.991 38.574C244.401 38.949 243.821 39.3109 243.226 39.6984C242.735 39.6691 242.244 39.6398 241.748 39.6111C242.337 39.2778 242.916 38.9576 243.5 38.6308C244.004 38.617 244.5 38.5922 244.991 38.574ZM246.883 37.3686C246.336 37.7087 245.78 38.0736 245.229 38.4261C244.744 38.4437 244.264 38.4605 243.78 38.4838C244.325 38.1796 244.881 37.8623 245.416 37.5712C245.907 37.4995 246.392 37.4344 246.883 37.3686ZM248.781 36.2102C248.238 36.5378 247.706 36.8523 247.153 37.1931C246.691 37.2554 246.234 37.311 245.773 37.3791C246.32 37.0866 246.857 36.8131 247.399 36.5272C247.861 36.4174 248.324 36.3134 248.781 36.2102ZM250.598 35.121C250.121 35.4049 249.633 35.6962 249.152 35.9867C248.735 36.079 248.318 36.1656 247.902 36.2638C248.366 36.023 248.834 35.7698 249.293 35.5356C249.727 35.3935 250.168 35.2565 250.598 35.121ZM252.176 34.1738C251.815 34.3842 251.445 34.6135 251.084 34.8239C250.735 34.9319 250.391 35.0333 250.035 35.1419C250.433 34.939 250.821 34.7609 251.219 34.5638C251.537 34.4419 251.865 34.3009 252.176 34.1738ZM253.2 33.6032C253.144 33.6338 253.089 33.6643 253.033 33.6949C252.993 33.7116 252.959 33.7218 252.919 33.7385C253.015 33.6912 253.105 33.6505 253.2 33.6032ZM224.098 56.6629C223.422 57.2565 222.756 57.8428 222.076 58.4547C221.629 57.7661 221.185 57.0951 220.746 56.37C221.411 55.8312 222.077 55.2983 222.733 54.7727C223.181 55.4313 223.641 56.035 224.098 56.6629ZM226.231 54.804C225.559 55.3852 224.892 55.9598 224.216 56.5593C223.76 55.9373 223.3 55.3336 222.851 54.675C223.518 54.1421 224.175 53.6341 224.842 53.1129C225.306 53.6983 225.771 54.2479 226.231 54.804ZM228.343 52.9657C227.692 53.5206 227.016 54.12 226.355 54.6939C225.889 54.1385 225.424 53.5948 224.966 53.0086C225.623 52.4947 226.283 51.9625 226.936 51.4669C227.398 51.9872 227.873 52.4761 228.343 52.9657ZM230.458 51.2041C229.79 51.767 229.135 52.2926 228.456 52.8687C227.986 52.3791 227.517 51.8954 227.05 51.3758C227.713 50.867 228.362 50.3897 229.026 49.8868C229.503 50.3398 229.984 50.7745 230.458 51.2041ZM232.547 49.4637C231.893 50.0011 231.235 50.5508 230.577 51.1064C230.097 50.6776 229.623 50.2538 229.146 49.8008C229.799 49.3052 230.453 48.8213 231.096 48.3388C231.583 48.7253 232.062 49.0949 232.547 49.4637ZM234.622 47.7665C233.973 48.2914 233.319 48.8287 232.665 49.366C232.181 49.003 231.702 48.6334 231.222 48.2521C231.871 47.7748 232.514 47.2923 233.159 46.8274C233.643 47.1429 234.133 47.4576 234.622 47.7665ZM236.698 46.1168C236.048 46.6358 235.401 47.1366 234.747 47.6681C234.258 47.365 233.774 47.0496 233.284 46.7349C233.934 46.2634 234.575 45.8168 235.22 45.3577C235.709 45.6132 236.199 45.8745 236.698 46.1168ZM238.73 44.5021C238.1 44.989 237.456 45.5132 236.822 46.0184C236.329 45.7754 235.84 45.5199 235.345 45.2593C235.974 44.8082 236.612 44.344 237.237 43.9113C237.731 44.1126 238.231 44.3132 238.73 44.5021ZM240.774 42.9394C240.132 43.4277 239.5 43.8971 238.854 44.3978C238.361 44.2082 237.862 44.0135 237.368 43.8122C238.009 43.3655 238.636 42.9503 239.267 42.5169C239.772 42.6633 240.277 42.8098 240.774 42.9394ZM242.794 41.4154C242.172 41.8775 241.542 42.3585 240.916 42.833C240.419 42.7034 239.919 42.5562 239.421 42.4207C240.041 41.9945 240.661 41.5742 241.277 41.1663C241.786 41.2469 242.29 41.3341 242.794 41.4154ZM244.783 39.9367C244.177 40.379 243.562 40.8404 242.946 41.3017C242.449 41.2197 241.946 41.1383 241.442 41.0512C242.052 40.644 242.662 40.2368 243.262 39.8427C243.777 39.875 244.28 39.9088 244.783 39.9367ZM246.784 38.5041C246.177 38.9406 245.574 39.3588 244.963 39.8077C244.467 39.7791 243.963 39.7453 243.466 39.7167C244.072 39.322 244.668 38.9462 245.269 38.5638C245.778 38.5435 246.281 38.5238 246.784 38.5041ZM248.714 37.1277C248.144 37.524 247.566 37.9511 246.992 38.3599C246.501 38.3781 246.004 38.3971 245.507 38.416C246.075 38.0555 246.653 37.676 247.211 37.3287C247.714 37.2614 248.211 37.1949 248.714 37.1277ZM250.651 35.804C250.08 36.1945 249.525 36.5594 248.95 36.9623C248.464 37.0215 247.978 37.0866 247.493 37.1517C248.073 36.7898 248.639 36.4652 249.215 36.1157C249.695 36.0096 250.176 35.9035 250.651 35.804ZM252.53 34.5408C252.013 34.8832 251.491 35.2379 250.964 35.5934C250.506 35.6908 250.044 35.7948 249.586 35.8921C250.107 35.5791 250.632 35.2594 251.148 34.9529C251.612 34.8131 252.071 34.674 252.53 34.5408ZM254.261 33.3789C253.82 33.6644 253.364 33.9755 252.919 34.2734C252.495 34.4024 252.065 34.532 251.635 34.6617C252.129 34.3698 252.618 34.0961 253.107 33.8166C253.488 33.6751 253.874 33.527 254.261 33.3789ZM255.96 32.304C255.591 32.5392 255.226 32.762 254.851 33.0038C254.544 33.1185 254.232 33.2398 253.925 33.3544C254.325 33.1274 254.72 32.9068 255.115 32.6863C255.403 32.5562 255.68 32.4392 255.96 32.304ZM257.054 31.618C256.976 31.6631 256.905 31.7134 256.827 31.7585C256.725 31.8007 256.63 31.8479 256.529 31.8959C256.707 31.797 256.881 31.7104 257.054 31.618ZM288.249 63.194C287.868 63.5316 287.488 63.881 287.107 64.2128C264.434 80.3313 239.925 85.9628 222.143 58.5713C222.83 57.9587 223.501 57.3716 224.178 56.778C242.414 81.6652 266.294 77.2575 288.249 63.194ZM290.389 61.251C289.93 61.6755 289.476 62.0993 289.015 62.5121C266.892 76.9469 242.721 81.7467 224.307 56.6672C224.983 56.0677 225.655 55.4924 226.327 54.9053C245.255 77.5626 268.91 73.8004 290.389 61.251ZM292.453 59.3115C291.942 59.8017 291.424 60.2809 290.912 60.7594C269.337 73.5463 245.498 77.5568 226.446 54.8076C227.112 54.2272 227.782 53.6284 228.439 53.0728C248.047 73.4541 271.46 70.3395 292.453 59.3115ZM294.493 57.3214C293.957 57.8503 293.416 58.3858 292.88 58.9088C271.819 70.1115 248.267 73.4094 228.563 52.9685C229.242 52.3925 229.902 51.8603 230.571 51.2974C250.833 69.3462 273.994 66.8389 294.493 57.3214ZM296.545 55.2823C295.963 55.8703 295.385 56.446 294.796 57.023C274.262 66.6517 251.015 69.2765 230.683 51.1946C231.346 50.6383 232.01 50.0819 232.663 49.5446C253.6 65.2704 276.526 63.3267 296.545 55.2823ZM298.585 53.1971C297.988 53.8107 297.391 54.4243 296.794 55.0321C276.755 63.1562 253.774 65.1839 232.783 49.4528C233.442 48.9089 234.101 48.3708 234.751 47.8459C256.352 61.2203 279.043 59.7925 298.585 53.1971ZM300.607 51.0606C300.007 51.6983 299.408 52.3419 298.796 52.9752C279.243 59.6314 256.506 61.1241 234.864 47.7489C235.524 47.2167 236.175 46.7036 236.831 46.1897C259.082 57.1905 281.541 56.2428 300.607 51.0606ZM302.657 48.8612C302.037 49.5311 301.418 50.201 300.791 50.8657C281.725 56.0956 259.235 57.0827 236.955 46.0854C237.595 45.5795 238.244 45.0487 238.879 44.5552C261.793 53.1929 284.043 52.6808 302.657 48.8612ZM304.717 46.5953C304.089 47.2959 303.455 47.9913 302.819 48.6809C284.209 52.5298 261.945 53.0792 239.009 44.4561C239.667 43.9481 240.299 43.4787 240.952 42.9831C264.508 49.2304 286.554 49.0938 304.717 46.5953ZM306.781 44.2635C306.144 44.9889 305.507 45.7144 304.864 46.4347C286.715 48.9494 264.659 49.1109 241.093 42.8767C241.73 42.3949 242.361 41.9139 242.987 41.4453C267.191 45.3016 289.051 45.4907 306.781 44.2635ZM308.86 41.8703C308.215 42.6206 307.563 43.3716 306.911 44.1168C289.2 45.3478 267.348 45.1754 243.14 41.3316C243.766 40.863 244.388 40.4009 245.01 39.9506C269.867 41.4092 291.551 41.8635 308.86 41.8703ZM310.957 39.4156C310.302 40.1908 309.641 40.9608 308.98 41.7309C291.695 41.7271 270.029 41.2765 245.19 39.8157C245.812 39.3595 246.425 38.9282 247.044 38.4903C272.536 37.5593 294.063 38.229 310.957 39.4156ZM313.057 36.8951C312.399 37.6945 311.735 38.4886 311.065 39.2835C294.195 38.094 272.703 37.4201 247.246 38.3468C247.831 37.9307 248.425 37.4898 249.006 37.0861C275.157 33.751 296.547 34.5739 313.057 36.8951ZM315.167 34.3081C314.5 35.1264 313.833 35.9506 313.155 36.7703C296.68 34.4448 275.33 33.611 249.242 36.9208C249.845 36.5026 250.429 36.1282 251.022 35.7231C277.795 29.9881 299.055 30.9101 315.167 34.3081ZM317.293 31.6596C316.623 32.5021 315.947 33.3452 315.265 34.1891C299.189 30.7869 278.004 29.8497 251.341 35.5119C251.89 35.1418 252.444 34.7652 252.988 34.4017C280.391 26.2718 301.543 27.2309 317.293 31.6596ZM315.067 37.0485C315.739 36.2712 316.399 35.4953 317.053 34.7201C317.579 34.8403 318.1 34.967 318.614 35.0887C317.96 35.8221 317.301 36.5563 316.63 37.2919C316.115 37.212 315.593 37.1269 315.067 37.0485ZM312.99 39.4234C313.654 38.6709 314.311 37.9192 314.962 37.1682C315.489 37.2466 316.005 37.3324 316.52 37.4123C315.869 38.1216 315.218 38.8309 314.556 39.5417C314.04 39.5035 313.512 39.4609 312.99 39.4234ZM310.924 41.7317C311.578 41.0041 312.227 40.2831 312.87 39.5569C313.392 39.5944 313.914 39.6377 314.43 39.6759C313.788 40.3604 313.135 41.0463 312.481 41.7322C311.97 41.7291 311.447 41.7334 310.924 41.7317ZM308.885 43.9714C309.531 43.2745 310.165 42.5732 310.798 41.8719C311.316 41.8742 311.838 41.87 312.349 41.8672C311.716 42.5268 311.077 43.1871 310.433 43.8481C309.921 43.8926 309.409 43.9313 308.885 43.9714ZM306.873 46.1423C307.504 45.471 308.129 44.7946 308.748 44.1188C309.266 44.0794 309.779 44.0408 310.29 43.9962C309.666 44.631 309.042 45.2657 308.413 45.9012C307.9 45.9875 307.387 46.0678 306.873 46.1423ZM304.853 48.2489C305.476 47.6024 306.098 46.9559 306.714 46.3043C307.228 46.2298 307.736 46.1501 308.243 46.0705C307.628 46.6804 307.013 47.2903 306.391 47.895C305.883 48.0164 305.369 48.1385 304.853 48.2489ZM302.872 50.2794C303.474 49.6651 304.083 49.05 304.68 48.4364C305.189 48.3209 305.698 48.2054 306.2 48.0847C305.594 48.6698 304.987 49.2489 304.374 49.8288C303.875 49.9788 303.376 50.1287 302.872 50.2794ZM300.939 52.2208C301.516 51.6452 302.093 51.0637 302.665 50.4829C303.164 50.3388 303.657 50.1896 304.149 50.0345C303.563 50.5874 302.976 51.1403 302.383 51.6881C301.906 51.871 301.422 52.043 300.939 52.2208ZM298.993 54.1043C299.556 53.5601 300.126 53.0152 300.683 52.4659C301.162 52.2947 301.634 52.1241 302.106 51.9478C301.545 52.462 300.989 52.9755 300.421 53.4845C299.953 53.6902 299.473 53.8973 298.993 54.1043ZM297.102 55.9039C297.641 55.3984 298.174 54.8936 298.706 54.383C299.163 54.1846 299.622 53.998 300.078 53.7938C299.543 54.2751 298.999 54.7396 298.462 55.2092C298.009 55.4427 297.556 55.6762 297.102 55.9039ZM295.271 57.607C295.763 57.1607 296.248 56.7033 296.734 56.246C297.154 56.0402 297.575 55.8344 297.995 55.6227C297.517 56.0376 297.032 56.4533 296.547 56.8631C296.12 57.1113 295.693 57.3654 295.271 57.607ZM293.518 59.1699C293.947 58.7907 294.377 58.4173 294.8 58.033C295.156 57.835 295.506 57.6378 295.856 57.4347C295.452 57.7752 295.048 58.1157 294.643 58.4503C294.274 58.6914 293.893 58.934 293.518 59.1699ZM292.102 60.4301C292.338 60.223 292.579 60.0035 292.815 59.7964C293.075 59.634 293.335 59.4716 293.593 59.3033C293.285 59.5548 292.976 59.7947 292.667 60.0403C292.475 60.1707 292.288 60.3004 292.102 60.4301ZM219.865 60.6499C236.43 89.3784 260.192 84.3431 282.744 67.9184C259.117 87.1368 234.168 94.2307 217.81 62.517C218.499 61.8803 219.179 61.2684 219.865 60.6499ZM218.492 58.2138C218.917 59.0179 219.353 59.7672 219.79 60.5282C219.105 61.1467 218.43 61.7578 217.741 62.3887C217.319 61.5663 216.897 60.7322 216.482 59.8615C217.161 59.2913 217.822 58.765 218.492 58.2138ZM217.206 55.6126C217.611 56.4488 218.007 57.3041 218.424 58.0914C217.754 58.6426 217.099 59.1682 216.424 59.7318C216.022 58.8714 215.638 57.9613 215.247 57.046C215.906 56.5555 216.556 56.0841 217.206 55.6126ZM215.925 52.9038C216.325 53.7942 216.736 54.6298 217.142 55.4777C216.493 55.9551 215.842 56.4207 215.188 56.9046C214.797 55.9835 214.395 55.0814 214.01 54.112C214.65 53.707 215.29 53.3021 215.925 52.9038ZM214.727 50.0482C215.107 50.9707 215.482 51.8998 215.868 52.7799C215.233 53.1783 214.598 53.5766 213.964 53.9808C213.593 53.0334 213.237 52.0129 212.883 51.0099C213.498 50.6913 214.117 50.3602 214.727 50.0482ZM213.55 47.0711C213.919 48.0485 214.295 48.9894 214.676 49.9178C214.066 50.2298 213.446 50.555 212.836 50.8729C212.475 49.859 212.113 48.8392 211.77 47.7755C212.359 47.5431 212.96 47.3035 213.55 47.0711ZM212.429 43.9684C212.784 44.9831 213.143 45.9736 213.504 46.94C212.914 47.1665 212.314 47.412 211.724 47.6443C211.382 46.5924 211.041 45.5046 210.71 44.3978C211.282 44.2627 211.858 44.1093 212.429 43.9684ZM211.352 40.7355C211.688 41.7882 212.029 42.8343 212.377 43.838C211.812 43.9782 211.236 44.1257 210.67 44.2659C210.341 43.1708 210.024 42.0326 209.711 40.8819C210.259 40.839 210.811 40.7836 211.352 40.7355ZM210.3 37.3747C210.631 38.4815 210.974 39.5393 211.312 40.6037C210.765 40.6525 210.218 40.7013 209.671 40.7501C209.358 39.5936 209.039 38.4436 208.731 37.2329C209.255 37.2821 209.778 37.3313 210.3 37.3747ZM209.329 33.8911C209.633 35.019 209.938 36.1587 210.253 37.2318C209.736 37.1878 209.213 37.1386 208.696 37.0887C208.405 35.9176 208.123 34.6799 207.848 33.4474C208.342 33.5953 208.835 33.7432 209.329 33.8911ZM208.345 30.2545C208.651 31.4535 208.973 32.5793 209.285 33.73C208.792 33.5879 208.299 33.44 207.806 33.298C207.522 32.0428 207.225 30.8248 206.948 29.5213C207.418 29.7672 207.881 30.0138 208.345 30.2545ZM207.475 26.5327C207.751 27.7235 208.018 28.9392 208.299 30.0758C207.836 29.8351 207.372 29.5885 206.915 29.3471C206.657 28.1124 206.42 26.798 206.179 25.502C206.613 25.8473 207.041 26.1933 207.475 26.5327ZM206.59 22.6345C206.862 23.8911 207.146 25.0988 207.425 26.313C206.997 25.9729 206.564 25.6393 206.135 25.2933C205.885 23.9745 205.627 22.6864 205.389 21.3186C205.789 21.7692 206.187 22.2022 206.59 22.6345ZM205.799 18.6773C206.039 19.9199 206.281 21.1743 206.534 22.3679C206.177 21.9775 205.815 21.5936 205.462 21.1849L205.456 21.1798L205.449 21.1746L205.357 21.1026C205.136 19.822 204.931 18.4858 204.722 17.1561L204.873 17.322C205.179 17.7899 205.489 18.2336 205.799 18.6773ZM205.003 14.5363C205.237 15.8273 205.479 17.0816 205.727 18.3294C205.481 17.973 205.23 17.6173 204.988 17.2426L204.987 17.2367L204.981 17.2316C204.878 17.1193 204.781 17.0122 204.684 16.8992C204.474 15.5637 204.26 14.2464 204.062 12.8619C204.171 13.0269 204.28 13.1919 204.39 13.3569C204.589 13.7725 204.795 14.1515 205.003 14.5363ZM204.298 10.3606C204.505 11.6192 204.712 12.8837 204.932 14.0992C204.793 13.8368 204.648 13.5751 204.513 13.3003L204.513 13.2944L204.512 13.2885C204.345 13.0414 204.185 12.7994 204.024 12.5515C203.837 11.2608 203.667 9.91441 203.492 8.57463L203.908 9.40361C204.032 9.73917 204.165 10.0499 204.298 10.3606ZM203.601 6.00554C203.791 7.27218 203.99 8.51982 204.194 9.74918C204.142 9.61876 204.085 9.4949 204.034 9.36448L204.033 9.35862C203.83 8.96135 203.633 8.56336 203.437 8.17123C203.262 6.8373 203.084 5.52166 202.924 4.15632C203.09 4.59373 203.256 5.03114 203.428 5.46785C203.48 5.64584 203.537 5.82312 203.601 6.00554ZM202.977 1.67121C203.148 2.87486 203.313 4.08507 203.492 5.25801C203.282 4.70703 203.066 4.15676 202.857 3.60578C202.713 2.381 202.583 1.11307 202.452 -0.154852L202.939 1.50351C202.951 1.55551 202.964 1.61336 202.977 1.67121ZM202.392 -2.7391C202.534 -1.57945 202.683 -0.450521 202.837 0.665985L202.368 -0.941085C202.241 -2.17972 202.102 -3.36937 201.979 -4.62043L202.392 -2.7391ZM201.917 -6.73486C202.023 -5.86806 202.119 -4.98225 202.223 -4.12716L201.88 -5.67823C201.798 -6.54203 201.73 -7.44311 201.651 -8.33692L201.917 -6.73486ZM201.487 -10.3616C201.507 -10.2035 201.525 -10.0571 201.544 -9.89896L201.501 -10.1552C201.492 -10.2789 201.477 -10.4019 201.467 -10.5256L201.487 -10.3616ZM202.526 -2.76137C202.511 -2.89022 202.494 -3.02493 202.479 -3.15378C202.51 -2.94365 202.542 -2.73351 202.579 -2.5241L202.526 -2.76137ZM203.117 1.64237C202.985 0.707426 202.846 -0.190953 202.718 -1.14418C202.829 -0.569354 202.949 -0.0252384 203.061 0.549586C203.199 1.39454 203.336 2.22192 203.477 3.04273C203.355 2.57618 203.234 2.12135 203.117 1.64237ZM203.734 5.97741C203.582 4.97361 203.437 3.92738 203.293 2.89287C203.468 3.59669 203.651 4.27567 203.831 4.96706C204.011 5.95558 204.193 6.96167 204.377 7.93776C204.161 7.2865 203.946 6.64109 203.734 5.97741ZM204.43 10.3266C204.233 9.14408 204.037 7.97915 203.848 6.76593C204.081 7.50433 204.323 8.22373 204.559 8.94384C204.78 10.0701 205.007 11.1597 205.23 12.256C204.962 11.617 204.695 10.9839 204.43 10.3266ZM205.141 14.4958C204.929 13.3447 204.734 12.1381 204.535 10.9438C204.816 11.6407 205.102 12.3251 205.387 13.0095C205.618 14.1226 205.848 15.2298 206.086 16.3005C205.775 15.7023 205.453 15.1056 205.141 14.4958ZM205.93 18.6316C205.686 17.4072 205.443 16.2004 205.212 14.9388C205.538 15.5648 205.863 16.1849 206.194 16.7984C206.46 17.9607 206.733 19.0746 207.007 20.2061C206.647 19.6854 206.291 19.1581 205.93 18.6316ZM206.72 22.5771C206.472 21.4186 206.238 20.1869 206.002 18.9794C206.371 19.517 206.734 20.0611 207.102 20.5928C207.368 21.7016 207.635 22.8222 207.914 23.8878C207.516 23.4548 207.118 23.0159 206.72 22.5771ZM207.609 26.457C207.332 25.2604 207.046 24.0827 206.776 22.8436C207.181 23.2876 207.58 23.7382 207.984 24.1764C208.283 25.3109 208.599 26.3898 208.905 27.4878C208.471 27.1484 208.036 26.7972 207.609 26.457ZM208.47 30.162C208.185 29.0436 207.926 27.8448 207.658 26.6709C208.093 27.0162 208.528 27.3673 208.968 27.7119C209.265 28.7813 209.558 29.869 209.867 30.8952C209.398 30.6552 208.934 30.4086 208.47 30.162ZM209.452 33.781C209.141 32.642 208.821 31.5279 208.522 30.3458C208.986 30.5924 209.456 30.8383 209.919 31.0791C210.247 32.1566 210.59 33.1668 210.93 34.2071C210.438 34.0709 209.945 33.923 209.452 33.781ZM210.415 37.2477C210.101 36.1804 209.797 35.0525 209.495 33.9363C209.988 34.0783 210.487 34.2255 210.98 34.3675C211.306 35.3857 211.633 36.4099 211.971 37.385C211.455 37.3409 210.932 37.2917 210.415 37.2477ZM211.465 40.591C211.128 39.5383 210.786 38.4863 210.462 37.3905C210.986 37.4397 211.508 37.483 212.031 37.5322C212.385 38.5352 212.745 39.4899 213.106 40.4504C212.558 40.4934 212.011 40.5422 211.465 40.591ZM212.528 43.8018C212.18 42.804 211.84 41.7696 211.504 40.7228C212.057 40.6733 212.604 40.6245 213.152 40.5816C213.512 41.5362 213.87 42.4792 214.237 43.3915C213.671 43.5258 213.099 43.6609 212.528 43.8018ZM213.646 46.887C213.286 45.9265 212.928 44.9418 212.573 43.933C213.15 43.7913 213.716 43.657 214.288 43.5219C214.662 44.4451 215.045 45.3377 215.425 46.2185C214.834 46.4392 214.249 46.6591 213.646 46.887ZM214.816 49.8472C214.436 48.9247 214.06 47.9897 213.692 47.0181C214.294 46.7844 214.886 46.5696 215.482 46.3424C215.869 47.2225 216.258 48.0785 216.652 48.922C216.042 49.2282 215.431 49.5344 214.816 49.8472ZM216.006 52.6918C215.621 51.8234 215.246 50.8943 214.867 49.9776C215.488 49.6583 216.099 49.3579 216.71 49.0517C217.103 49.8894 217.502 50.7264 217.902 51.5217C217.272 51.9076 216.647 52.2928 216.006 52.6918ZM217.279 55.3837C216.874 54.5416 216.457 53.7068 216.064 52.8215C216.704 52.4225 217.335 52.0366 217.971 51.6441C218.384 52.4496 218.804 53.2128 219.224 53.9817C218.58 54.4467 217.929 54.9123 217.279 55.3837ZM218.559 57.9798C218.148 57.1977 217.748 56.349 217.343 55.5127C217.998 55.0347 218.642 54.5698 219.293 54.1042C219.706 54.8622 220.116 55.6443 220.542 56.3533C219.882 56.8913 219.217 57.4359 218.559 57.9798ZM219.918 60.4056C219.481 59.6505 219.051 58.9005 218.621 58.103C219.286 57.5584 219.951 57.0137 220.61 56.4757C221.05 57.2067 221.5 57.877 221.947 58.5655C221.277 59.1701 220.598 59.7937 219.918 60.4056ZM285.1 65.9432C261.903 83.7066 237.101 90.1584 219.987 60.5339C220.667 59.9162 221.346 59.2926 222.021 58.6872C239.534 85.737 263.578 80.7209 285.979 65.2002C285.688 65.4496 285.397 65.6931 285.1 65.9432ZM289.752 62.2143C289.52 62.409 289.289 62.6095 289.056 62.7984C288.784 63.0039 288.507 63.216 288.234 63.4157C288.529 63.1539 288.818 62.8928 289.113 62.631C289.328 62.4918 289.543 62.3527 289.752 62.2143ZM292.106 60.2215C291.665 60.6022 291.224 60.977 290.776 61.3525C290.469 61.5623 290.161 61.7662 289.847 61.9709C290.237 61.6143 290.62 61.2408 291.01 60.8783C291.375 60.6613 291.741 60.4443 292.106 60.2215ZM294.203 58.3553C293.71 58.7958 293.217 59.2363 292.723 59.6709C292.331 59.9149 291.931 60.1478 291.532 60.3866C292.012 59.9358 292.492 59.4851 292.971 59.0284C293.384 58.8058 293.797 58.5831 294.203 58.3553ZM296.262 56.4758C295.744 56.955 295.221 57.4407 294.696 57.9148C294.251 58.1652 293.805 58.4038 293.358 58.6425C293.868 58.1464 294.378 57.6445 294.887 57.1426C295.354 56.9252 295.808 56.6976 296.262 56.4758ZM298.322 54.5487C297.762 55.0804 297.197 55.6071 296.63 56.1278C296.159 56.3576 295.688 56.5933 295.216 56.8172C295.773 56.262 296.329 55.7068 296.879 55.1465C297.366 54.9504 297.847 54.7492 298.322 54.5487ZM300.342 52.5907C299.769 53.1539 299.189 53.712 298.615 54.2693C298.123 54.4778 297.632 54.6922 297.134 54.8955C297.72 54.2951 298.313 53.6997 298.893 53.0941C299.378 52.928 299.863 52.7619 300.342 52.5907ZM302.366 50.5727C301.779 51.1674 301.186 51.7627 300.591 52.3463C300.102 52.5248 299.606 52.6982 299.109 52.8657C299.705 52.2462 300.294 51.6099 300.882 50.9794C301.383 50.8471 301.879 50.7154 302.366 50.5727ZM304.424 48.4854C303.812 49.1187 303.192 49.741 302.573 50.3692C302.074 50.5133 301.574 50.6515 301.067 50.7905C301.683 50.133 302.292 49.4762 302.906 48.8071C303.417 48.7033 303.92 48.5943 304.424 48.4854ZM306.481 46.3387C305.86 46.9969 305.226 47.6507 304.598 48.3037C304.094 48.4126 303.579 48.523 303.068 48.6268C303.698 47.9379 304.328 47.2549 304.95 46.5608C305.459 46.4929 305.973 46.4184 306.481 46.3387ZM308.537 44.1386C307.907 44.8217 307.277 45.5047 306.639 46.1767C306.125 46.2513 305.611 46.3258 305.097 46.4003C305.735 45.6866 306.361 44.9684 306.993 44.2495C307.506 44.2167 308.018 44.178 308.537 44.1386ZM310.608 41.8713C309.969 42.5792 309.324 43.2819 308.672 43.9854C308.154 44.0248 307.642 44.0634 307.118 44.1035C307.765 43.3649 308.41 42.6146 309.051 41.8708C309.574 41.8725 310.091 41.8748 310.608 41.8713ZM312.696 39.5425C312.048 40.2752 311.388 41.0036 310.734 41.7312C310.217 41.7347 309.694 41.7331 309.17 41.7314C309.826 40.9621 310.487 40.198 311.137 39.4294C311.658 39.4668 312.18 39.5043 312.696 39.5425ZM314.793 37.1471C314.137 37.9047 313.479 38.6565 312.811 39.4155C312.295 39.3773 311.768 39.3406 311.24 39.3038C311.904 38.5096 312.568 37.7155 313.221 36.9227C313.752 36.9946 314.278 37.0672 314.793 37.1471ZM316.895 34.6859C316.234 35.4618 315.575 36.2436 314.897 37.0216C314.382 36.9417 313.85 36.8698 313.324 36.7972C313.997 35.9782 314.664 35.1598 315.325 34.3422C315.856 34.4559 316.375 34.5709 316.895 34.6859ZM319.012 32.1633C318.349 32.9633 317.674 33.7648 316.999 34.5663C316.479 34.4454 315.954 34.331 315.423 34.2174C316.105 33.3735 316.775 32.5311 317.446 31.6945C317.976 31.8498 318.494 32.0066 319.012 32.1633ZM317.534 16.7648C303.303 12.5552 284.166 15.012 258.533 30.6829C257.382 31.2868 256.221 31.9096 255.047 32.5639C253.764 33.16 252.463 33.7941 251.146 34.448C249.893 34.9512 248.626 35.4742 247.344 36.0286C246.162 36.4224 244.964 36.8358 243.756 37.2624C242.486 37.5775 241.208 37.9116 239.913 38.2596C238.752 38.4427 237.587 38.6381 236.411 38.835C235.229 38.8957 234.037 38.9638 232.839 39.0325C231.688 38.9528 230.53 38.868 229.367 38.7839C228.263 38.55 227.158 38.3102 226.045 38.0594C224.955 37.6454 223.857 37.2205 222.757 36.778C221.741 36.1945 220.722 35.5876 219.706 34.9624C218.691 34.1411 217.678 33.2898 216.666 32.4026C215.767 31.4126 214.87 30.3926 213.98 29.336C213.043 27.9821 212.116 26.5734 211.196 25.1165C210.461 23.7201 209.736 22.263 209.02 20.7751C208.214 18.7931 207.428 16.7313 206.657 14.6022C206.087 12.7519 205.532 10.8342 204.996 8.8669C204.372 6.18503 203.781 3.38616 203.199 0.514885C202.823 -1.73956 202.454 -4.04229 202.109 -6.43129L202.057 -6.75785C201.911 -7.95849 201.762 -9.13499 201.628 -10.3788L201.098 -15.0216C200.674 -20.6938 200.262 -26.2248 199.864 -31.5851C199.225 -40.1436 198.623 -48.2548 198.042 -55.9525L197.901 -55.9353C198.483 -48.2377 199.084 -40.1323 199.723 -31.5739C200.038 -27.3327 200.359 -22.9854 200.697 -18.5034L199.993 -24.6763C198.724 -35.7732 197.54 -46.1198 196.409 -55.7475L196.268 -55.7303C197.4 -46.1026 198.582 -35.762 199.852 -24.6592C200.213 -21.4995 200.582 -18.2813 200.957 -15.0045L201.012 -14.3098C201.075 -13.5032 201.149 -12.7514 201.215 -11.963C200.671 -15.3084 200.141 -18.5842 199.619 -21.7956C197.65 -33.9543 195.833 -45.1569 194.106 -55.4729L193.966 -55.4557C195.686 -45.139 197.503 -33.9365 199.478 -21.7785C200.094 -17.9901 200.721 -14.1139 201.365 -10.1447C201.458 -8.99103 201.552 -7.83153 201.658 -6.71517C200.446 -12.2259 199.274 -17.5513 198.148 -22.6981C195.578 -34.4211 193.212 -45.206 190.978 -55.0976L190.837 -55.0805C193.077 -45.1895 195.438 -34.3981 198.008 -22.6692C199.203 -17.2039 200.447 -11.5365 201.745 -5.66181C201.873 -4.32218 202.008 -3.01326 202.143 -1.7102C199.59 -10.4692 197.202 -18.7492 194.953 -26.5764C192.048 -36.6597 189.365 -45.9914 186.814 -54.5843L186.674 -54.5672C189.22 -45.9677 191.909 -36.6308 194.815 -26.5358C197.134 -18.4793 199.595 -9.94085 202.228 -0.918102C202.369 0.431817 202.51 1.78759 202.663 3.09437C197.822 -9.56433 193.488 -21.2803 189.499 -32.0637C186.625 -39.8445 183.931 -47.1243 181.356 -53.9192L181.215 -53.902C183.792 -47.0954 186.488 -39.804 189.369 -32.0121C193.403 -21.0976 197.799 -9.21679 202.717 3.63462C202.883 5.04096 203.056 6.41074 203.234 7.77981C194.921 -8.7888 187.908 -23.9051 181.636 -37.4296C179.096 -42.9034 176.678 -48.1186 174.339 -53.0642L174.193 -53.0463C176.533 -48.089 178.959 -42.8629 181.506 -37.3722C187.825 -23.7524 194.895 -8.51225 203.286 8.20149C203.466 9.58227 203.64 10.9638 203.832 12.2955C190.829 -7.25 180.634 -25.3071 171.698 -41.1341C169.583 -44.8825 167.537 -48.5025 165.543 -51.9922L165.39 -51.9736C167.393 -48.4671 169.452 -44.8309 171.576 -41.0657C180.55 -25.172 190.796 -7.03202 203.87 12.606C204.07 14.0022 204.283 15.3611 204.496 16.7141C185.767 -4.01199 172.233 -24.4974 160.457 -42.3142C158.563 -45.18 156.718 -47.9806 154.901 -50.6954L154.748 -50.6769C156.58 -47.94 158.439 -45.1233 160.348 -42.2355C172.154 -24.3688 185.725 -3.82258 204.539 16.9704C204.751 18.3235 204.958 19.6831 205.182 20.9813C180.056 1.40923 163.363 -21.1994 148.777 -40.9504C146.699 -43.7641 144.664 -46.5177 142.655 -49.1972L142.497 -49.178C144.52 -46.4764 146.57 -43.7008 148.669 -40.8658C163.277 -21.076 180.006 1.58179 205.213 21.1856C205.45 22.5475 205.704 23.848 205.953 25.161L205.926 25.1345L205.919 25.1294L205.913 25.1243C174.043 9.08427 154.533 -15.6715 137.279 -37.5581C134.579 -40.9856 131.936 -44.3367 129.307 -47.5766L129.143 -47.5566C131.787 -44.2948 134.451 -40.9165 137.172 -37.4677C154.444 -15.5715 173.961 9.1894 205.856 25.2441C205.908 25.2852 205.955 25.3271 206.007 25.3624C206.255 26.6695 206.496 28.0073 206.755 29.2536C206.64 29.1903 206.526 29.1329 206.405 29.0703L206.399 29.0652L206.393 29.0659C167.859 18.6227 145.93 -8.47139 126.287 -32.7475C122.628 -37.2647 119.046 -41.6901 115.455 -45.8887L115.291 -45.8688C118.902 -41.6489 122.505 -37.2021 126.179 -32.6571C145.835 -8.3707 167.773 18.7461 206.35 29.2019C206.496 29.2792 206.642 29.3565 206.788 29.4337C207.068 30.749 207.361 31.9852 207.652 33.2514C207.393 33.176 207.134 33.1005 206.881 33.0244L206.875 33.0192L206.869 33.0199C161.692 29.8174 137.632 -0.0306241 115.874 -27.0386C111.07 -33.0032 106.372 -38.8262 101.586 -44.1987L101.416 -44.178C106.222 -38.7901 110.935 -32.9392 115.765 -26.954C137.544 0.0752171 161.619 29.9452 206.844 33.1538C207.127 33.2381 207.404 33.3172 207.688 33.4016C207.97 34.6392 208.247 35.8951 208.539 37.0721C208.143 37.0372 207.746 37.0023 207.343 36.9623L207.337 36.963L207.332 36.9637C155.589 42.3119 129.625 9.23068 106.027 -20.8281C100.005 -28.4928 94.138 -35.9624 88.0396 -42.548L87.8697 -42.5273C93.9878 -35.9263 99.8704 -28.4289 105.907 -20.7421C129.527 9.34967 155.518 42.4573 207.331 37.1064C207.746 37.145 208.161 37.1836 208.569 37.2171C208.878 38.4336 209.198 39.5953 209.512 40.7635C208.942 40.8151 208.378 40.8661 207.802 40.9185L207.796 40.9192L207.79 40.9199C149.542 55.8517 121.83 19.0547 96.6698 -14.3563C89.458 -23.9326 82.4584 -33.2316 75.0024 -40.9593L74.8267 -40.9379C82.3017 -33.2006 89.3218 -23.8803 96.5546 -14.2769C121.743 19.1722 149.483 56.0074 207.824 41.0525C208.406 40.9994 208.976 40.9477 209.552 40.8953C209.871 42.0511 210.19 43.2011 210.514 44.3028C209.77 44.4885 209.026 44.6743 208.277 44.8666L208.271 44.8674L208.265 44.8681C143.52 70.2324 114.192 29.2041 87.7308 -7.81659C79.3905 -19.4843 71.3292 -30.7639 62.5333 -39.4399L62.3575 -39.4184C71.1777 -30.7395 79.26 -19.4327 87.6288 -7.7269C114.119 29.332 143.475 70.4042 208.323 45.0036C209.078 44.8106 209.817 44.6255 210.566 44.439C210.898 45.5517 211.239 46.6395 211.582 47.7032C210.641 48.0735 209.704 48.4372 208.759 48.8258L208.753 48.8266C137.525 85.3289 106.687 39.5574 79.1702 -1.29328C69.7598 -15.2556 60.7339 -28.6466 50.6205 -37.9882L50.439 -37.9661C60.5809 -28.6339 69.6221 -15.215 79.0551 -1.21388C106.607 39.6801 137.476 85.5073 208.81 48.9504C209.756 48.5677 210.687 48.2046 211.622 47.835C211.972 48.9039 212.33 49.9361 212.691 50.9501C211.546 51.5473 210.394 52.1453 209.229 52.7747L209.223 52.7755C131.497 101.024 99.2427 49.9745 70.8918 5.10649C60.4872 -11.3559 50.6055 -26.9904 39.1939 -36.5958L39.0065 -36.573C50.4452 -26.9887 60.3488 -11.3212 70.7767 5.1859C99.164 50.1089 131.456 101.219 209.297 52.8972C210.457 52.2743 211.603 51.6771 212.743 51.0805C213.103 52.0886 213.46 53.1091 213.832 54.0682C212.47 54.9356 211.097 55.8161 209.711 56.7339C144.133 103.847 109.25 79.8588 83.3557 43.7853C75.9683 33.4994 69.3107 22.227 62.8846 11.3424C51.5051 -7.90169 40.8485 -25.9441 28.1187 -35.2462L27.9196 -35.222C40.6802 -25.9593 51.3594 -7.87799 62.7563 11.4116C69.189 22.3013 75.8466 33.5737 83.2347 43.8655C109.178 79.9983 144.113 104.028 209.785 56.8498C211.165 55.9386 212.527 55.0653 213.879 54.2052C214.265 55.1805 214.661 56.0892 215.059 57.0154C213.456 58.2033 211.828 59.4241 210.187 60.688C146.562 112.027 110.411 96.4133 84.3649 64.1149C73.2043 50.2767 63.8929 33.372 55.0765 17.358C42.8877 -4.77129 31.6363 -25.2079 17.7048 -33.5433C17.4995 -33.6669 17.2949 -33.7846 17.0845 -33.9016L16.8561 -33.8738C17.1177 -33.7274 17.3733 -33.5802 17.6356 -33.4279C31.5291 -25.1116 42.7784 -4.69259 54.9533 17.4206C63.7763 33.4397 73.0884 50.3502 84.2563 64.1994C110.352 96.5573 146.56 112.205 210.271 60.7966C211.907 59.5392 213.519 58.3265 215.116 57.1451C215.507 58.0604 215.893 58.9822 216.295 59.8426C214.45 61.3811 212.565 62.9896 210.669 64.6413C147.099 121.067 109.666 110.882 83.098 80.9355C68.8968 64.9239 57.7933 43.2627 47.4623 23.1122C36.6942 2.1055 26.7677 -17.2622 15.0306 -26.9052L15.0549 -26.706C26.7158 -17.0538 36.6103 2.24649 47.3392 23.1747C57.6709 43.3311 68.7816 65.0033 82.996 81.0252C109.613 111.031 147.103 121.245 210.758 64.7433C212.65 63.0982 214.517 61.4976 216.358 59.9658C216.768 60.843 217.196 61.6764 217.618 62.5047C215.496 64.4572 213.336 66.4857 211.144 68.5954C146.73 130.527 107.951 124.512 80.7156 96.1625C63.8341 78.5933 51.3819 52.4485 40.0152 28.5785C32.0433 11.8375 24.6008 -3.77921 16.5358 -14.5532L16.5693 -14.2779C24.5663 -3.52537 31.9682 12.0012 39.8855 28.6359C51.2594 52.5169 63.719 78.6728 80.6143 96.2581C107.904 124.66 146.745 130.698 211.24 68.6967C213.422 66.6002 215.571 64.5789 217.682 62.6396C234.644 95.5517 260.811 86.8413 285.201 66.0855C286.527 65.068 287.844 64.0219 289.157 62.9407C290.367 62.0443 291.568 61.1193 292.766 60.1709C294.079 59.2441 295.384 58.2946 296.673 57.3113C297.898 56.4845 299.12 55.6342 300.321 54.7627C301.623 53.9383 302.918 53.0971 304.192 52.2345C305.434 51.5065 306.662 50.7566 307.877 49.9904C309.171 49.2978 310.44 48.5904 311.695 47.8668C312.976 47.259 314.238 46.6357 315.474 46.0036C316.725 45.4886 317.957 44.964 319.158 44.4313C319.724 44.2435 320.283 44.0506 320.836 43.8584L320.819 43.7178L320.493 43.8288L320.814 43.6827L320.791 43.4953C320.422 43.5819 320.046 43.6693 319.67 43.7509C320.031 43.5463 320.392 43.3418 320.748 43.138L320.729 42.9857C320.213 43.2805 319.695 43.5694 319.172 43.8591C318.709 43.963 318.239 44.0618 317.77 44.1606C318.31 43.8154 318.838 43.4658 319.366 43.1162C319.823 43.0605 320.275 43.0114 320.726 42.9564L320.709 42.8217C320.352 42.8653 319.989 42.9095 319.625 42.9479C319.966 42.7221 320.307 42.4963 320.642 42.2653L320.622 42.1072C320.188 42.3979 319.748 42.6892 319.308 42.9806C318.816 43.0347 318.311 43.0902 317.807 43.1457C318.395 42.7055 318.983 42.2653 319.559 41.8207L320.586 41.8085L320.569 41.6679L319.75 41.6786C320 41.4876 320.249 41.2908 320.5 41.0998L320.48 40.9358C320.159 41.1829 319.838 41.43 319.512 41.6778C319.008 41.6858 318.491 41.6893 317.974 41.6928C318.594 41.1715 319.214 40.6443 319.821 40.1186L320.386 40.1686L320.369 40.028L319.967 39.9939L320.327 39.6825L320.306 39.5126C320.129 39.665 319.952 39.8233 319.774 39.9757C319.264 39.9309 318.747 39.8869 318.225 39.8436C318.865 39.2425 319.505 38.6415 320.126 38.0367L320.105 37.861L320.084 37.8815C319.573 37.7891 319.051 37.6982 318.529 37.6073C318.988 37.1294 319.446 36.6515 319.9 36.1801L319.878 35.9986C319.377 36.5232 318.871 37.0544 318.359 37.5805C317.843 37.4947 317.327 37.4031 316.799 37.3187C317.466 36.5897 318.119 35.8563 318.768 35.1294C319.116 35.2117 319.46 35.3006 319.798 35.3902L319.78 35.2438C319.48 35.1674 319.173 35.0918 318.867 35.0163C319.128 34.7229 319.384 34.4302 319.646 34.1427L319.623 33.9553C319.32 34.2953 319.017 34.6413 318.714 34.9814C318.199 34.8539 317.678 34.7272 317.153 34.607C317.828 33.8055 318.497 33.0106 319.161 32.2106L319.426 32.2912L319.408 32.1389L319.253 32.0924L319.383 31.9398L319.36 31.7465L319.106 32.0509C318.587 31.8942 318.068 31.7315 317.533 31.5828C318.059 30.9243 318.578 30.2607 319.093 29.6036L319.069 29.4045C318.513 30.1141 317.947 30.831 317.379 31.5421C301.678 27.1193 280.624 26.1306 253.373 34.1409C253.896 33.7978 254.407 33.4621 254.926 33.1314C282.708 22.7026 303.631 23.5409 319.002 28.8064L318.982 28.6483C303.713 23.4299 282.984 22.5739 255.522 32.7556C255.985 32.4556 256.449 32.1672 256.907 31.8795C283.671 19.8273 303.73 19.8141 318.54 25.0171L318.52 24.8531C303.861 19.7208 284.082 19.6881 257.774 31.3341C258.044 31.1644 258.331 30.9809 258.602 30.8112C284.402 17.2894 303.719 16.2134 318.054 21.0286L318.032 20.8529C304.122 16.2001 285.551 17.0603 260.93 29.4338C285.381 15.0304 303.774 12.8604 317.557 16.9523L317.534 16.7648Z" fill="#231F20" stroke="#231F20" stroke-width="0.3"/>
</g>
</svg>
