<svg width="310" height="286" viewBox="0 0 310 286" fill="none" xmlns="http://www.w3.org/2000/svg">
<path d="M1.33072 172.516C1.264 172.128 1.19471 171.725 1.14425 171.334C-0.278237 161.805 -0.428784 152.15 0.999686 142.616C1.46415 139.531 2.07917 136.455 2.8644 133.401C5.34241 123.897 10.0256 114.682 16.5777 106.892C20.4851 102.231 25.0767 98.0821 30.2602 94.673C46.165 84.1955 63.2066 87.761 81.58 85.1894C94.6261 83.3534 107.629 80.6823 119.903 76.0953C132.179 71.5091 143.541 64.9897 152.984 56.3625C163.829 46.4428 167.824 34.1901 176.408 23.2701C179.129 19.809 183.467 16.1108 189.67 13.0423C192.772 11.2244 196.107 9.6949 199.626 8.56594C203.16 7.42038 206.894 6.67379 210.845 6.41624C229.283 5.18299 247.962 12.78 262.071 23.7884C277.14 35.5592 288.766 49.9624 296.779 65.8145C301.919 75.9475 305.566 86.6518 307.721 97.6515C312.199 120.621 310.117 144.782 301.121 167.292C275.177 232.22 203.25 287.228 125.795 282.582C125.074 282.535 124.369 282.485 123.645 282.423C123.212 282.41 122.758 282.369 122.32 282.326C120.033 282.141 117.734 281.881 115.46 281.571C109.498 280.745 103.619 279.525 97.897 277.868C93.3944 276.553 88.9952 274.977 84.7175 273.14C79.7743 271.001 74.9731 268.719 70.3737 266.269C66.729 264.354 63.198 262.329 59.7954 260.18C52.0303 255.316 44.8914 249.855 38.4213 243.653C35.289 240.667 32.3088 237.506 29.5263 234.147C25.7978 229.718 22.3763 224.952 19.2721 219.818C13.258 209.905 8.31996 199.207 4.95663 188.124C3.39644 182.993 2.16641 177.768 1.33072 172.516Z" fill="#E91B41" fill-opacity="0.07"/>
<path fill-rule="evenodd" clip-rule="evenodd" d="M86.5338 245.915L86.0322 248.79L92.2499 246.493L89.997 244.645C95.8672 241.256 98.171 232.612 95.0944 224.317C91.7475 215.291 83.2771 210.092 76.1841 212.698C69.0911 215.317 66.0532 224.781 69.4003 233.808C72.4769 242.088 79.8656 247.162 86.5338 245.915Z" fill="white"/>
<path fill-rule="evenodd" clip-rule="evenodd" d="M85.9304 246.519L85.5442 248.716C85.5054 248.882 85.57 249.062 85.7116 249.177C85.8532 249.293 86.0336 249.331 86.2007 249.266L92.4313 246.969C92.5986 246.904 92.7144 246.762 92.753 246.584C92.7788 246.404 92.7147 246.223 92.5731 246.108L90.8476 244.696C96.4602 240.972 98.6229 232.395 95.572 224.151C92.1093 214.829 83.3169 209.539 76.0049 212.235C68.6932 214.932 65.475 224.666 68.938 233.988C71.9889 242.23 79.2363 247.327 85.9304 246.519ZM87.0246 246.004C87.0632 245.85 87.0116 245.684 86.8958 245.569C86.7798 245.453 86.6127 245.401 86.4453 245.427C79.9702 246.635 72.8512 241.664 69.8646 233.639C66.6207 224.897 69.4917 215.702 76.3529 213.174C83.2272 210.631 91.3886 215.753 94.6328 224.497C97.6064 232.535 95.4437 240.921 89.7408 244.222C89.5993 244.299 89.5088 244.438 89.4961 244.607C89.4833 244.773 89.5479 244.927 89.6767 245.03L91.2726 246.327L86.6771 248.035L87.0246 246.004Z" fill="#080D18"/>
<path fill-rule="evenodd" clip-rule="evenodd" d="M224.639 212.055L225.061 214.482L219.815 212.541L221.716 210.982C216.762 208.122 214.818 200.827 217.413 193.827C220.237 186.21 227.386 181.82 233.372 184.021C239.358 186.232 241.922 194.217 239.098 201.835C236.5 208.824 230.266 213.106 224.639 212.055Z" fill="white"/>
<path fill-rule="evenodd" clip-rule="evenodd" d="M225.246 212.648C230.895 213.279 236.99 208.965 239.565 202.008C242.498 194.098 239.761 185.851 233.545 183.554C227.342 181.268 219.877 185.753 216.945 193.665C214.359 200.61 216.175 207.839 220.866 211.034L219.487 212.162C219.357 212.271 219.291 212.454 219.313 212.629C219.347 212.802 219.465 212.954 219.639 213.019L224.887 214.958C225.061 215.011 225.246 214.98 225.386 214.871C225.516 214.751 225.581 214.578 225.56 214.395L225.246 212.648ZM224.725 211.566C224.561 211.535 224.397 211.588 224.279 211.708C224.171 211.816 224.115 211.989 224.137 212.141L224.419 213.712L220.801 212.379L222.041 211.371C222.159 211.263 222.224 211.099 222.215 210.938C222.202 210.774 222.106 210.635 221.964 210.548C217.183 207.796 215.382 200.74 217.88 193.999C220.596 186.664 227.441 182.361 233.198 184.497C238.967 186.621 241.345 194.324 238.63 201.662C236.131 208.402 230.157 212.574 224.725 211.566Z" fill="#E91B41"/>
<path fill-rule="evenodd" clip-rule="evenodd" d="M148.468 159.178C148.468 159.178 139.682 159.154 130.418 164.21L143.314 184.402C143.314 184.402 152.159 182.953 155.468 166.135C155.526 165.813 155.634 165.202 155.634 165.202L148.468 159.178Z" fill="#080D18"/>
<path fill-rule="evenodd" clip-rule="evenodd" d="M176.154 160.252C176.154 160.252 184.938 160.228 194.201 165.285L181.305 185.476C181.305 185.476 172.461 184.03 169.154 167.209C169.106 166.947 169.01 166.432 169.01 166.432L176.154 160.252Z" fill="#080D18"/>
<path fill-rule="evenodd" clip-rule="evenodd" d="M152.997 164.125L151.607 173.832L160.104 179.115L171.249 176.594L173.934 163.538L152.997 164.125Z" fill="white"/>
<path fill-rule="evenodd" clip-rule="evenodd" d="M152.973 163.635C152.734 163.635 152.529 163.813 152.493 164.054L151.104 173.761C151.08 173.951 151.164 174.143 151.33 174.252L159.839 179.546C159.948 179.619 160.093 179.643 160.211 179.607L171.37 177.083C171.561 177.035 171.706 176.893 171.742 176.701L174.426 163.647C174.45 163.491 174.414 163.337 174.318 163.229C174.221 163.108 174.067 163.036 173.922 163.048L152.973 163.635ZM153.429 164.614L173.312 164.054L170.83 176.188L160.201 178.589L152.146 173.58L153.429 164.614Z" fill="#080D18"/>
<path fill-rule="evenodd" clip-rule="evenodd" d="M144.597 144.088C144.597 144.088 139.239 143.335 137.717 147.948C136.255 152.336 140.305 155.863 144.597 155.625C144.597 155.625 148.528 168.14 160.824 168.787C175.218 169.54 181.966 158.242 181.966 158.242C181.966 158.242 189.805 158.649 190.75 152.827C191.746 146.754 184.219 145.845 184.219 145.845L183.476 140.394L174.632 129.539L151.775 133.389L146.083 138.457L144.597 144.088Z" fill="white"/>
<path fill-rule="evenodd" clip-rule="evenodd" d="M144.213 143.562C142.822 143.49 138.616 143.646 137.237 147.795C135.715 152.409 139.754 156.174 144.235 156.138C145.002 158.231 149.425 168.691 160.788 169.287C174.224 169.992 181.127 160.417 182.229 158.743C182.875 158.743 184.47 158.697 186.148 158.194C188.389 157.514 190.738 156.041 191.242 152.909C191.792 149.599 190.019 147.698 188.102 146.622C186.746 145.869 185.333 145.534 184.662 145.415L183.965 140.322C183.956 140.239 183.92 140.143 183.859 140.071L175.015 129.228C174.894 129.085 174.714 129.025 174.547 129.049L151.702 132.898C151.608 132.91 151.524 132.958 151.451 133.018L145.747 138.086C145.675 138.158 145.627 138.242 145.591 138.338L144.213 143.562ZM144.525 144.59C144.775 144.626 145.002 144.458 145.074 144.219L146.526 138.732L152.004 133.855C152.004 133.855 171.79 130.519 174.427 130.077L182.996 140.597L183.727 145.917C183.751 146.144 183.932 146.323 184.158 146.347C184.158 146.347 185.946 146.563 187.61 147.494C189.216 148.391 190.714 149.981 190.258 152.743C189.826 155.433 187.779 156.664 185.861 157.237C183.871 157.836 181.99 157.74 181.99 157.74C181.797 157.74 181.628 157.824 181.534 157.99C181.534 157.99 174.931 169.025 160.848 168.296C148.888 167.663 145.062 155.481 145.062 155.481C145.005 155.264 144.787 155.122 144.561 155.134C140.617 155.349 136.853 152.144 138.184 148.105C139.586 143.861 144.525 144.59 144.525 144.59Z" fill="#080D18"/>
<path fill-rule="evenodd" clip-rule="evenodd" d="M148.485 137.885C147.759 137.443 144.363 167.665 143.893 169.183C143.663 169.924 142.332 142.189 145.246 132.183C149.184 118.686 165.293 114.789 177.861 120.121C190.417 125.452 191.201 139.69 188.35 147.305L184.18 145.943C184.18 145.943 174.489 172.098 173.874 171.824C172.495 171.203 181.1 143.432 181.1 143.432L173.088 140.455V135.112L169.982 139.977C169.982 139.977 153.415 136.845 148.485 137.885Z" fill="#080D18"/>
<path fill-rule="evenodd" clip-rule="evenodd" d="M182.612 151.74L187.383 151.297C187.658 151.273 187.863 151.02 187.839 150.746C187.815 150.472 187.562 150.28 187.287 150.304L182.528 150.746C182.253 150.77 182.048 151.02 182.072 151.285C182.096 151.559 182.35 151.764 182.612 151.74Z" fill="#080D18"/>
<path fill-rule="evenodd" clip-rule="evenodd" d="M183.726 151.405L184.888 154.082C184.997 154.335 185.296 154.455 185.546 154.335C185.8 154.227 185.906 153.94 185.8 153.688L184.637 151.01C184.529 150.76 184.242 150.64 183.988 150.76C183.738 150.868 183.617 151.154 183.726 151.405Z" fill="#080D18"/>
<path fill-rule="evenodd" clip-rule="evenodd" d="M140.041 148.991L143.192 150.377C143.443 150.497 143.733 150.377 143.851 150.126C143.959 149.874 143.841 149.576 143.588 149.467L140.448 148.07C140.197 147.962 139.897 148.082 139.789 148.332C139.669 148.585 139.789 148.871 140.041 148.991Z" fill="#080D18"/>
<path fill-rule="evenodd" clip-rule="evenodd" d="M161.602 152.265L159.96 155.542C159.839 155.792 159.936 156.09 160.189 156.211C160.428 156.331 160.739 156.235 160.859 155.985L162.502 152.708C162.62 152.47 162.526 152.169 162.273 152.051C162.034 151.919 161.735 152.027 161.602 152.265Z" fill="#080D18"/>
<path fill-rule="evenodd" clip-rule="evenodd" d="M168.002 151.765C168.002 151.765 169.705 149.708 173.145 150.735C173.419 150.808 173.697 150.663 173.769 150.401C173.854 150.139 173.697 149.85 173.434 149.781C169.261 148.537 167.223 151.142 167.223 151.142C167.045 151.358 167.081 151.669 167.296 151.846C167.513 152.015 167.824 151.979 168.002 151.765Z" fill="#080D18"/>
<path fill-rule="evenodd" clip-rule="evenodd" d="M157.826 149.774C157.826 149.774 156.699 146.666 152.346 146.557C152.073 146.544 151.837 146.769 151.835 147.046C151.82 147.317 152.04 147.539 152.322 147.556C155.913 147.642 156.89 150.125 156.89 150.125C156.994 150.385 157.281 150.515 157.536 150.423C157.797 150.317 157.929 150.033 157.826 149.774Z" fill="#080D18"/>
<path fill-rule="evenodd" clip-rule="evenodd" d="M168.973 143.827C168.973 143.827 172.868 141.795 175.803 145.501C175.972 145.716 176.295 145.752 176.512 145.572C176.727 145.405 176.763 145.094 176.594 144.879C173.119 140.504 168.505 142.942 168.505 142.942C168.266 143.074 168.169 143.373 168.302 143.624C168.432 143.863 168.731 143.958 168.973 143.827Z" fill="#080D18"/>
<path fill-rule="evenodd" clip-rule="evenodd" d="M160.381 143.095C160.381 143.095 157.342 138.858 152.275 141.226C152.029 141.344 151.922 141.638 152.041 141.884C152.151 142.141 152.458 142.253 152.704 142.135C156.99 140.125 159.568 143.678 159.568 143.678C159.722 143.902 160.033 143.95 160.258 143.795C160.489 143.629 160.538 143.319 160.381 143.095Z" fill="#080D18"/>
<path fill-rule="evenodd" clip-rule="evenodd" d="M146.945 170.689C145.387 172.122 142.953 172.038 141.504 170.496C140.028 168.942 140.1 166.505 141.658 165.033C143.132 163.659 145.326 163.575 146.429 165.261C146.74 165.752 146.643 166.361 146.392 166.839C146.19 167.198 145.9 167.532 145.517 167.532C145.278 167.544 145.037 167.388 144.798 167.126C144.33 166.623 143.539 166.589 143.038 167.054C142.533 167.52 142.497 168.309 142.965 168.824C143.817 169.719 144.726 170.044 145.553 170.032C146.788 170.008 147.938 169.207 148.585 168.035C149.258 166.791 149.352 165.177 148.515 163.897C146.525 160.861 142.594 160.743 139.945 163.229C137.392 165.632 137.272 169.649 139.681 172.207C142.09 174.752 146.13 174.872 148.681 172.469C148.693 172.457 148.705 172.445 148.717 172.445L158.63 163.132C159.132 162.656 159.156 161.867 158.678 161.364C158.21 160.873 157.419 160.849 156.915 161.316L146.969 170.665C146.957 170.665 146.954 170.677 146.945 170.689Z" fill="white"/>
<path fill-rule="evenodd" clip-rule="evenodd" d="M149.222 167.866C149.796 166.54 149.784 164.938 148.932 163.622C146.764 160.324 142.485 160.155 139.609 162.857C136.852 165.45 136.721 169.79 139.322 172.54C141.911 175.302 146.26 175.434 149.029 172.838C149.041 172.826 149.053 172.804 149.065 172.792L158.966 163.492C159.672 162.833 159.708 161.721 159.048 161.029C158.377 160.324 157.275 160.288 156.58 160.956L149.222 167.866ZM147.28 171.058L147.316 171.022L157.263 161.673C157.562 161.399 158.03 161.411 158.317 161.709C158.606 162.008 158.582 162.486 158.281 162.761L148.37 172.073L148.334 172.109C145.985 174.322 142.259 174.214 140.041 171.859C137.823 169.516 137.931 165.799 140.292 163.586C142.7 161.327 146.284 161.411 148.095 164.173C148.838 165.296 148.742 166.706 148.141 167.793C147.591 168.811 146.607 169.516 145.553 169.528C144.835 169.54 144.056 169.254 143.337 168.477C143.05 168.176 143.074 167.7 143.373 167.423C143.672 167.137 144.152 167.161 144.427 167.459C144.798 167.854 145.158 168.046 145.517 168.034C146.069 168.022 146.537 167.603 146.824 167.077C147.172 166.444 147.268 165.631 146.849 164.986C145.565 163.037 143.026 163.071 141.323 164.673C139.561 166.324 139.477 169.085 141.13 170.844C142.772 172.576 145.517 172.672 147.28 171.058ZM146.561 170.365C146.236 170.461 145.901 170.519 145.565 170.519C144.618 170.543 143.564 170.197 142.606 169.157C141.945 168.453 141.981 167.341 142.688 166.694C143.397 166.037 144.511 166.085 145.17 166.79C145.242 166.862 145.303 166.935 145.375 166.98C145.423 167.004 145.457 167.04 145.505 167.04C145.577 167.04 145.638 166.992 145.686 166.947C145.792 166.85 145.877 166.73 145.949 166.6C146.13 166.275 146.224 165.857 146.009 165.534C145.073 164.113 143.24 164.245 142.006 165.405C140.652 166.67 140.58 168.799 141.863 170.149C143.108 171.489 145.194 171.573 146.561 170.365Z" fill="#E91B41"/>
<path fill-rule="evenodd" clip-rule="evenodd" d="M157.229 160.696L159.317 162.529C159.527 162.716 159.848 162.688 160.026 162.485C160.207 162.281 160.188 161.964 159.976 161.786L157.885 159.955C157.677 159.768 157.366 159.792 157.178 159.999C156.997 160.201 157.016 160.518 157.229 160.696Z" fill="#080D18"/>
<path fill-rule="evenodd" clip-rule="evenodd" d="M128.044 281.112L126.234 280.549L129.446 201.983L145.038 177.012L147.831 176.629C147.831 176.629 149.281 173.139 150.325 172.398C150.325 172.398 164.178 171.356 171.851 174.166C172.364 174.37 172.712 174.859 172.712 175.422C172.712 176.018 172.712 176.678 172.712 176.678L166.144 281.112H128.044Z" fill="white"/>
<path fill-rule="evenodd" clip-rule="evenodd" d="M127.901 281.589C127.949 281.601 127.997 281.613 128.044 281.613H166.144C166.409 281.613 166.624 281.411 166.648 281.149L173.216 176.712C173.216 176.7 173.216 176.688 173.216 176.679C173.216 176.679 173.216 176.008 173.204 175.423C173.204 174.658 172.736 173.975 172.029 173.701C172.029 173.701 172.029 173.701 172.017 173.701C164.287 170.867 150.289 171.896 150.289 171.896C150.204 171.908 150.11 171.944 150.038 171.99C149.69 172.243 149.283 172.757 148.911 173.378C148.287 174.381 147.725 175.637 147.484 176.176L144.968 176.51C144.823 176.534 144.691 176.619 144.621 176.749L129.027 201.722C128.979 201.794 128.956 201.879 128.956 201.972L125.731 280.526C125.719 280.754 125.863 280.956 126.079 281.029L127.901 281.589ZM128.128 280.61L126.75 280.191L129.938 202.141L145.339 177.465L147.903 177.119C148.084 177.095 148.226 176.989 148.299 176.821C148.299 176.821 148.993 175.146 149.76 173.893C150.014 173.474 150.276 173.104 150.515 172.887C152.04 172.779 164.55 172.026 171.67 174.634C171.993 174.764 172.21 175.077 172.21 175.423C172.21 175.959 172.21 176.558 172.21 176.664C172.125 178.064 166.144 273.126 165.679 280.61H128.128Z" fill="#080D18"/>
<path fill-rule="evenodd" clip-rule="evenodd" d="M171.214 177.609C171.214 177.609 179.028 180.073 183.08 181.35C184.53 181.805 185.608 183.049 185.849 184.555C186.855 190.831 189.433 206.959 189.433 206.959L187.443 281.112H161.771C161.793 267.292 162.297 214.943 168.698 184.555C169.284 181.757 170.027 179.642 171.214 177.609Z" fill="#E91B41"/>
<path fill-rule="evenodd" clip-rule="evenodd" d="M141.876 175.303C141.876 175.303 134.852 177.107 130.753 178.149C128.907 178.625 127.361 179.857 126.498 181.555C123.634 187.163 117.234 199.713 117.234 199.713L117.317 199.858C117.317 199.858 107.49 256.235 102.768 280.3C102.72 280.586 102.72 280.86 102.792 281.113H131.627C134.036 249.54 139.466 206.421 147.027 176.749C147.027 176.749 143.923 176.378 141.876 175.303Z" fill="#E91B41"/>
<path fill-rule="evenodd" clip-rule="evenodd" d="M150.527 177.634C150.527 177.634 161.171 177.083 168.409 178.458C168.686 178.507 168.949 178.326 168.997 178.064C169.045 177.787 168.865 177.525 168.602 177.477C161.255 176.092 150.479 176.64 150.479 176.64C150.204 176.652 149.989 176.893 150.014 177.167C150.026 177.441 150.252 177.646 150.527 177.634Z" fill="#080D18"/>
<path fill-rule="evenodd" clip-rule="evenodd" d="M182.469 92.636L186.543 99.7966C186.675 100.036 186.986 100.119 187.225 99.976C187.466 99.8444 187.548 99.5459 187.406 99.3068L183.33 92.1457C183.2 91.9066 182.898 91.8233 182.66 91.9547C182.421 92.0863 182.336 92.3971 182.469 92.636Z" fill="#E91B41"/>
<path fill-rule="evenodd" clip-rule="evenodd" d="M218.159 62.2673C218.221 62.3823 218.289 62.4989 218.361 62.6175C219.606 64.6217 222.413 67.0818 227.84 69.7259C228.088 69.8462 228.387 69.7435 228.508 69.4969C228.628 69.2489 228.527 68.9505 228.279 68.8303C223.626 66.5653 220.971 64.4733 219.62 62.6861C220.44 62.7751 221.311 62.6281 222.225 62.1694C223.038 61.7601 223.513 60.9092 223.59 59.9773C223.703 58.62 222.975 57.1244 221.378 56.7296C219.951 56.3769 218.151 57.2251 217.635 58.9289C217.476 59.4516 217.435 60.0605 217.577 60.7418C217.184 60.4387 216.813 60.0793 216.465 59.6883C214.177 57.1152 212.852 53.1258 212.852 53.1258C212.766 52.8653 212.481 52.7243 212.221 52.8104C211.958 52.8966 211.818 53.1795 211.905 53.4402C211.905 53.4402 213.306 57.6389 215.718 60.3502C216.446 61.1676 217.264 61.8504 218.159 62.2673ZM218.877 61.4823C219.76 61.808 220.73 61.8046 221.774 61.2795C222.283 61.025 222.546 60.475 222.594 59.8945C222.671 58.9842 222.21 57.9608 221.14 57.6969C220.163 57.4554 218.945 58.0532 218.59 59.2178C218.402 59.8348 218.462 60.5987 218.877 61.4823Z" fill="#080D18"/>
<path fill-rule="evenodd" clip-rule="evenodd" d="M148.777 98.8355C148.994 98.3587 149.102 97.8049 149.071 97.1649C149.035 96.4594 148.581 95.8536 147.942 95.506C147.021 95.0037 145.738 95.0539 144.963 96.0511C144.269 96.9427 144.305 98.4676 145.345 99.3597C145.586 99.5656 145.882 99.7407 146.239 99.8615C146.02 99.9596 145.791 100.046 145.554 100.12C143.198 100.872 140.19 100.58 140.19 100.58C139.915 100.553 139.671 100.754 139.645 101.028C139.619 101.302 139.82 101.545 140.094 101.571C140.094 101.571 143.326 101.877 145.858 101.069C146.62 100.827 147.315 100.487 147.865 100.021C147.947 100.014 148.031 100.004 148.118 99.9919C149.828 99.7552 152.312 98.6177 155.689 95.7797C155.901 95.6024 155.928 95.2878 155.749 95.0778C155.573 94.8673 155.257 94.8403 155.045 95.0174C152.375 97.2631 150.318 98.4024 148.777 98.8355ZM147.433 99.0462C147.86 98.5879 148.113 97.993 148.072 97.2147C148.055 96.8517 147.793 96.5592 147.465 96.3804C146.936 96.093 146.196 96.0903 145.752 96.6612C145.345 97.1856 145.386 98.0798 145.996 98.6043C146.321 98.8831 146.796 99.0508 147.433 99.0462Z" fill="#080D18"/>
<path fill-rule="evenodd" clip-rule="evenodd" d="M243.627 50.7607L244.071 62.6316C244.083 62.9066 244.312 63.1219 244.587 63.1099C244.862 63.0978 245.079 62.8707 245.079 62.5958L244.636 50.7248C244.624 50.4498 244.385 50.2348 244.107 50.2466C243.832 50.2586 243.615 50.4859 243.627 50.7607Z" fill="#080D18"/>
<path fill-rule="evenodd" clip-rule="evenodd" d="M180.85 61.8529L181.641 64.9372C181.641 64.9372 186.472 67.4714 190.798 65.6423L190.306 61.0039C190.306 61.0039 185.321 63.0483 180.85 61.8529Z" fill="#E91B41"/>
<path fill-rule="evenodd" clip-rule="evenodd" d="M116.981 86.0013C116.826 86.0254 116.694 86.1089 116.61 86.2284C116.538 86.3598 116.514 86.5154 116.562 86.6588L118.563 92.7435C118.635 92.9947 118.899 93.1381 119.151 93.0784C125.06 91.7036 126.593 85.3318 126.593 85.3318C126.629 85.224 126.617 85.1047 126.569 85.009L125.215 82.1637C125.143 82.0204 125 81.9126 124.844 81.8888C124.688 81.8649 124.52 81.9126 124.412 82.0321C120.864 85.5466 116.981 86.0013 116.981 86.0013ZM117.689 86.8859C118.911 86.6227 121.812 85.7742 124.604 83.216L125.587 85.2719C125.323 86.1926 123.813 90.6992 119.367 91.9903L117.689 86.8859Z" fill="#E91B41"/>
<path fill-rule="evenodd" clip-rule="evenodd" d="M201.058 118.649C200.962 118.804 200.962 118.995 201.046 119.151C203.815 124.04 206.642 123.478 206.642 123.478C206.69 123.478 206.738 123.455 206.786 123.443L208.332 122.666C208.501 122.582 208.607 122.402 208.607 122.223C208.607 122.032 208.501 121.853 208.332 121.769C204.724 119.976 204.09 115.469 204.09 115.469C204.054 115.254 203.897 115.086 203.694 115.05C203.489 115.002 203.275 115.098 203.166 115.278L201.058 118.649ZM202.064 118.924L203.383 116.808C203.827 118.254 204.845 120.693 207.061 122.188L206.427 122.51C206.068 122.51 204.126 122.403 202.064 118.924Z" fill="#080D18"/>
<path fill-rule="evenodd" clip-rule="evenodd" d="M150.563 64.2578C149.473 64.2578 148.598 65.1426 148.598 66.2185C148.598 67.3063 149.473 68.1789 150.563 68.1789C151.641 68.1789 152.529 67.3063 152.529 66.2185C152.529 65.1426 151.641 64.2578 150.563 64.2578ZM150.563 65.2622C151.091 65.2622 151.523 65.6926 151.523 66.2185C151.523 66.7564 151.091 67.1865 150.563 67.1865C150.025 67.1865 149.594 66.7564 149.594 66.2185C149.594 65.6926 150.025 65.2622 150.563 65.2622Z" fill="#080D18"/>
<path fill-rule="evenodd" clip-rule="evenodd" d="M236.723 39.5342C235.633 39.5342 234.758 40.4192 234.758 41.4951C234.758 42.5829 235.633 43.4555 236.723 43.4555C237.802 43.4555 238.689 42.5829 238.689 41.4951C238.689 40.4192 237.802 39.5342 236.723 39.5342ZM236.723 40.5388C237.252 40.5388 237.683 40.9692 237.683 41.4951C237.683 42.033 237.252 42.4631 236.723 42.4631C236.183 42.4631 235.754 42.033 235.754 41.4951C235.754 40.9692 236.183 40.5388 236.723 40.5388Z" fill="#080D18"/>
<path fill-rule="evenodd" clip-rule="evenodd" d="M124.784 127.305C123.765 127.305 122.926 128.142 122.926 129.158C122.926 130.186 123.765 131.011 124.784 131.011C125.814 131.011 126.653 130.186 126.653 129.158C126.653 128.142 125.814 127.305 124.784 127.305ZM124.784 128.297C125.263 128.297 125.646 128.691 125.646 129.158C125.646 129.636 125.263 130.018 124.784 130.018C124.316 130.018 123.921 129.636 123.921 129.158C123.921 128.691 124.316 128.297 124.784 128.297Z" fill="#080D18"/>
<path fill-rule="evenodd" clip-rule="evenodd" d="M225.972 43.8915C225.972 43.8915 226.975 44.0678 227.231 44.8653C227.352 45.219 227.301 45.6866 226.999 46.303C226.254 47.8241 226.348 48.8499 226.785 49.5242C227.226 50.2067 228.078 50.576 229.006 50.7165C229.768 50.8276 230.617 51.1887 230.854 51.8919C231.013 52.3509 230.866 52.9336 230.325 53.6553C229.532 54.7181 229.382 55.709 229.595 56.5063C229.923 57.7322 231.138 58.5735 232.552 58.6139C232.827 58.6248 233.053 58.4075 233.065 58.1335C233.077 57.8595 232.858 57.6281 232.583 57.6213C231.63 57.5898 230.779 57.0777 230.562 56.253C230.407 55.6891 230.569 55.0025 231.131 54.2509C231.937 53.1636 232.038 52.2626 231.797 51.5703C231.445 50.5365 230.272 49.8957 229.158 49.7299C228.521 49.637 227.923 49.4448 227.624 48.9798C227.32 48.5107 227.376 47.802 227.897 46.7406C228.353 45.8072 228.357 45.0898 228.181 44.556C227.757 43.26 226.172 42.9133 226.172 42.9133C225.9 42.8619 225.637 43.0351 225.581 43.305C225.523 43.5747 225.7 43.84 225.972 43.8915Z" fill="#E91B41"/>
<path fill-rule="evenodd" clip-rule="evenodd" d="M50.9985 281.602H235.28C235.555 281.602 235.784 281.388 235.784 281.114C235.784 280.84 235.555 280.611 235.28 280.611H50.9985C50.7243 280.611 50.4961 280.84 50.4961 281.114C50.4961 281.388 50.7243 281.602 50.9985 281.602Z" fill="#080D18"/>
<path fill-rule="evenodd" clip-rule="evenodd" d="M243.232 99.558C243.232 99.558 242.226 97.7889 241.088 98.4942C239.962 99.1876 242.323 101.65 242.849 103.36C243.377 105.069 245.067 108.931 244.383 112.338L247.68 118.087L250.627 121.853L256.475 115.003L243.232 99.558Z" fill="white"/>
<path fill-rule="evenodd" clip-rule="evenodd" d="M243.639 99.2598C243.533 99.0924 243.147 98.5066 242.609 98.1479C242.093 97.8131 241.471 97.6699 240.825 98.0642C240.296 98.3991 240.164 98.949 240.393 99.6782C240.571 100.24 240.991 100.933 241.423 101.651C241.806 102.284 242.202 102.942 242.368 103.504C242.896 105.165 244.551 108.919 243.893 112.242C243.868 112.362 243.893 112.481 243.95 112.589L247.247 118.339C247.259 118.363 247.272 118.375 247.284 118.399L250.231 122.165C250.327 122.284 250.46 122.356 250.614 122.356C250.759 122.356 250.904 122.296 250.998 122.177L256.859 115.327C257.015 115.136 257.015 114.86 256.859 114.681L243.639 99.2598ZM242.8 99.8098C242.812 99.8338 242.836 99.8574 242.848 99.8812C242.848 99.8812 253.923 112.78 255.817 115.004L250.638 121.065L248.087 117.813L244.91 112.254C245.508 108.787 243.868 104.926 243.328 103.205C243.005 102.165 242.009 100.838 241.519 99.7978C241.411 99.5707 241.326 99.3674 241.302 99.1761C241.278 99.0686 241.266 98.9731 241.35 98.9132C241.601 98.7578 241.855 98.8413 242.057 98.9846C242.501 99.2716 242.8 99.8098 242.8 99.8098Z" fill="#080D18"/>
<path fill-rule="evenodd" clip-rule="evenodd" d="M171.227 177.622C173.108 174.394 176.13 171.406 181.402 166.265C194.851 153.199 204.03 146.313 204.03 146.313C204.03 146.313 225.387 121.687 229.439 117.909C233.488 114.144 236.378 115.901 236.378 115.901C236.378 115.901 239.793 113.116 241.592 111.645C242.263 111.107 243.208 111.059 243.917 111.549C246.085 113.08 250.46 116.81 251.719 122.703C251.85 123.277 251.744 123.886 251.43 124.388C250.292 126.23 247.451 130.809 247.451 130.809C247.451 130.809 247.752 133.964 244.851 138.375C241.952 142.799 221.456 169.614 221.456 169.614L189.443 206.875V206.96L171.227 177.622Z" fill="#E91B41"/>
<path fill-rule="evenodd" clip-rule="evenodd" d="M248.212 71.7734L229.648 82.4651C229.648 82.4651 252.206 110.804 256.314 115.954C256.68 116.414 257.336 116.537 257.838 116.248C258.907 115.633 260.67 114.617 261.719 114.014C262.208 113.731 262.428 113.147 262.245 112.61C260.129 106.47 248.212 71.7734 248.212 71.7734Z" fill="white"/>
<path fill-rule="evenodd" clip-rule="evenodd" d="M248.679 71.621C248.635 71.4738 248.517 71.3696 248.382 71.3056C248.24 71.2584 248.092 71.2726 247.962 71.3465L229.398 82.0382C229.268 82.112 229.184 82.2328 229.152 82.3786C229.123 82.5244 229.16 82.661 229.256 82.7774C229.256 82.7774 251.814 111.116 255.921 116.266C256.445 116.922 257.368 117.09 258.085 116.678L261.963 114.444C262.66 114.044 262.971 113.206 262.713 112.44C260.605 106.311 248.679 71.621 248.679 71.621ZM247.926 72.5113L261.765 112.772C261.874 113.081 261.746 113.427 261.469 113.587L257.588 115.821C257.298 115.987 256.92 115.921 256.703 115.645C252.909 110.887 233.298 86.2638 230.397 82.6057L247.926 72.5113Z" fill="#080D18"/>
<path d="M240.378 79.6296C245.504 76.6778 248.996 73.14 248.178 71.7278C247.361 70.3159 242.544 71.5642 237.419 74.516C232.292 77.4678 228.799 81.0054 229.617 82.4176C230.434 83.8295 235.253 82.5814 240.378 79.6296Z" fill="white"/>
<path fill-rule="evenodd" clip-rule="evenodd" d="M237.164 74.0776C233.493 76.192 230.652 78.6244 229.55 80.3813C228.964 81.3162 228.867 82.1245 229.183 82.6682C229.497 83.2119 230.242 83.5229 231.352 83.4943C233.423 83.4113 236.954 82.1726 240.627 80.0582C244.308 77.9378 247.149 75.5059 248.246 73.7656C248.825 72.8202 248.929 72.0222 248.613 71.4783C248.3 70.9346 247.549 70.6134 246.445 70.6526C244.378 70.7193 240.847 71.9572 237.164 74.0776ZM237.663 74.941C240.676 73.2068 243.582 72.0737 245.601 71.7359C246.216 71.6368 246.742 71.618 247.149 71.6816C247.439 71.7287 247.648 71.8069 247.747 71.9775C247.846 72.148 247.81 72.3686 247.699 72.6309C247.557 73.0256 247.272 73.4596 246.877 73.9427C245.581 75.5278 243.138 77.4608 240.126 79.1951C237.116 80.9293 234.214 82.073 232.2 82.3944C231.573 82.4993 231.055 82.5286 230.64 82.4545C230.367 82.4122 230.148 82.3398 230.049 82.1692C229.95 81.9987 229.998 81.7723 230.09 81.5055C230.24 81.1213 230.519 80.6765 230.925 80.1876C232.215 78.6189 234.653 76.6753 237.663 74.941Z" fill="#080D18"/>
<path fill-rule="evenodd" clip-rule="evenodd" d="M252.138 87.7953C251.49 90.6526 249.847 95.3865 245.822 100.264C245.641 100.479 245.677 100.79 245.882 100.957C246.097 101.137 246.408 101.113 246.589 100.898C250.759 95.8648 252.438 90.9754 253.108 88.0106C253.168 87.7477 253 87.4847 252.737 87.4251C252.474 87.3534 252.196 87.5324 252.138 87.7953Z" fill="#E91B41"/>
<path fill-rule="evenodd" clip-rule="evenodd" d="M255.408 96.8799C254.653 99.4502 253.216 102.893 250.519 106.492C250.351 106.719 250.399 107.03 250.616 107.185C250.843 107.353 251.154 107.305 251.311 107.089C254.103 103.372 255.589 99.8211 256.368 97.1672C256.453 96.9042 256.296 96.6295 256.033 96.5458C255.768 96.4741 255.493 96.617 255.408 96.8799Z" fill="#E91B41"/>
<path fill-rule="evenodd" clip-rule="evenodd" d="M248.652 77.5971C248.16 80.5141 246.363 87.2084 239.938 93.6636C239.747 93.8549 239.747 94.178 239.938 94.3692C240.143 94.5607 240.454 94.5607 240.645 94.3692C247.284 87.6987 249.117 80.7647 249.633 77.7643C249.682 77.4894 249.491 77.2262 249.226 77.1903C248.951 77.1425 248.7 77.3222 248.652 77.5971Z" fill="#E91B41"/>
<path fill-rule="evenodd" clip-rule="evenodd" d="M255.47 92.9238C255.47 92.9238 257.831 93.7244 257.209 96.223C257.209 96.223 259.28 97.7773 258.501 99.7976C258.501 99.7976 260.313 100.527 259.833 102.631C259.833 102.631 261.318 103.228 260.708 104.878C260.084 106.54 258.299 107.986 257.472 107.819C256.644 107.652 256.261 106.492 257.819 104.83C257.819 104.83 256.128 106.229 255.195 105.368C254.02 104.28 255.663 102.667 255.663 102.667C255.663 102.667 254.199 103.42 253.601 102.535C252.761 101.292 254.534 99.4269 254.534 99.4269C254.534 99.4269 253.072 100.455 252.342 100.192C250.279 99.4385 252.988 95.0875 255.47 92.9238Z" fill="white"/>
<path fill-rule="evenodd" clip-rule="evenodd" d="M253.133 100.658L253.109 100.718C252.822 101.399 252.762 102.164 253.194 102.81C253.517 103.288 254.009 103.467 254.513 103.467C254.465 103.575 254.416 103.683 254.38 103.802C254.175 104.436 254.211 105.141 254.848 105.727C255.292 106.145 255.854 106.217 256.406 106.097C256.165 106.767 256.249 107.305 256.452 107.663C256.657 108.01 256.98 108.225 257.364 108.309C257.699 108.369 258.167 108.273 258.659 108.01C259.595 107.484 260.697 106.337 261.174 105.057C261.404 104.424 261.391 103.921 261.271 103.515C261.092 102.941 260.685 102.571 260.383 102.368C260.588 100.778 259.665 99.9171 259.091 99.5584C259.341 98.5423 259.006 97.6454 258.562 96.9762C258.287 96.5576 257.976 96.2349 257.759 96.0319C258.227 93.3301 255.627 92.457 255.627 92.457C255.458 92.3974 255.277 92.4332 255.135 92.5528C253.852 93.6765 252.511 95.3624 251.756 96.8686C251.361 97.6697 251.119 98.4345 251.119 99.0321C251.107 99.8091 251.443 100.383 252.173 100.658C252.439 100.754 252.774 100.754 253.133 100.658ZM255.567 93.5093C256.071 93.7722 257.113 94.5252 256.729 96.1034C256.681 96.2946 256.754 96.4979 256.908 96.6175C256.908 96.6175 257.364 96.9644 257.735 97.5261C258.07 98.0522 258.36 98.7811 258.034 99.6061C257.928 99.869 258.058 100.156 258.312 100.252C258.312 100.252 259.725 100.849 259.341 102.523C259.293 102.762 259.414 103.001 259.64 103.097C259.64 103.097 260.157 103.288 260.313 103.814C260.383 104.041 260.374 104.34 260.241 104.71C259.906 105.607 259.175 106.444 258.49 106.922C258.287 107.077 258.07 107.197 257.892 107.269C257.759 107.317 257.651 107.341 257.569 107.329C257.376 107.293 257.255 107.125 257.255 106.886C257.243 106.444 257.533 105.87 258.179 105.165C258.36 104.974 258.36 104.675 258.179 104.484C258 104.292 257.699 104.28 257.496 104.448C257.496 104.448 256.968 104.89 256.37 105.081C256.081 105.165 255.77 105.213 255.531 104.998C255.147 104.639 255.268 104.185 255.434 103.826C255.663 103.372 256.023 103.025 256.023 103.025C256.189 102.846 256.213 102.571 256.071 102.368C255.926 102.177 255.663 102.104 255.434 102.224C255.434 102.224 255.015 102.439 254.571 102.463C254.368 102.475 254.151 102.451 254.021 102.248C253.78 101.902 253.876 101.471 254.033 101.088C254.32 100.371 254.894 99.7733 254.894 99.7733C255.075 99.5938 255.075 99.2952 254.918 99.104C254.752 98.9127 254.465 98.8769 254.248 99.0205C254.248 99.0205 253.768 99.3549 253.242 99.57C253.085 99.6419 252.919 99.6898 252.774 99.7256C252.678 99.7377 252.593 99.7494 252.523 99.7256C252.234 99.6181 252.128 99.3908 252.116 99.092C252.103 98.805 252.188 98.4583 252.306 98.0996C252.834 96.6292 254.211 94.7643 255.567 93.5093Z" fill="#080D18"/>
<path fill-rule="evenodd" clip-rule="evenodd" d="M254.934 99.7555L257.645 96.5836C257.821 96.3721 257.794 96.0524 257.58 95.873C257.375 95.7058 257.054 95.7267 256.878 95.9381L254.181 99.1103C254.003 99.3218 254.029 99.6295 254.234 99.8087C254.449 99.9881 254.758 99.967 254.934 99.7555Z" fill="#080D18"/>
<path fill-rule="evenodd" clip-rule="evenodd" d="M255.754 103.305L258.863 100.139C259.058 99.9453 259.058 99.6345 258.853 99.4312C258.663 99.2397 258.34 99.2522 258.144 99.4461L255.047 102.611C254.854 102.805 254.854 103.128 255.045 103.32C255.25 103.511 255.561 103.511 255.754 103.305Z" fill="#080D18"/>
<path fill-rule="evenodd" clip-rule="evenodd" d="M257.902 105.452L260.189 102.902C260.377 102.701 260.358 102.384 260.153 102.192C259.95 102.013 259.634 102.031 259.446 102.232L257.16 104.795C256.971 104.996 256.991 105.313 257.193 105.492C257.398 105.671 257.714 105.653 257.902 105.452Z" fill="#080D18"/>
<path fill-rule="evenodd" clip-rule="evenodd" d="M189.272 205.747L184.207 197.594C184.067 197.363 183.753 197.29 183.526 197.435C183.285 197.579 183.215 197.889 183.367 198.118L188.42 206.273C188.572 206.504 188.874 206.576 189.112 206.432C189.341 206.288 189.423 205.977 189.272 205.747Z" fill="#080D18"/>
<path fill-rule="evenodd" clip-rule="evenodd" d="M237.552 117.849C237.552 117.849 243.401 122.392 245.87 128.321C245.977 128.573 246.266 128.692 246.529 128.596C246.78 128.489 246.9 128.19 246.792 127.939C244.24 121.794 238.165 117.072 238.165 117.072C237.948 116.893 237.636 116.94 237.468 117.156C237.301 117.371 237.337 117.682 237.552 117.849Z" fill="#080D18"/>
<path fill-rule="evenodd" clip-rule="evenodd" d="M71.9785 108.883C71.9785 108.883 72.6736 112.517 78.5942 115.242L83.7958 113.342L81.315 100.407L78.5942 99.0439L71.9785 108.883Z" fill="white"/>
<path fill-rule="evenodd" clip-rule="evenodd" d="M71.5697 108.597C71.4978 108.716 71.4619 108.848 71.486 108.967C71.486 108.967 72.169 112.828 78.3774 115.698C78.4972 115.757 78.641 115.757 78.7606 115.71L83.9743 113.809C84.202 113.725 84.3334 113.486 84.2857 113.247L81.8048 100.312C81.7807 100.157 81.685 100.025 81.5412 99.9535L78.8083 98.6024C78.5807 98.4831 78.3171 98.5546 78.1731 98.7696L71.5697 108.597ZM72.5163 108.967L78.7606 99.6905L80.8698 100.742L83.2312 113.02L78.6171 114.705C73.9188 112.482 72.7561 109.696 72.5163 108.967Z" fill="#080D18"/>
<path fill-rule="evenodd" clip-rule="evenodd" d="M76.5093 50.4007C76.5093 50.4007 74.8194 61.375 78.1513 74.5847C81.4232 87.5674 80.848 100.071 71.7515 114.19C62.4271 128.655 66.4659 142.271 66.4659 142.271C66.5496 142.534 66.8253 142.678 67.0889 142.606C67.3525 142.522 67.5086 142.247 67.4246 141.984C67.4246 141.984 63.5416 128.774 72.5903 114.728C81.8668 100.334 82.4661 87.5794 79.1223 74.3456C75.8384 61.351 77.4922 50.5561 77.4922 50.5561C77.5399 50.2811 77.3482 50.03 77.0725 49.9821C76.8089 49.9462 76.5453 50.1257 76.5093 50.4007Z" fill="#E91B41"/>
<path fill-rule="evenodd" clip-rule="evenodd" d="M62.6542 57.7044C62.6542 57.7044 60.4013 66.1323 69.8097 76.7121C74.3398 81.8048 77.6718 86.1685 78.7024 91.4406C79.7212 96.7124 78.4388 102.881 73.8247 111.596C64.2844 129.599 76.1856 143.813 76.1856 143.813C76.3653 144.028 76.6767 144.052 76.8925 143.873C77.0963 143.705 77.1323 143.383 76.9524 143.179C76.9524 143.179 65.4949 129.456 74.7113 112.062C79.4694 103.072 80.7397 96.6884 79.6852 91.2491C78.6185 85.8216 75.2264 81.3027 70.5643 76.0547C61.5754 65.9651 63.6129 57.9556 63.6129 57.9556C63.6848 57.6806 63.5292 57.4174 63.2656 57.3457C62.9899 57.2741 62.7261 57.4415 62.6542 57.7044Z" fill="#080D18"/>
<path fill-rule="evenodd" clip-rule="evenodd" d="M88.6133 59.2245C88.6133 59.2245 88.2655 59.6783 87.882 61.3519C87.3545 63.6472 86.7315 68.441 86.9115 78.0884C87.0912 87.5325 83.9391 93.8686 80.0799 99.6187C77.4672 103.504 74.5189 107.138 72.0261 111.274C65.7459 121.675 61.0476 128.931 60.0527 139.092C60.0288 139.367 60.2326 139.607 60.5083 139.63C60.784 139.666 61.0237 139.463 61.0476 139.188C62.0183 129.182 66.6925 122.033 72.8767 111.788C75.3696 107.664 78.306 104.054 80.9067 100.169C84.8737 94.2631 88.086 87.7716 87.9064 78.0646C87.7264 68.5606 88.3376 63.8267 88.8528 61.5672C89.1405 60.3239 89.4282 59.8101 89.4282 59.8101L89.0204 60.0254C89.5838 59.595 89.5361 59.284 89.3084 59.1165C89.0928 58.9611 88.7809 59.0092 88.6133 59.2245Z" fill="#080D18"/>
<path fill-rule="evenodd" clip-rule="evenodd" d="M74.7229 93.3184C74.7229 93.3184 71.439 94.227 71.6546 97.1797C71.6546 97.1797 69.0057 99.1522 69.7249 101.364C69.7249 101.364 67.8316 103.24 68.6704 105.583C68.6704 105.583 67.6278 107.389 68.6704 108.847C69.7133 110.306 72.6734 111.812 74.1475 109.553C74.1475 109.553 75.9694 108.154 75.6218 106.385C75.6218 106.385 77.3352 105.404 77.4551 103.647C77.4551 103.647 79.7562 102.499 79.7324 100.061V98.6857L74.7229 93.3184Z" fill="white"/>
<path fill-rule="evenodd" clip-rule="evenodd" d="M75.0938 92.9719C74.9621 92.8403 74.7704 92.7808 74.5907 92.8407C74.5907 92.8407 71.1032 93.8326 71.1509 96.9528C70.8155 97.2398 70.132 97.8614 69.6645 98.6861C69.2331 99.4155 68.9697 100.3 69.1735 101.233C68.6822 101.83 67.5197 103.516 68.1308 105.548C67.8672 106.122 67.2797 107.76 68.2625 109.135C68.8377 109.948 69.9525 110.772 71.115 111.071C72.3494 111.394 73.6438 111.179 74.5307 109.888C74.7224 109.72 75.2858 109.218 75.6932 108.501C75.9927 107.975 76.2086 107.33 76.1488 106.624C76.6642 106.242 77.7189 105.321 77.9227 103.946C78.5698 103.552 80.2477 102.273 80.2359 100.061V98.6861C80.2359 98.5548 80.1876 98.4354 80.1037 98.3397L75.0938 92.9719ZM74.5784 93.8928L79.2287 98.8776V100.073C79.2528 102.201 77.2396 103.205 77.2396 103.205C77.0718 103.289 76.9758 103.444 76.9637 103.611C76.8559 105.118 75.3697 105.955 75.3697 105.955C75.178 106.05 75.082 106.265 75.13 106.48C75.2378 107.054 75.07 107.592 74.8182 108.011C74.4226 108.704 73.8476 109.159 73.8476 109.159C73.7996 109.182 73.7635 109.23 73.7396 109.278C73.1284 110.199 72.2295 110.33 71.3786 110.115C70.4317 109.864 69.5449 109.206 69.0775 108.549C68.2027 107.341 69.1014 105.835 69.1014 105.835C69.1732 105.704 69.1853 105.548 69.1375 105.417C68.4063 103.36 70.0842 101.723 70.0842 101.723C70.2159 101.579 70.2639 101.388 70.2041 101.209C69.9643 100.468 70.1922 99.762 70.528 99.1882C71.0793 98.2319 71.9538 97.5744 71.9538 97.5744C72.0978 97.4787 72.1697 97.3115 72.1577 97.1443C72.0018 95.0641 73.8594 94.1557 74.5784 93.8928Z" fill="#080D18"/>
<path fill-rule="evenodd" clip-rule="evenodd" d="M88.1579 108.583C88.1579 108.583 84.934 99.3539 84.4427 97.2023C83.9871 95.2298 79.2411 93.9264 75.8495 92.3724C75.6098 92.2648 75.322 92.2766 75.0944 92.432C74.8665 92.5756 74.735 92.8388 74.7468 93.1018C74.8069 94.4408 75.6337 96.7 79.7806 98.7802C79.7806 98.7802 78.4743 103.143 79.7806 107.077L82.1777 111.559L88.1579 108.583Z" fill="white"/>
<path fill-rule="evenodd" clip-rule="evenodd" d="M88.3742 109.026C88.6019 108.919 88.7099 108.656 88.626 108.417C88.626 108.417 85.4136 99.2355 84.9224 97.0957C84.7186 96.199 83.7837 95.3744 82.4292 94.657C80.6317 93.7125 78.1031 92.8638 76.0656 91.9313C75.658 91.7401 75.1903 91.7757 74.8189 92.0148C74.4472 92.266 74.2316 92.6843 74.2557 93.1267C74.3156 94.5134 75.0946 96.8688 79.2056 99.0325C78.906 100.228 78.1866 103.886 79.3131 107.233C79.3252 107.257 79.3372 107.281 79.3493 107.305L81.7346 111.8C81.8663 112.039 82.1659 112.134 82.4054 112.015L88.3742 109.026ZM87.5351 108.333L82.3938 110.903L80.2482 106.874C79.0018 103.097 80.2603 98.9247 80.2603 98.9247C80.3321 98.6856 80.2241 98.4347 80.0085 98.3269C76.1372 96.3903 75.3104 94.3344 75.2504 93.0791C75.2386 92.9954 75.2866 92.8996 75.3702 92.8517C75.4542 92.7918 75.5499 92.7921 75.6339 92.8279H75.6462C77.6716 93.7604 80.1763 94.5971 81.9621 95.5416C82.5134 95.8403 83.0047 96.1396 83.3643 96.4622C83.6639 96.7372 83.88 97.0119 83.9518 97.3107C84.3833 99.1997 86.9119 106.516 87.5351 108.333Z" fill="#080D18"/>
<path fill-rule="evenodd" clip-rule="evenodd" d="M74.8427 95.1947C75.4659 96.3663 76.7242 97.7294 79.205 99.0323C78.9055 100.228 78.1862 103.886 79.3128 107.233C79.3968 107.496 79.6845 107.639 79.9481 107.544C80.2117 107.46 80.3436 107.173 80.26 106.922C78.9894 103.133 80.26 98.9246 80.26 98.9246C80.3318 98.6854 80.2238 98.4343 80.0079 98.3267C77.563 97.1075 76.3166 95.8284 75.7293 94.7165C75.5976 94.4776 75.286 94.3819 75.0463 94.5135C74.8068 94.645 74.7108 94.9438 74.8427 95.1947Z" fill="#080D18"/>
<path fill-rule="evenodd" clip-rule="evenodd" d="M71.2705 97.502C71.2705 97.502 75.1415 102.116 77.227 103.742C77.4427 103.91 77.7543 103.874 77.9221 103.659C78.09 103.443 78.0541 103.133 77.8384 102.965C75.8009 101.363 72.0372 96.8563 72.0372 96.8563C71.8576 96.653 71.5462 96.6172 71.3303 96.7964C71.1265 96.9759 71.0906 97.2869 71.2705 97.502Z" fill="#080D18"/>
<path fill-rule="evenodd" clip-rule="evenodd" d="M69.389 101.734C69.389 101.734 72.9009 104.926 74.9743 106.552C75.19 106.719 75.5016 106.684 75.6694 106.469C75.8491 106.253 75.8009 105.931 75.5853 105.763C73.5357 104.161 70.0605 100.993 70.0605 100.993C69.8567 100.814 69.5448 100.826 69.353 101.029C69.1731 101.232 69.1852 101.543 69.389 101.734Z" fill="#080D18"/>
<path fill-rule="evenodd" clip-rule="evenodd" d="M68.3103 105.846C68.3103 105.846 71.6061 108.523 73.7273 109.695C73.967 109.827 74.2668 109.731 74.3987 109.492C74.5304 109.253 74.4465 108.954 74.2068 108.822C72.1454 107.686 68.9456 105.069 68.9456 105.069C68.7297 104.901 68.4058 104.925 68.2382 105.141C68.0583 105.356 68.0944 105.666 68.3103 105.846Z" fill="#080D18"/>
<path fill-rule="evenodd" clip-rule="evenodd" d="M87.835 57.6222L85.3421 59.6661L92.2096 62.1767L91.6341 59.0086C98.9811 60.3476 107.095 54.7529 110.439 45.6317C114.094 35.6856 110.714 25.2852 102.9 22.44C95.0859 19.5827 85.7854 25.3449 82.13 35.291C78.7862 44.4122 81.351 53.9162 87.835 57.6222Z" fill="white"/>
<path fill-rule="evenodd" clip-rule="evenodd" d="M86.9713 57.6827L85.03 59.2844C84.886 59.4039 84.8262 59.5832 84.85 59.7504C84.886 59.9298 85.0058 60.0737 85.1737 60.1334L92.0294 62.6437C92.1972 62.7036 92.3887 62.6673 92.5204 62.5597C92.6644 62.4402 92.7242 62.261 92.7003 62.0815L92.2447 59.607C99.6156 60.5276 107.574 54.8851 110.906 45.7997C114.669 35.5665 111.109 24.903 103.067 21.9741C95.0374 19.0333 85.4257 24.891 81.6623 35.1241C78.3306 44.2095 80.7632 53.642 86.9713 57.6827ZM88.1461 58.0053C88.2777 57.8977 88.3378 57.7423 88.3257 57.5869C88.3137 57.4195 88.2182 57.2761 88.0744 57.1924C81.7822 53.5821 79.3491 44.3291 82.6089 35.459C86.1445 25.7996 95.1452 20.1332 102.732 22.9068C110.318 25.6801 113.518 35.7939 109.971 45.453C106.711 54.3233 98.873 59.8225 91.7298 58.5196C91.562 58.4955 91.3939 58.5434 91.286 58.6628C91.1662 58.7705 91.1182 58.9377 91.1423 59.1052L91.5617 61.4125L86.3365 59.4997L88.1461 58.0053Z" fill="#080D18"/>
<path fill-rule="evenodd" clip-rule="evenodd" d="M61.2628 56.7497C54.2757 56.164 48.3192 49.0989 47.5401 40.0135C46.689 30.103 52.3221 21.5199 60.1005 20.8624C67.8787 20.2049 74.8784 27.7001 75.7293 37.6104C76.5083 46.6958 71.8339 54.6695 65.0504 56.4387L66.7881 58.9016L59.9568 59.4754L61.2628 56.7497Z" fill="white"/>
<path fill-rule="evenodd" clip-rule="evenodd" d="M60.509 57.1679L59.5142 59.2599C59.4302 59.4271 59.4543 59.6184 59.5501 59.7618C59.6579 59.9054 59.8255 59.9891 60.0052 59.9771L66.8368 59.391C67.0164 59.379 67.1725 59.2717 67.2444 59.1043C67.3165 58.9489 67.3042 58.7574 67.1961 58.614L65.8539 56.7135C72.4699 54.5616 77 46.6119 76.221 37.5624C75.3462 27.3533 68.0714 19.6781 60.0535 20.3594C52.0355 21.053 46.1745 29.8398 47.0374 40.0489C47.8165 49.0987 53.6295 56.1635 60.509 57.1679ZM61.7075 56.9646C61.7794 56.8213 61.7791 56.6538 61.6952 56.5102C61.6115 56.3668 61.4675 56.2711 61.2996 56.259C54.5282 55.6853 48.7875 48.7874 48.0323 39.965C47.2174 30.3655 52.5987 21.9975 60.1371 21.3641C67.6758 20.7184 74.4112 28.0464 75.2261 37.6459C75.9813 46.4683 71.5109 54.239 64.9191 55.9485C64.7633 55.9963 64.6319 56.1036 64.5839 56.259C64.524 56.4145 64.5479 56.5821 64.6439 56.7255L65.8778 58.4706L60.7842 58.9128L61.7075 56.9646Z" fill="#080D18"/>
<path fill-rule="evenodd" clip-rule="evenodd" d="M75.0943 48.4178C67.1841 46.3857 61.7071 37.1329 62.5698 26.541C63.5046 15.005 71.6183 6.23017 80.6791 6.95934C89.7397 7.70054 96.3315 17.6587 95.3967 29.1948C94.5458 39.7866 87.6426 48.0471 79.5048 48.7645L81.0269 51.9323L73.0806 51.2868L75.0943 48.4178Z" fill="white"/>
<path fill-rule="evenodd" clip-rule="evenodd" d="M74.2802 48.7034L72.6744 50.9987C72.5666 51.1541 72.5543 51.3453 72.6262 51.5007C72.6981 51.6679 72.8541 51.7759 73.034 51.7877L80.9919 52.4332C81.1716 52.4452 81.3394 52.3615 81.4473 52.2179C81.5432 52.0625 81.5674 51.8715 81.4834 51.7161L80.2606 49.1816C88.2906 48.0341 95.038 39.7852 95.901 29.2415C96.8599 17.3946 90.0165 7.22111 80.716 6.46812C71.4157 5.7149 63.0263 14.6571 62.0676 26.504C61.2167 37.048 66.5498 46.2768 74.2802 48.7034ZM75.5025 48.6914C75.5985 48.5598 75.6224 48.3928 75.5626 48.2374C75.5025 48.082 75.3829 47.9742 75.215 47.9263C67.5087 45.9539 62.2229 36.9044 63.062 26.5875C63.973 15.3505 71.8115 6.74309 80.6444 7.46048C89.4654 8.17762 95.8175 17.9205 94.9066 29.1578C94.0677 39.4746 87.392 47.5677 79.4698 48.273C79.3019 48.2848 79.1582 48.3808 79.0742 48.5242C78.9903 48.6675 78.9901 48.835 79.0619 48.9786L80.2006 51.3694L73.9807 50.8675L75.5025 48.6914Z" fill="#E91B41"/>
<path fill-rule="evenodd" clip-rule="evenodd" d="M67.7222 19.1783C69.6565 15.2522 72.7464 12.349 76.3007 11.2321C76.5684 11.1512 76.7172 10.8657 76.6318 10.6078C76.5469 10.3405 76.2684 10.1971 76.0103 10.2787C72.2083 11.4688 68.8915 14.5488 66.82 18.7335C66.7027 18.9844 66.8045 19.2808 67.0558 19.4035C67.2975 19.5252 67.5963 19.4194 67.7222 19.1783Z" fill="#E91B41"/>
<path fill-rule="evenodd" clip-rule="evenodd" d="M109.922 37.5117C109.813 33.2271 108.233 29.39 105.522 26.946C105.32 26.7548 105.003 26.7743 104.824 26.98C104.637 27.1825 104.653 27.4957 104.858 27.6791C107.375 29.9618 108.823 33.543 108.926 37.5364C108.93 37.8085 109.159 38.0279 109.434 38.02C109.71 38.0123 109.934 37.7869 109.922 37.5117Z" fill="#080D18"/>
<path fill-rule="evenodd" clip-rule="evenodd" d="M50.9236 33.0568C51.9973 29.4826 54.1854 26.5962 57.0292 25.1559C57.2761 25.0311 57.3673 24.7357 57.2465 24.4903C57.1174 24.2456 56.8179 24.1434 56.5712 24.2682C53.5127 25.8226 51.1255 28.9098 49.9598 32.7717C49.8826 33.0337 50.0314 33.3166 50.2953 33.3899C50.5599 33.4713 50.838 33.3197 50.9236 33.0568Z" fill="#080D18"/>
<path fill-rule="evenodd" clip-rule="evenodd" d="M117.233 199.712L141.875 175.313C141.549 175.145 141.262 174.967 141.011 174.763C139.117 173.257 118.299 148.918 118.299 148.918L100.214 117.741C100.214 117.741 97.2538 111.572 92.7473 112.397C92.7473 112.397 90.4341 109.181 89.4033 107.759C89.1037 107.352 88.5886 107.149 88.097 107.268C85.9997 107.806 80.4025 109.767 77.0826 115.959C76.819 116.449 76.7713 117.023 76.9509 117.549C77.3824 118.852 78.2213 121.339 78.2213 121.339C78.2213 121.339 77.0231 125.368 78.6289 129.133C80.247 132.899 93.8978 161.077 93.8978 161.077L117.233 199.712Z" fill="#E91B41"/>
<path fill-rule="evenodd" clip-rule="evenodd" d="M119.042 199.366L126.174 195.815C126.413 195.683 126.521 195.385 126.389 195.147C126.27 194.897 125.97 194.8 125.718 194.918L118.587 198.481C118.347 198.601 118.24 198.9 118.371 199.152C118.491 199.39 118.791 199.499 119.042 199.366Z" fill="#080D18"/>
<path fill-rule="evenodd" clip-rule="evenodd" d="M80.0078 120.67C80.0078 120.67 86.5036 115.075 90.3867 114.07C90.6503 114.011 90.8061 113.736 90.7463 113.473C90.6744 113.198 90.3988 113.042 90.1352 113.114C86.1081 114.142 79.3605 119.917 79.3605 119.917C79.1567 120.096 79.1328 120.418 79.3125 120.622C79.4922 120.825 79.804 120.849 80.0078 120.67Z" fill="#080D18"/>
</svg>
