<svg width="340" height="310" viewBox="0 0 340 310" fill="none" xmlns="http://www.w3.org/2000/svg">
<path d="M4.85598 184.26C4.78354 183.837 4.70832 183.399 4.65352 182.975C3.10903 172.608 2.94557 162.105 4.49656 151.733C5.00087 148.378 5.66863 145.031 6.52121 141.708C9.21176 131.369 14.2966 121.345 21.4107 112.871C25.6532 107.8 30.6386 103.287 36.2668 99.5785C53.5357 88.1805 72.0389 92.0592 91.9882 89.2617C106.153 87.2644 120.271 84.3586 133.598 79.3687C146.927 74.3796 159.264 67.2875 169.516 57.9024C181.292 47.1112 185.629 33.7821 194.95 21.9029C197.904 18.1377 202.614 14.1146 209.349 10.7765C212.717 8.79895 216.339 7.13507 220.159 5.90693C223.996 4.66074 228.05 3.84856 232.34 3.56838C252.36 2.22679 272.64 10.4912 287.96 22.4667C304.322 35.2715 316.945 50.94 325.645 68.1847C331.226 79.208 335.185 90.8525 337.526 102.819C342.388 127.806 340.127 154.089 330.36 178.577C302.19 249.208 224.094 309.05 139.996 303.995C139.213 303.944 138.447 303.89 137.662 303.822C137.191 303.808 136.698 303.763 136.222 303.717C133.74 303.515 131.243 303.232 128.774 302.895C122.301 301.997 115.918 300.669 109.705 298.867C104.816 297.436 100.039 295.722 95.3948 293.723C90.0276 291.397 84.8146 288.915 79.8208 286.249C75.8635 284.165 72.0296 281.963 68.3351 279.625C59.9041 274.334 52.1528 268.393 45.1279 261.646C41.7268 258.398 38.4911 254.959 35.4699 251.305C31.4216 246.486 27.7066 241.302 24.3362 235.718C17.8063 224.933 12.4447 213.296 8.7929 201.239C7.09888 195.657 5.76336 189.973 4.85598 184.26Z" fill="#E91B41" fill-opacity="0.07"/>
<path d="M133.35 293.493C133.055 293.49 132.816 293.251 132.819 292.958C132.819 292.663 133.058 292.426 133.352 292.426C134.417 292.435 135.48 292.412 136.526 292.374C136.818 292.354 137.066 292.594 137.077 292.889C137.083 293.033 137.031 293.167 136.937 293.273C136.838 293.377 136.706 293.435 136.564 293.441C135.485 293.479 134.403 293.502 133.355 293.493C133.352 293.493 133.352 293.493 133.35 293.493ZM126.973 293.207C126.959 293.207 126.942 293.207 126.927 293.204C125.854 293.112 124.778 292.993 123.73 292.857C123.465 292.822 123.266 292.594 123.266 292.325C123.266 292.302 123.269 292.279 123.272 292.259C123.31 291.969 123.581 291.758 123.869 291.799C124.902 291.934 125.961 292.05 127.02 292.143C127.161 292.155 127.291 292.221 127.381 292.331C127.473 292.441 127.516 292.577 127.504 292.721C127.481 292.993 127.247 293.207 126.973 293.207ZM142.917 292.984C142.646 292.984 142.419 292.779 142.389 292.507C142.386 292.489 142.386 292.472 142.386 292.452C142.383 292.178 142.588 291.949 142.862 291.92C143.907 291.807 144.968 291.677 146.016 291.53C146.302 291.489 146.576 291.694 146.616 291.984C146.656 292.273 146.454 292.545 146.163 292.585C145.102 292.736 144.028 292.869 142.981 292.981C142.978 292.981 142.978 292.981 142.975 292.981C142.958 292.984 142.938 292.984 142.917 292.984ZM117.516 291.729C117.476 291.729 117.435 291.724 117.397 291.715C116.351 291.475 115.3 291.206 114.276 290.917C114.048 290.853 113.889 290.642 113.889 290.405C113.889 290.356 113.895 290.306 113.909 290.257C113.987 289.983 114.287 289.809 114.567 289.89C115.568 290.173 116.601 290.437 117.634 290.674C117.92 290.741 118.099 291.027 118.035 291.316C117.977 291.559 117.764 291.729 117.516 291.729ZM152.384 291.501C152.133 291.501 151.913 291.322 151.864 291.076C151.859 291.038 151.853 291.003 151.853 290.966C151.853 290.714 152.032 290.495 152.28 290.445C153.31 290.234 154.355 290.006 155.387 289.766C155.67 289.699 155.961 289.882 156.025 290.165C156.06 290.304 156.034 290.445 155.958 290.567C155.884 290.688 155.765 290.772 155.627 290.804C154.591 291.047 153.535 291.278 152.493 291.492C152.456 291.498 152.421 291.501 152.384 291.501ZM161.706 289.246C161.463 289.246 161.253 289.083 161.189 288.849C161.178 288.806 161.172 288.76 161.172 288.716C161.169 288.471 161.334 288.259 161.568 288.196C162.54 287.939 163.549 287.664 164.651 287.363C164.928 287.285 165.229 287.458 165.304 287.736C165.382 288.019 165.214 288.314 164.931 288.392C163.858 288.687 162.817 288.968 161.842 289.228C161.795 289.239 161.749 289.246 161.706 289.246ZM108.372 288.884C108.306 288.884 108.24 288.869 108.176 288.843C107.175 288.444 106.18 288.017 105.216 287.571C105.026 287.481 104.904 287.29 104.907 287.079C104.907 287.004 104.924 286.932 104.956 286.863C105.075 286.603 105.404 286.481 105.663 286.603C106.607 287.039 107.585 287.461 108.572 287.855C108.843 287.964 108.975 288.274 108.869 288.546C108.787 288.751 108.592 288.884 108.372 288.884ZM170.95 286.684C170.714 286.684 170.503 286.524 170.437 286.296C170.425 286.247 170.416 286.197 170.416 286.148C170.416 285.911 170.576 285.7 170.803 285.637C171.767 285.359 172.771 285.07 173.873 284.749C174.15 284.668 174.453 284.838 174.533 285.113C174.571 285.252 174.556 285.394 174.487 285.521C174.418 285.646 174.306 285.735 174.17 285.776C173.184 286.062 172.136 286.365 171.094 286.663C171.048 286.675 170.999 286.684 170.95 286.684ZM99.7976 284.621C99.6993 284.621 99.6039 284.593 99.5207 284.543C98.6004 283.986 97.6883 283.399 96.8084 282.797C96.6616 282.696 96.5745 282.531 96.5776 282.352C96.5776 282.244 96.6097 282.144 96.6699 282.054C96.8285 281.823 97.1718 281.753 97.4055 281.915H97.4084C97.4144 281.918 97.4204 281.924 97.4256 281.927C98.2802 282.511 99.1685 283.083 100.072 283.63C100.322 283.783 100.404 284.11 100.253 284.361C100.155 284.523 99.9852 284.621 99.7976 284.621ZM180.157 283.994C179.923 283.994 179.713 283.835 179.646 283.613C179.632 283.563 179.626 283.514 179.626 283.465C179.623 283.228 179.779 283.017 180.004 282.951C180.004 282.948 180.007 282.947 180.007 282.947L180.018 282.944C180.985 282.658 182.024 282.351 183.071 282.037C183.345 281.955 183.651 282.123 183.732 282.398C183.815 282.678 183.657 282.976 183.374 283.06L182.797 283.234C181.963 283.479 181.135 283.728 180.31 283.971C180.261 283.986 180.209 283.994 180.157 283.994ZM317.586 283.523C317.39 283.523 317.211 283.416 317.116 283.243C316.622 282.314 316.083 281.4 315.514 280.53C315.459 280.446 315.428 280.345 315.428 280.244C315.425 280.062 315.514 279.891 315.668 279.793C315.907 279.637 316.25 279.709 316.406 279.946C316.989 280.842 317.546 281.782 318.056 282.739C318.195 283 318.097 283.324 317.837 283.462C317.762 283.503 317.676 283.523 317.586 283.523ZM189.352 281.253C189.116 281.253 188.908 281.097 188.842 280.871C188.824 280.819 188.819 280.767 188.819 280.712C188.822 280.478 188.974 280.276 189.199 280.209C189.756 280.041 190.316 279.877 190.879 279.709L192.263 279.295C192.538 279.211 192.843 279.379 192.924 279.654C193.008 279.934 192.849 280.232 192.566 280.316C191.542 280.622 190.521 280.926 189.502 281.23C189.453 281.247 189.402 281.253 189.352 281.253ZM92.0479 278.98C91.9183 278.98 91.794 278.934 91.6987 278.85C90.8849 278.144 90.0861 277.407 89.3244 276.658C89.3214 276.658 89.3215 276.655 89.3215 276.655C89.2202 276.554 89.1659 276.424 89.1629 276.282C89.1629 276.137 89.2172 276.005 89.3155 275.903C89.5143 275.701 89.8635 275.695 90.0682 275.895C90.8188 276.632 91.6034 277.355 92.3971 278.043C92.5036 278.136 92.5677 278.266 92.5787 278.408C92.5877 278.552 92.5416 278.688 92.4492 278.795C92.348 278.913 92.2004 278.98 92.0479 278.98ZM198.547 278.52C198.311 278.52 198.1 278.361 198.034 278.136C198.022 278.089 198.013 278.04 198.013 277.991C198.011 277.754 198.17 277.54 198.395 277.473C199.563 277.129 200.538 276.843 201.464 276.574C201.741 276.493 202.044 276.661 202.125 276.935C202.166 277.072 202.148 277.216 202.081 277.341C202.013 277.468 201.9 277.557 201.761 277.598C200.741 277.896 199.719 278.197 198.701 278.497H198.698C198.649 278.511 198.596 278.52 198.547 278.52ZM207.752 275.843C207.515 275.843 207.304 275.684 207.241 275.455C207.226 275.409 207.22 275.36 207.22 275.311C207.22 275.073 207.38 274.862 207.607 274.796C208.7 274.483 209.708 274.197 210.68 273.925C210.96 273.844 211.26 274.018 211.337 274.293C211.415 274.576 211.251 274.871 210.968 274.952C209.964 275.235 208.931 275.527 207.898 275.823C207.849 275.837 207.8 275.843 207.752 275.843ZM311.986 275.773C311.842 275.773 311.706 275.715 311.605 275.611C310.884 274.865 310.116 274.139 309.317 273.454C309.199 273.353 309.129 273.208 309.129 273.052C309.129 272.925 309.173 272.801 309.257 272.702C309.441 272.488 309.793 272.46 310.006 272.642C310.829 273.344 311.622 274.093 312.37 274.868C312.574 275.082 312.568 275.42 312.358 275.623C312.257 275.721 312.125 275.773 311.986 275.773ZM216.99 273.266C216.751 273.266 216.537 273.104 216.476 272.873C216.462 272.824 216.456 272.774 216.456 272.726C216.459 272.491 216.62 272.28 216.848 272.219C217.896 271.936 218.937 271.656 219.944 271.39C220.224 271.314 220.521 271.491 220.596 271.769C220.671 272.052 220.501 272.344 220.216 272.422C219.26 272.673 218.251 272.945 217.128 273.249C217.082 273.26 217.036 273.266 216.99 273.266ZM85.4231 272.04C85.2587 272.04 85.1059 271.965 85.0047 271.835C83.7733 270.25 83.1672 269.229 83.1211 269.151C83.1211 269.151 83.1212 269.148 83.1181 269.148C82.9708 268.894 83.0578 268.567 83.3117 268.42C83.5566 268.275 83.8967 268.365 84.0383 268.611C84.0414 268.614 84.0442 268.616 84.0473 268.625C84.1887 268.859 84.3586 269.117 84.4739 269.29C84.748 269.701 85.2074 270.36 85.8445 271.178C86.0233 271.413 85.983 271.748 85.7522 271.927C85.6567 272.002 85.5446 272.04 85.4231 272.04ZM226.278 270.837C226.032 270.837 225.818 270.673 225.761 270.435C225.75 270.389 225.744 270.346 225.744 270.299C225.747 270.057 225.911 269.845 226.147 269.787C227.339 269.489 228.326 269.244 229.255 269.018C229.538 268.952 229.829 269.131 229.898 269.414C229.967 269.698 229.792 269.987 229.506 270.056C228.583 270.282 227.598 270.525 226.407 270.823C226.364 270.834 226.321 270.837 226.278 270.837ZM304.447 269.901C304.355 269.901 304.263 269.877 304.181 269.831C303.281 269.311 302.343 268.819 301.392 268.367C301.207 268.281 301.089 268.093 301.086 267.891C301.086 267.81 301.103 267.732 301.138 267.656C301.258 267.402 301.587 267.28 301.844 267.402C302.831 267.87 303.798 268.377 304.715 268.905C304.837 268.978 304.926 269.094 304.963 269.229C304.998 269.368 304.981 269.513 304.909 269.634C304.813 269.799 304.637 269.901 304.447 269.901ZM235.608 268.616C235.36 268.616 235.14 268.44 235.089 268.197C235.08 268.16 235.074 268.119 235.074 268.078C235.077 267.83 235.245 267.619 235.487 267.564C235.487 267.561 235.49 267.561 235.49 267.561C235.502 267.558 235.51 267.558 235.522 267.555C236.523 267.329 237.567 267.101 238.62 266.876C238.903 266.815 239.191 267.006 239.249 267.286C239.313 267.575 239.128 267.859 238.84 267.919C237.847 268.13 236.829 268.356 235.723 268.602C235.686 268.611 235.646 268.616 235.608 268.616ZM244.996 266.662C244.743 266.662 244.521 266.48 244.474 266.228C244.469 266.199 244.466 266.167 244.466 266.135C244.463 265.875 244.645 265.653 244.899 265.606C246.01 265.395 247.042 265.204 248.05 265.028C248.335 264.976 248.615 265.172 248.664 265.459C248.716 265.748 248.522 266.026 248.234 266.077C247.227 266.257 246.2 266.445 245.095 266.653C245.064 266.659 245.031 266.662 244.996 266.662ZM295.658 266.127C295.607 266.127 295.555 266.118 295.502 266.104C294.513 265.797 293.486 265.517 292.453 265.268H292.45C292.211 265.207 292.043 264.993 292.046 264.744C292.046 264.704 292.052 264.663 292.061 264.626C292.127 264.343 292.419 264.163 292.701 264.23L292.719 264.236C293.777 264.49 294.819 264.776 295.814 265.083C296.097 265.17 296.253 265.468 296.169 265.748C296.1 265.973 295.895 266.127 295.658 266.127ZM254.452 265.065C254.189 265.065 253.964 264.869 253.926 264.609C253.921 264.58 253.921 264.554 253.921 264.525C253.921 264.262 254.114 264.042 254.374 264.004C254.374 264.004 254.374 264.004 254.377 264.001H254.383C255.427 263.848 256.495 263.701 257.55 263.565C257.839 263.53 258.11 263.738 258.148 264.027C258.185 264.319 257.977 264.586 257.686 264.623C256.673 264.753 255.612 264.901 254.529 265.06C254.503 265.063 254.478 265.065 254.452 265.065ZM286.299 264.12C286.276 264.12 286.25 264.117 286.226 264.114C285.214 263.978 284.155 263.86 283.073 263.761C282.802 263.735 282.591 263.51 282.589 263.238C282.589 263.218 282.591 263.2 282.591 263.183C282.617 262.888 282.877 262.677 283.171 262.697C284.247 262.795 285.323 262.917 286.368 263.055C286.509 263.076 286.634 263.148 286.72 263.261C286.806 263.377 286.844 263.516 286.824 263.657C286.789 263.92 286.562 264.12 286.299 264.12ZM263.973 263.932C263.696 263.932 263.468 263.721 263.442 263.446C263.442 263.432 263.442 263.417 263.442 263.406C263.439 263.128 263.652 262.891 263.927 262.868C265.026 262.77 266.102 262.686 267.124 262.616C267.415 262.593 267.672 262.821 267.692 263.114C267.71 263.409 267.487 263.663 267.196 263.683C266.183 263.75 265.112 263.831 264.022 263.929C264.008 263.932 263.99 263.932 263.973 263.932ZM276.74 263.429H276.732C275.707 263.409 274.646 263.409 273.555 263.423H273.546C273.258 263.423 273.018 263.186 273.015 262.897V262.891C273.015 262.888 273.015 262.885 273.015 262.882C273.018 262.59 273.249 262.359 273.541 262.356C274.593 262.341 275.704 262.341 276.752 262.362C276.893 262.362 277.026 262.42 277.124 262.523C277.222 262.625 277.277 262.761 277.274 262.902C277.268 263.192 277.029 263.429 276.74 263.429Z" fill="#E91B41"/>
<path d="M32.3774 89.519C32.2411 89.519 32.1051 89.4671 32.001 89.3628L15.7079 73.0334C15.5 72.8251 15.5002 72.4872 15.708 72.279C15.9159 72.0706 16.2529 72.0706 16.4608 72.2789L32.7539 88.6083C32.9618 88.8166 32.9616 89.1545 32.754 89.3629C32.6499 89.467 32.5137 89.5191 32.3774 89.519Z" fill="#E91B41"/>
<path d="M39.257 82.0316C39.0215 82.0318 38.8062 81.8746 38.7425 81.6362L35.5215 69.5837C35.4454 69.299 35.6143 69.0064 35.8989 68.93C36.1847 68.8535 36.4758 69.0225 36.5518 69.3069L39.7728 81.3595C39.8489 81.6442 39.68 81.9367 39.3954 82.0132C39.3491 82.0256 39.3028 82.0315 39.257 82.0316Z" fill="#E91B41"/>
<path d="M24.9077 96.4192C24.8623 96.4191 24.8159 96.4132 24.7697 96.4008L11.7729 92.9092C11.4889 92.8329 11.3202 92.5409 11.3962 92.2566C11.4721 91.9727 11.7628 91.8026 12.0479 91.8803L25.0447 95.3719C25.3287 95.4482 25.4974 95.7402 25.4214 96.0245C25.3576 96.2624 25.1428 96.4195 24.9077 96.4192Z" fill="#E91B41"/>
<path d="M207.947 121.802C207.938 121.802 207.93 121.802 207.924 121.802C206.857 121.753 205.775 121.663 204.701 121.542C204.701 121.539 204.701 121.539 204.698 121.539C204.427 121.507 204.228 121.279 204.231 121.004C204.231 120.987 204.231 120.967 204.234 120.95C204.269 120.66 204.534 120.452 204.826 120.481C205.861 120.6 206.92 120.686 207.973 120.735C208.264 120.75 208.493 121.001 208.478 121.296C208.467 121.58 208.233 121.802 207.947 121.802ZM214.329 121.672C214.058 121.672 213.825 121.458 213.802 121.186C213.798 121.172 213.799 121.158 213.799 121.146C213.796 120.869 214.006 120.631 214.283 120.605C215.322 120.513 216.376 120.383 217.417 120.215C217.705 120.172 217.979 120.368 218.025 120.657C218.071 120.949 217.872 121.224 217.584 121.27C216.517 121.441 215.437 121.574 214.379 121.669C214.362 121.672 214.347 121.672 214.329 121.672ZM198.481 120.403C198.438 120.403 198.395 120.397 198.351 120.385C197.33 120.134 196.282 119.839 195.244 119.512C195.244 119.512 195.241 119.512 195.241 119.509C195.019 119.437 194.871 119.234 194.871 119C194.871 118.948 194.88 118.893 194.897 118.844C194.984 118.569 195.284 118.408 195.561 118.492L195.564 118.494C195.573 118.497 195.582 118.5 195.59 118.503C196.585 118.815 197.601 119.102 198.608 119.35C198.893 119.423 199.067 119.712 198.997 119.998C198.936 120.235 198.726 120.403 198.481 120.403ZM223.718 119.824C223.484 119.824 223.279 119.674 223.21 119.449C223.196 119.397 223.187 119.341 223.187 119.29C223.187 119.055 223.337 118.85 223.562 118.781C224.564 118.474 225.567 118.124 226.546 117.745C226.811 117.641 227.131 117.783 227.232 118.049C227.284 118.182 227.281 118.327 227.224 118.46C227.166 118.587 227.062 118.688 226.929 118.74C225.928 119.127 224.901 119.483 223.876 119.801C223.874 119.801 223.874 119.801 223.871 119.801C223.822 119.816 223.77 119.824 223.718 119.824ZM189.436 117.263C189.36 117.263 189.286 117.245 189.219 117.216C188.244 116.78 187.269 116.311 186.314 115.82L186.311 115.817C186.132 115.724 186.023 115.542 186.023 115.342C186.023 115.256 186.043 115.174 186.083 115.099C186.213 114.845 186.539 114.738 186.796 114.866C186.796 114.868 186.795 114.868 186.798 114.868C186.807 114.871 186.813 114.877 186.822 114.88C187.765 115.365 188.717 115.823 189.652 116.242C189.92 116.363 190.042 116.678 189.92 116.947C189.837 117.138 189.646 117.263 189.436 117.263ZM232.515 116.051C232.321 116.051 232.143 115.947 232.05 115.779C232.004 115.695 231.981 115.606 231.981 115.513C231.984 115.322 232.088 115.143 232.252 115.05C233.167 114.538 234.076 113.983 234.95 113.408C235.187 113.249 235.53 113.321 235.686 113.558C235.766 113.677 235.793 113.818 235.764 113.96C235.735 114.099 235.654 114.22 235.536 114.298C234.642 114.888 233.712 115.455 232.775 115.981C232.697 116.028 232.604 116.051 232.515 116.051ZM181.028 112.665C180.924 112.665 180.826 112.636 180.74 112.581C179.854 112.005 178.959 111.396 178.079 110.765C177.938 110.664 177.855 110.502 177.855 110.328C177.858 110.218 177.889 110.112 177.956 110.022C178.12 109.791 178.466 109.733 178.697 109.898C179.559 110.517 180.442 111.118 181.32 111.685C181.564 111.844 181.634 112.176 181.475 112.422C181.378 112.575 181.21 112.665 181.028 112.665ZM240.305 110.484C240.152 110.484 240.008 110.418 239.907 110.308C239.817 110.207 239.771 110.08 239.771 109.946C239.771 109.796 239.838 109.652 239.948 109.554C240.726 108.857 241.491 108.116 242.218 107.359C242.414 107.153 242.766 107.145 242.971 107.341C243.182 107.546 243.19 107.885 242.985 108.096C242.244 108.874 241.459 109.631 240.66 110.349C240.562 110.435 240.435 110.484 240.305 110.484ZM173.091 107.289C172.993 107.289 172.901 107.263 172.817 107.214C171.916 106.673 170.991 106.153 170.062 105.664H170.059C169.88 105.572 169.77 105.387 169.77 105.187C169.773 105.103 169.793 105.019 169.831 104.944C169.963 104.693 170.295 104.586 170.549 104.719C171.478 105.201 172.424 105.733 173.365 106.298C173.487 106.37 173.573 106.485 173.607 106.624C173.642 106.763 173.622 106.908 173.547 107.029C173.451 107.191 173.276 107.289 173.091 107.289ZM124.53 107.171C124.356 107.171 124.192 107.084 124.091 106.939C124.01 106.821 123.982 106.679 124.005 106.54C124.03 106.399 124.108 106.277 124.227 106.196C124.236 106.191 125.231 105.502 127.051 104.551C127.305 104.418 127.64 104.525 127.77 104.779C127.836 104.904 127.847 105.048 127.804 105.184C127.764 105.323 127.669 105.433 127.542 105.499C126.636 105.97 125.941 106.378 125.519 106.636C125.256 106.795 125.023 106.944 124.844 107.066C124.841 107.069 124.839 107.069 124.836 107.072C124.836 107.072 124.836 107.075 124.833 107.075C124.743 107.136 124.639 107.171 124.53 107.171ZM164.47 103.125C164.406 103.125 164.343 103.114 164.285 103.094C163.301 102.729 162.292 102.394 161.287 102.099C161.06 102.032 160.901 101.818 160.904 101.581C160.904 101.532 160.912 101.483 160.924 101.437C161.005 101.162 161.31 100.991 161.587 101.075C162.611 101.376 163.644 101.72 164.65 102.09C164.927 102.191 165.069 102.501 164.968 102.775C164.891 102.987 164.689 103.125 164.47 103.125ZM133.162 103.018C132.937 103.018 132.735 102.873 132.66 102.663C132.64 102.602 132.632 102.541 132.632 102.478C132.635 102.255 132.775 102.058 132.983 101.983C132.983 101.98 132.983 101.98 132.986 101.98L133.001 101.977C134.007 101.619 135.038 101.292 136.065 101.003C136.345 100.925 136.645 101.095 136.723 101.37C136.76 101.509 136.743 101.653 136.674 101.778C136.604 101.902 136.492 101.992 136.353 102.029C135.343 102.313 134.331 102.636 133.341 102.986C133.284 103.007 133.223 103.018 133.162 103.018ZM155.2 100.751C155.173 100.751 155.147 100.751 155.122 100.746C154.078 100.595 153.021 100.48 151.985 100.404C151.708 100.384 151.492 100.153 151.492 99.8752C151.492 99.8603 151.492 99.8462 151.492 99.8346C151.515 99.5425 151.769 99.3198 152.061 99.3399C153.133 99.4182 154.216 99.5364 155.275 99.6898C155.566 99.7336 155.768 100.005 155.724 100.297C155.687 100.557 155.462 100.751 155.2 100.751ZM142.462 100.734C142.196 100.734 141.971 100.534 141.934 100.274C141.931 100.251 141.928 100.228 141.928 100.205C141.925 99.9386 142.121 99.7103 142.383 99.6727C142.383 99.6696 142.386 99.6697 142.386 99.6697C142.398 99.6697 142.406 99.6667 142.415 99.6667C143.465 99.5194 144.539 99.4067 145.6 99.3343C145.891 99.3142 146.148 99.5365 146.168 99.829C146.189 100.121 145.967 100.375 145.676 100.396C144.631 100.471 143.575 100.58 142.534 100.728C142.51 100.731 142.485 100.734 142.462 100.734Z" fill="#080D18"/>
<path d="M70.726 267.019C70.6548 267.019 70.5838 267.005 70.5164 266.976C70.3618 266.909 70.248 266.774 70.2086 266.61L62.6254 235.108C62.5756 234.903 62.6519 234.688 62.8194 234.559C62.9863 234.431 63.2133 234.413 63.3983 234.515L97.6166 253.287C97.7995 253.387 97.9077 253.585 97.8921 253.793C97.8772 254.002 97.7428 254.182 97.5474 254.255L84.4992 259.124L70.9924 266.947C70.9105 266.995 70.8185 267.019 70.726 267.019ZM63.9422 236.03L71.0765 265.666L84.0051 258.178C84.0309 258.163 84.0574 258.151 84.0859 258.14L96.0838 253.663L63.9422 236.03Z" fill="#080D18"/>
<path d="M254.774 102.473C254.682 102.473 254.59 102.449 254.508 102.401L243.151 95.8242L232.181 91.7302C231.986 91.6574 231.851 91.4771 231.836 91.2686C231.821 91.0606 231.929 90.8626 232.111 90.7623L260.898 74.9701C261.082 74.8683 261.309 74.8858 261.477 75.0145C261.644 75.1427 261.721 75.3577 261.671 75.5631L255.292 102.064C255.252 102.228 255.138 102.363 254.984 102.43C254.916 102.459 254.845 102.473 254.774 102.473ZM233.644 91.1377L243.565 94.84C243.592 94.8503 243.62 94.8629 243.645 94.8779L254.423 101.12L260.354 76.4849L233.644 91.1377Z" fill="#E91B41"/>
<path d="M83.9701 259.093C83.8233 259.093 83.6765 259.032 83.5717 258.913L63.2534 235.912C63.0587 235.692 63.0788 235.355 63.2993 235.159C63.5192 234.964 63.8561 234.984 64.0508 235.205L84.3685 258.206C84.5639 258.426 84.5431 258.763 84.3232 258.959C84.2217 259.049 84.0956 259.093 83.9701 259.093Z" fill="#080D18"/>
<path d="M243.631 95.8116C243.505 95.8116 243.38 95.7675 243.278 95.6775C243.058 95.4823 243.037 95.1451 243.232 94.9244L260.325 75.5756C260.52 75.3547 260.856 75.3342 261.077 75.5297C261.296 75.7246 261.317 76.062 261.122 76.2825L244.029 95.6317C243.924 95.7507 243.778 95.8116 243.631 95.8116Z" fill="#E91B41"/>
<path d="M79.8627 267.441C79.7049 267.441 79.5544 267.371 79.4527 267.247L76.2881 263.408C76.1006 263.181 76.1328 262.845 76.3593 262.657C76.5863 262.469 76.9214 262.501 77.1089 262.729L79.7476 265.93L83.2705 258.727C83.3998 258.463 83.7186 258.353 83.9832 258.483C84.2471 258.613 84.3563 258.933 84.2264 259.197L80.3407 267.143C80.2612 267.305 80.1046 267.416 79.9248 267.437C79.9041 267.44 79.8834 267.441 79.8627 267.441Z" fill="#080D18"/>
<path d="M247.086 102.834C247.066 102.834 247.044 102.833 247.024 102.83C246.844 102.81 246.687 102.698 246.608 102.536L243.339 95.8524C243.21 95.5877 243.318 95.2683 243.582 95.1386C243.846 95.0089 244.165 95.1182 244.295 95.3826L247.201 101.324L249.338 98.732C249.525 98.5049 249.86 98.4729 250.087 98.6606C250.314 98.8482 250.346 99.1844 250.158 99.4115L247.496 102.641C247.395 102.764 247.243 102.834 247.086 102.834Z" fill="#E91B41"/>
<path fill-rule="evenodd" clip-rule="evenodd" d="M159.747 131.01C159.747 131.01 161.316 140.066 163.096 144.088C163.096 144.088 160.195 152.991 166.313 151.146C166.313 151.146 171.284 165.339 184.536 158.691L186.883 165.711L212.133 161.189L206.49 147.316L193.726 124.784L159.747 131.01Z" fill="white"/>
<path d="M186.882 166.246C186.657 166.246 186.452 166.102 186.378 165.882L184.223 159.437C180.414 161.216 176.907 161.479 173.791 160.214C168.988 158.266 166.628 153.331 165.991 151.786C164.6 152.108 163.533 151.9 162.815 151.163C161.078 149.38 162.207 145.178 162.528 144.12C160.777 140.006 159.286 131.469 159.222 131.102C159.172 130.814 159.364 130.539 159.651 130.486L193.63 124.261C193.853 124.219 194.077 124.325 194.189 124.522L206.953 147.055C206.964 147.074 206.974 147.095 206.983 147.117L212.626 160.989C212.687 161.138 212.677 161.307 212.6 161.448C212.522 161.589 212.385 161.687 212.227 161.715L186.977 166.237C186.945 166.243 186.914 166.246 186.882 166.246ZM184.536 158.159C184.605 158.159 184.674 158.173 184.739 158.199C184.882 158.259 184.991 158.377 185.04 158.523L187.242 165.106L211.392 160.781L206.01 147.551L193.449 125.379L160.365 131.44C160.728 133.416 162.092 140.505 163.583 143.873C163.636 143.994 163.643 144.13 163.602 144.255C163.182 145.546 162.36 149.17 163.577 150.417C164.077 150.929 164.945 151.002 166.16 150.636C166.431 150.553 166.721 150.702 166.815 150.97C166.837 151.032 169.037 157.139 174.197 159.228C177.165 160.429 180.564 160.089 184.298 158.216C184.372 158.178 184.454 158.159 184.536 158.159Z" fill="#080D18"/>
<path d="M187.163 138.32C187.046 138.32 186.928 138.281 186.829 138.202C186.6 138.017 186.564 137.681 186.748 137.452C189.573 133.936 192.604 132.328 192.731 132.261C192.991 132.125 193.313 132.227 193.449 132.487C193.585 132.747 193.485 133.07 193.225 133.206C193.196 133.222 190.257 134.788 187.578 138.121C187.473 138.252 187.319 138.32 187.163 138.32Z" fill="#080D18"/>
<path d="M192.323 137.808C192.228 137.807 192.131 137.782 192.044 137.728C192.026 137.717 190.239 136.617 188.943 136.201C188.662 136.111 188.508 135.811 188.597 135.531C188.688 135.25 188.987 135.097 189.267 135.186C190.687 135.642 192.525 136.773 192.602 136.821C192.852 136.976 192.93 137.304 192.776 137.554C192.675 137.718 192.501 137.808 192.323 137.808Z" fill="#080D18"/>
<path fill-rule="evenodd" clip-rule="evenodd" d="M184.218 132.472C184.218 132.472 184.781 135.008 184.653 139.389C184.64 139.491 184.589 139.581 184.499 139.619C184.397 139.658 184.295 139.646 184.218 139.581C183.4 138.8 181.457 136.776 179.527 133.292C179.527 133.292 166.695 135.136 159.896 131.652L160.33 133.804C160.33 133.804 154.796 130.896 156.073 124.222L153.505 126.938C153.505 126.938 155.55 101.985 179.527 97.1429C198.802 93.2622 206.79 105.149 206.79 105.149C206.79 105.149 221.884 112.438 217.167 127.758C213.128 140.888 211.224 142.886 207.888 150.393L204.693 151.007L194.11 140.337C194.11 140.337 198.494 136.891 195.247 131.652C193.471 128.795 188.104 127.643 184.218 132.472Z" fill="#080D18"/>
<path d="M164.729 136.46C164.611 136.46 164.493 136.422 164.395 136.342C164.167 136.158 164.13 135.824 164.314 135.594C164.365 135.529 165.626 133.981 168.309 133.12C168.588 133.03 168.888 133.185 168.978 133.466C169.068 133.746 168.914 134.046 168.634 134.136C166.275 134.893 165.154 136.249 165.143 136.263C165.038 136.392 164.883 136.46 164.729 136.46Z" fill="#080D18"/>
<path fill-rule="evenodd" clip-rule="evenodd" d="M167.955 138.001C168.878 137.876 169.726 138.523 169.85 139.447C169.975 140.372 169.328 141.222 168.405 141.348C167.482 141.473 166.633 140.826 166.509 139.902C166.384 138.978 167.031 138.127 167.955 138.001Z" fill="#080D18"/>
<path fill-rule="evenodd" clip-rule="evenodd" d="M179.047 144.949C180.914 146.888 180.862 149.986 178.923 151.862C176.983 153.739 173.893 153.683 172.025 151.744L179.047 144.949Z" fill="white"/>
<path d="M175.533 153.767C174.116 153.767 172.701 153.214 171.642 152.115C171.544 152.014 171.491 151.877 171.493 151.735C171.496 151.594 171.554 151.459 171.656 151.361L178.678 144.565C178.78 144.468 178.919 144.419 179.057 144.416C179.198 144.418 179.332 144.477 179.43 144.579C180.433 145.62 180.97 146.99 180.945 148.439C180.92 149.888 180.333 151.24 179.293 152.246C178.243 153.261 176.887 153.766 175.533 153.767ZM172.801 151.735C174.481 153.099 176.958 153.023 178.553 151.479C179.389 150.671 179.86 149.584 179.88 148.42C179.898 147.436 179.592 146.498 179.011 145.726L172.801 151.735Z" fill="#080D18"/>
<path fill-rule="evenodd" clip-rule="evenodd" d="M177.699 304.272L171.398 222.598V184.681L213.384 179.045L240.071 190.356C244.89 190.843 260.508 251.547 265.992 304.272H177.699Z" fill="white"/>
<path d="M265.992 304.806H177.7C177.421 304.806 177.19 304.592 177.169 304.314L170.867 222.64C170.866 222.626 170.866 222.613 170.866 222.599V184.683C170.866 184.415 171.063 184.189 171.327 184.154L213.313 178.517C213.408 178.505 213.504 178.518 213.592 178.555L240.207 189.835C240.848 189.919 242.415 190.515 245.887 200.776C248.16 207.491 250.722 216.767 253.3 227.602C259.231 252.537 264.051 280.463 266.521 304.217C266.537 304.367 266.488 304.517 266.387 304.629C266.286 304.742 266.142 304.806 265.992 304.806ZM178.192 303.739H265.401C262.917 280.157 258.137 252.537 252.264 227.85C249.694 217.047 247.14 207.804 244.879 201.119C241.563 191.317 240.166 190.903 240.018 190.888C239.965 190.883 239.913 190.869 239.864 190.848L213.311 179.595L171.93 185.15V222.578L178.192 303.739Z" fill="#080D18"/>
<path fill-rule="evenodd" clip-rule="evenodd" d="M174.363 175.113C174.363 175.113 173.916 168.913 179.207 165.301C184.512 161.701 217.193 152.44 231.968 158.025C237.502 160.113 238.755 165.48 240.825 173.281C241.911 177.393 241.209 178.687 244.404 184.541C247.587 190.395 242.512 195.545 235.867 195.519C229.22 195.48 212.131 194.507 195.223 188.128C178.313 181.736 174.695 184.861 170.925 186.808C170.925 186.808 168.177 178.661 174.363 175.113Z" fill="#E91B41"/>
<path d="M185.847 176.129C185.794 176.129 185.74 176.121 185.686 176.104C181.115 174.651 176.523 175.646 176.476 175.656C176.189 175.721 175.905 175.539 175.841 175.251C175.778 174.964 175.958 174.679 176.245 174.615C176.442 174.57 181.155 173.544 186.008 175.087C186.288 175.176 186.443 175.476 186.354 175.757C186.282 175.984 186.073 176.129 185.847 176.129Z" fill="#080D18"/>
<path d="M230.261 182.835C228.137 182.835 225.668 182.65 222.83 182.171C222.541 182.122 222.346 181.847 222.394 181.556C222.443 181.266 222.718 181.069 223.008 181.119C229.228 182.168 233.577 181.737 236.131 181.189C238.889 180.597 240.199 179.748 240.212 179.74C240.457 179.578 240.787 179.645 240.949 179.89C241.111 180.135 241.045 180.465 240.801 180.628C240.629 180.743 237.392 182.835 230.261 182.835Z" fill="#080D18"/>
<path fill-rule="evenodd" clip-rule="evenodd" d="M120.453 136.069C120.453 133.619 118.471 131.627 116.017 131.627C99.9128 131.627 44.6344 131.627 28.5303 131.627C26.0763 131.627 24.0825 133.619 24.0825 136.069C24.0825 147.898 24.0825 180.005 24.0825 191.834C24.0825 194.285 26.0763 196.276 28.5303 196.276C44.6342 196.276 99.9128 196.276 116.017 196.276C118.471 196.276 120.453 194.285 120.453 191.834C120.453 180.005 120.453 147.898 120.453 136.069Z" fill="#080D18"/>
<path fill-rule="evenodd" clip-rule="evenodd" d="M109.03 96.1936C109.03 95.2056 108.649 94.2732 107.947 93.5779C107.255 92.8821 106.319 92.4932 105.334 92.4932H39.2163C38.2309 92.4932 37.2948 92.8823 36.603 93.5779C35.901 94.2734 35.5107 95.2058 35.5107 96.1936C35.5107 107.421 35.5107 140.269 35.5107 140.269C35.5107 140.269 59.0678 158.077 68.4577 165.172C70.72 166.883 73.8206 166.883 76.0732 165.186C85.4824 158.077 109.03 140.269 109.03 140.269C109.03 140.269 109.03 107.421 109.03 96.1936Z" fill="white"/>
<path d="M72.9716 149.543C86.2048 149.543 96.9324 138.791 96.9324 125.529C96.9324 112.266 86.2048 101.515 72.9716 101.515C59.7384 101.515 49.0107 112.266 49.0107 125.529C49.0107 138.791 59.7384 149.543 72.9716 149.543Z" fill="#E91B41"/>
<path d="M58.6047 128.802L58.646 126.513L56.3106 127.755L55.5459 126.743L58.026 125.501L55.5872 124.259L56.3726 123.247L58.6254 124.472L58.6047 122.253H60.0307L59.9894 124.454L62.2422 123.247L63.0275 124.259L60.6094 125.501L63.0895 126.743L62.2835 127.755L59.9894 126.53L60.0307 128.802H58.6047Z" fill="white"/>
<path d="M68.0706 128.802L68.1119 126.513L65.7765 127.755L65.0118 126.743L67.4919 125.501L65.0531 124.259L65.8385 123.247L68.0912 124.472L68.0706 122.253H69.4966L69.4553 124.454L71.708 123.247L72.4934 124.259L70.0753 125.501L72.5554 126.743L71.7494 127.755L69.4553 126.53L69.4966 128.802H68.0706Z" fill="white"/>
<path d="M77.5364 128.802L77.5778 126.513L75.2423 127.755L74.4776 126.743L76.9577 125.501L74.519 124.259L75.3043 123.247L77.5571 124.472L77.5364 122.253H78.9625L78.9211 124.454L81.1739 123.247L81.9593 124.259L79.5412 125.501L82.0213 126.743L81.2152 127.755L78.9211 126.53L78.9625 128.802H77.5364Z" fill="white"/>
<path d="M87.0023 128.802L87.0436 126.513L84.7082 127.755L83.9435 126.743L86.4236 125.501L83.9848 124.259L84.7702 123.247L87.023 124.472L87.0023 122.253H88.4283L88.387 124.454L90.6398 123.247L91.4251 124.259L89.007 125.501L91.4871 126.743L90.6811 127.755L88.387 126.53L88.4283 128.802H87.0023Z" fill="white"/>
<path d="M72.2778 166.983C70.8175 166.983 69.3567 166.522 68.1378 165.599C58.7479 158.504 35.1909 140.696 35.1909 140.696C35.0574 140.595 34.979 140.438 34.979 140.27V96.195C34.979 95.0624 35.4232 93.9988 36.2291 93.2001C37.0232 92.4017 38.0848 91.9609 39.2167 91.9609H105.334C106.466 91.9609 107.527 92.4019 108.325 93.2025C109.122 93.9932 109.562 95.0568 109.562 96.195V140.27C109.562 140.438 109.484 140.595 109.351 140.696C109.351 140.696 85.8032 158.504 76.394 165.614C75.1823 166.527 73.7301 166.983 72.2778 166.983ZM36.0434 140.004C38.405 141.79 59.9106 158.047 68.7785 164.748C70.8335 166.302 73.7011 166.307 75.7533 164.761C84.6399 158.047 106.138 141.79 108.498 140.004V96.195C108.498 95.3436 108.17 94.5493 107.573 93.9582C106.975 93.3576 106.181 93.0283 105.334 93.0283H39.2167C38.3699 93.0283 37.5759 93.3577 36.9806 93.9562C36.3751 94.556 36.0434 95.3502 36.0434 96.1954V140.004Z" fill="#080D18"/>
<path d="M72.2912 166.939C70.8259 166.939 69.3602 166.48 68.1374 165.562C56.987 157.13 25.3491 133.222 25.3491 133.222L25.9897 132.371C25.9897 132.371 57.6284 156.278 68.7779 164.709C70.8463 166.263 73.7378 166.263 75.8077 164.708C86.9555 156.278 118.593 132.371 118.593 132.371L119.235 133.222C119.235 133.222 87.5969 157.13 76.4474 165.561C75.224 166.48 73.757 166.939 72.2912 166.939Z" fill="white"/>
<path fill-rule="evenodd" clip-rule="evenodd" d="M122.848 186.684C122.848 186.684 120.613 181.855 120.144 178.958C119.676 176.047 117.869 172.868 116.531 171.527C115.246 170.239 113.104 171.527 113.104 171.527C113.104 171.527 106.921 163.13 104.07 159.254C103.294 158.208 101.809 157.979 100.765 158.758C100.029 159.307 99.8143 160.313 100.296 161.105C102.344 164.525 107.483 173.097 107.483 173.097C107.483 173.097 104.619 174.102 103.762 176.543C103.762 176.543 100.858 178.073 100.711 180.809C100.711 180.809 98.7837 182.7 99.4533 185.624C100.122 188.548 103.762 191.056 105.81 192.277C107.858 193.511 109.785 195.912 109.785 195.912L116.035 194.034L122.848 186.684Z" fill="white"/>
<path d="M109.785 196.447C109.626 196.447 109.472 196.376 109.369 196.247C109.35 196.224 107.476 193.905 105.535 192.735C102.894 191.161 99.6021 188.668 98.9333 185.744C98.3096 183.021 99.7205 181.125 100.193 180.584C100.436 178.084 102.664 176.574 103.331 176.176C104.066 174.334 105.793 173.29 106.711 172.847C105.565 170.935 101.582 164.292 99.8384 161.38C99.2201 160.364 99.4798 159.051 100.446 158.33C101.725 157.377 103.542 157.649 104.497 158.935C106.995 162.333 112.049 169.197 113.265 170.848C114.05 170.495 115.723 169.964 116.906 171.15C118.383 172.63 120.195 175.924 120.67 178.874C121.12 181.664 123.308 186.412 123.33 186.46C123.421 186.656 123.384 186.889 123.237 187.048L116.425 194.398C116.36 194.468 116.278 194.519 116.187 194.546L109.938 196.424C109.887 196.439 109.835 196.447 109.785 196.447ZM102.164 158.828C101.787 158.828 101.406 158.945 101.082 159.186C100.56 159.576 100.418 160.282 100.75 160.827C102.8 164.251 107.939 172.822 107.939 172.822C108.021 172.96 108.037 173.127 107.984 173.278C107.929 173.429 107.81 173.548 107.659 173.601C107.633 173.61 105.024 174.558 104.264 176.721C104.22 176.848 104.128 176.954 104.009 177.017C103.984 177.03 101.371 178.445 101.242 180.839C101.235 180.972 101.178 181.098 101.083 181.191C101.014 181.259 99.3808 182.924 99.9717 185.505C100.588 188.197 104.064 190.616 106.082 191.819C107.792 192.849 109.385 194.617 109.968 195.3L115.743 193.565L122.216 186.581C121.7 185.432 120.027 181.573 119.619 179.043C119.184 176.343 117.482 173.235 116.154 171.905C115.182 170.93 113.395 171.975 113.377 171.985C113.142 172.126 112.839 172.064 112.675 171.844C112.675 171.844 106.493 163.448 103.641 159.571C103.281 159.086 102.724 158.828 102.164 158.828Z" fill="#080D18"/>
<path d="M116.606 176.715C116.445 176.715 116.285 176.641 116.18 176.503L113.588 173.056C113.411 172.821 113.458 172.487 113.692 172.309C113.927 172.132 114.262 172.18 114.439 172.415L117.031 175.861C117.208 176.096 117.161 176.43 116.926 176.608C116.83 176.68 116.718 176.715 116.606 176.715Z" fill="#080D18"/>
<path fill-rule="evenodd" clip-rule="evenodd" d="M129.539 191.818C131.316 191.856 132.466 192.395 133.783 193.65C137.451 197.173 144.813 205.05 156.763 221.229C156.763 221.229 164.866 193.573 170.759 187.079C176.651 180.597 199.785 189.961 194.033 215.247C188.294 240.546 178.836 263.872 162.949 264.243C147.049 264.615 135.917 249.781 124.299 233.372C112.668 216.964 110.828 207.177 111.991 203.808C111.991 203.808 112.029 203.667 112.144 203.424C111.812 202.732 110.598 200.811 109.665 198.991C108.936 197.582 109.179 195.879 110.265 194.726C112.336 192.522 116.426 188.872 122.459 186.387C123.532 185.952 124.759 186.246 125.513 187.13C127.072 188.936 129.539 191.818 129.539 191.818Z" fill="white"/>
<path d="M162.382 264.785C145.886 264.787 134.195 248.272 123.865 233.682C112.585 217.768 110.145 207.562 111.483 203.648C111.493 203.613 111.516 203.543 111.555 203.444C111.397 203.148 111.146 202.718 110.866 202.238C110.361 201.37 109.733 200.291 109.191 199.236C108.363 197.635 108.639 195.675 109.878 194.361C111.807 192.309 115.98 188.48 122.256 185.895C123.547 185.371 125.018 185.729 125.918 186.784C127.244 188.321 129.231 190.639 129.791 191.294C131.522 191.376 132.762 191.941 134.149 193.265C138.184 197.139 145.325 204.918 156.557 220.056C158.106 214.915 165.036 192.595 170.365 186.72C172.943 183.884 178.411 183.824 183.663 186.575C191.195 190.52 198.011 200.155 194.551 215.366C187.186 247.835 176.557 264.46 162.961 264.778C162.769 264.782 162.574 264.785 162.382 264.785ZM123.473 186.723C123.199 186.723 122.923 186.775 122.658 186.882C116.57 189.391 112.522 193.103 110.653 195.093C109.724 196.078 109.517 197.547 110.138 198.747C110.666 199.778 111.287 200.844 111.786 201.7C112.169 202.358 112.473 202.878 112.624 203.193C112.693 203.338 112.694 203.507 112.625 203.653C112.536 203.842 112.504 203.952 112.503 203.953C112.501 203.962 112.496 203.974 112.494 203.983C111.475 206.933 112.907 216.379 124.733 233.064C130.537 241.262 136.255 249.086 142.378 254.707C149.25 261.017 155.783 263.89 162.937 263.711C175.983 263.406 186.271 247.06 193.514 215.129C196.839 200.509 190.352 191.281 183.171 187.521C178.423 185.033 173.369 185 171.152 187.438C165.409 193.768 157.354 221.104 157.274 221.38C157.217 221.574 157.055 221.72 156.856 221.755C156.657 221.79 156.456 221.71 156.335 221.547C144.173 205.081 136.754 197.243 133.414 194.036C132.148 192.828 131.131 192.387 129.528 192.352C129.377 192.349 129.234 192.281 129.136 192.166C129.135 192.166 126.669 189.285 125.111 187.48C124.692 186.988 124.09 186.723 123.473 186.723Z" fill="#080D18"/>
<path d="M114.286 202.002C114.157 202.002 114.028 201.956 113.926 201.861C113.71 201.662 113.695 201.324 113.895 201.107C114.112 200.87 119.315 195.259 126.651 192.471C126.927 192.365 127.234 192.505 127.338 192.78C127.442 193.056 127.304 193.364 127.029 193.468C119.935 196.164 114.73 201.773 114.678 201.83C114.573 201.944 114.43 202.002 114.286 202.002Z" fill="#080D18"/>
<path d="M163.461 241.578C163.455 241.578 163.449 241.578 163.443 241.577C163.149 241.567 162.918 241.321 162.928 241.026C163.238 231.648 156.382 221.619 156.313 221.519C156.145 221.277 156.205 220.944 156.447 220.776C156.689 220.609 157.02 220.669 157.187 220.911C157.479 221.332 164.314 231.325 163.992 241.062C163.983 241.35 163.746 241.578 163.461 241.578Z" fill="#080D18"/>
<path d="M322.412 304.802H30.1227C29.8293 304.802 29.5908 304.563 29.5908 304.269C29.5908 303.974 29.8293 303.735 30.1227 303.735H322.412C322.707 303.735 322.945 303.974 322.945 304.269C322.945 304.563 322.707 304.802 322.412 304.802Z" fill="#080D18"/>
</svg>
