<svg width="338" height="302" viewBox="0 0 338 302" fill="none" xmlns="http://www.w3.org/2000/svg">
<path d="M337.276 261.596H0.723707C0.385907 261.596 0.111328 261.397 0.111328 261.151C0.111328 260.905 0.385907 260.706 0.723707 260.706H337.276C337.615 260.706 337.889 260.905 337.889 261.151C337.889 261.397 337.614 261.596 337.276 261.596Z" fill="#080D18"/>
<path d="M65.7267 57.9652C65.7267 69.6152 56.1267 79.2265 44.7813 79.2265C33.1449 79.2265 23.5449 69.6152 23.5449 57.9652C23.5449 46.3151 33.1449 36.9951 44.7813 36.9951C56.1267 36.9951 65.7267 46.3151 65.7267 57.9652Z" fill="#080D18"/>
<path d="M68.0547 200.094C86.091 218.734 115.473 250.772 115.473 250.772L287.109 241.452L194.309 130.777C194.309 130.777 137.873 101.36 121.873 111.263C111.982 117.379 93.9456 138.058 75.0365 149.999" fill="white"/>
<path d="M68.0547 200.094C86.091 218.734 115.473 250.772 115.473 250.772L287.109 241.452L194.309 130.777C194.309 130.777 137.873 101.36 121.873 111.263C111.982 117.379 93.9456 138.058 75.0365 149.999" stroke="#080D18" stroke-width="1.45455" stroke-miterlimit="10" stroke-linecap="round" stroke-linejoin="round"/>
<path d="M106.164 206.21L123.037 239.413L141.073 236.209L118.382 260.091L106.164 206.21Z" fill="#080D18"/>
<path d="M301.946 112.72C306.6 118.253 318.819 234.754 313 241.452C306.309 249.316 169 265.626 153 258.054C148.055 255.724 135.546 140.971 140.2 131.36C147.473 116.506 296.709 106.894 301.946 112.72Z" fill="white" stroke="#080D18" stroke-width="1.45455" stroke-miterlimit="10" stroke-linecap="round" stroke-linejoin="round"/>
<path d="M301.946 112.72C306.6 118.253 318.819 234.754 313 241.452C306.309 249.316 169 265.626 153 258.054C148.055 255.724 135.546 140.971 140.2 131.36C147.473 116.506 296.709 106.894 301.946 112.72Z" fill="white" stroke="#080D18" stroke-width="1.45455" stroke-miterlimit="10" stroke-linecap="round" stroke-linejoin="round"/>
<path d="M305.436 128.447C303.982 117.67 302.818 114.175 301.945 112.719C296.709 106.894 147.472 116.214 140.2 131.359C139.327 132.815 139.036 137.184 139.036 143.009L305.436 128.447Z" fill="#E91B41"/>
<path d="M305.436 128.447C303.982 117.67 302.818 114.175 301.945 112.719C296.709 106.894 147.472 116.214 140.2 131.359C139.327 132.815 139.036 137.184 139.036 143.009L305.436 128.447Z" stroke="#080D18" stroke-width="1.45455" stroke-miterlimit="10" stroke-linecap="round" stroke-linejoin="round"/>
<path d="M272.273 122.331C272.273 124.37 270.818 126.117 268.782 126.117C266.745 126.117 265 124.661 265 122.622C265 120.583 266.455 118.836 268.491 118.836C270.527 118.836 271.982 120.292 272.273 122.331ZM283.036 121.748C283.036 123.787 281.582 125.535 279.545 125.535C277.509 125.535 275.764 124.078 275.764 122.04C275.764 120.001 277.218 118.253 279.255 118.253C281.291 118.253 283.036 119.71 283.036 121.748ZM293.8 121.166C293.8 123.205 292.345 124.952 290.309 124.952C288.273 124.952 286.527 123.496 286.527 121.457C286.527 119.418 287.982 117.671 290.018 117.671C292.055 117.671 293.8 119.127 293.8 121.166Z" fill="white"/>
<path d="M124.199 108.933L190.526 92.3318C202.745 89.4193 215.545 92.0406 225.436 99.9043L261.217 131.068C269.363 137.476 284.781 152.038 287.399 154.368C292.636 159.028 294.09 166.309 294.09 166.309C294.963 169.222 295.545 172.134 295.545 174.173C296.126 179.416 291.181 180.872 288.563 171.552C289.145 174.464 289.726 177.96 290.017 179.998C290.308 185.532 284.781 184.367 283.036 174.756C283.326 177.668 283.617 179.416 283.617 181.455C283.326 186.697 278.672 186.697 277.508 177.086C277.508 177.086 278.672 193.978 277.217 199.803C275.763 204.755 270.526 207.085 270.526 193.105C270.526 184.95 268.49 171.552 268.49 171.552C268.49 171.552 268.199 175.629 263.836 182.037C259.472 188.445 255.108 182.62 255.981 181.163C256.854 179.707 267.908 159.902 245.799 147.961L202.745 123.204L143.69 127.864" fill="white"/>
<path d="M124.199 108.933L190.526 92.3318C202.745 89.4193 215.545 92.0406 225.436 99.9043L261.217 131.068C269.363 137.476 284.781 152.038 287.399 154.368C292.636 159.028 294.09 166.309 294.09 166.309C294.963 169.222 295.545 172.134 295.545 174.173C296.126 179.416 291.181 180.872 288.563 171.552C289.145 174.464 289.726 177.96 290.017 179.998C290.308 185.532 284.781 184.367 283.036 174.756C283.326 177.668 283.617 179.416 283.617 181.455C283.326 186.697 278.672 186.697 277.508 177.086C277.508 177.086 278.672 193.978 277.217 199.803C275.763 204.755 270.526 207.085 270.526 193.105C270.526 184.95 268.49 171.552 268.49 171.552C268.49 171.552 268.199 175.629 263.836 182.037C259.472 188.445 255.108 182.62 255.981 181.163C256.854 179.707 267.908 159.902 245.799 147.961L202.745 123.204L143.69 127.864" stroke="#080D18" stroke-width="1.45455" stroke-miterlimit="10" stroke-linecap="round" stroke-linejoin="round"/>
<path d="M74.7456 73.3997C76.782 89.1272 91.3274 100.195 106.746 98.156C122.455 96.1172 133.509 81.5547 131.473 66.1184C129.437 50.3909 115.182 39.3233 99.4729 41.3621C83.7638 43.4009 72.7092 57.6721 74.7456 73.3997Z" fill="#080D18"/>
<path d="M111.11 147.961C111.401 139.224 111.401 130.195 113.146 128.447C113.146 128.447 139.619 133.981 135.546 93.7884C135.546 93.7884 139.91 90.2934 139.328 89.1284C137.873 87.0897 134.382 90.2934 130.019 86.2159C125.655 82.1384 124.201 54.7608 96.2732 51.2658C71.546 48.3533 92.2005 92.6234 77.0732 147.67C86.3823 159.32 101.51 162.815 111.11 147.961Z" fill="white" stroke="#080D18" stroke-width="1.45455" stroke-miterlimit="10" stroke-linecap="round" stroke-linejoin="round"/>
<path d="M87.5457 97.8638C88.4184 99.32 89.582 100.776 91.0366 102.233C98.0184 110.388 92.2002 123.494 81.4366 122.911H81.1457C73.8729 122.62 66.3093 120.581 60.4911 115.921C56.1275 112.426 52.9275 107.766 50.0184 102.815C46.2366 96.1163 43.3275 88.2525 45.0729 80.68C45.9457 77.185 47.6911 73.69 50.3093 71.0687C54.6729 66.4087 61.3638 64.0787 67.7638 64.6612C72.7093 65.2437 78.8184 67.5737 81.7275 71.9425C82.8911 73.9812 82.3093 76.3112 82.3093 78.6412C82.3093 81.845 82.6002 85.0488 83.4729 87.9613C84.3457 91.4563 85.8002 94.66 87.5457 97.8638Z" fill="#080D18"/>
<path d="M57.2904 66.1184C59.3268 81.846 73.8722 92.9135 89.2904 90.8747C104.999 88.836 116.054 74.2734 114.018 58.8372C111.981 43.1096 97.7268 32.0421 82.0177 34.0809C66.5995 36.1196 55.254 50.3909 57.2904 66.1184Z" fill="#080D18"/>
<path d="M79.9814 101.651C81.436 100.777 82.0178 98.7385 80.8542 97.2822" stroke="#080D18" stroke-width="1.45455" stroke-miterlimit="10" stroke-linecap="round" stroke-linejoin="round"/>
<path d="M113.146 128.738C113.146 128.738 110.818 128.738 105.291 125.534L113.146 128.738Z" fill="white"/>
<path d="M113.146 128.738C113.146 128.738 110.818 128.738 105.291 125.534" stroke="#080D18" stroke-width="1.45455" stroke-miterlimit="10" stroke-linecap="round" stroke-linejoin="round"/>
<path d="M135.836 106.603C135.836 106.603 132.636 110.098 125.654 107.185" stroke="#080D18" stroke-width="1.45455" stroke-miterlimit="10" stroke-linecap="round" stroke-linejoin="round"/>
<path d="M222.527 199.803C221.945 200.094 221.073 200.094 220.491 199.803C216.418 198.056 201.873 191.939 198.964 186.988C195.182 180.289 197.509 159.319 198.673 151.747C198.964 150.29 200.127 149.125 201.582 149.417C212.055 150.29 217.291 147.96 219.909 146.213C221.073 145.339 222.236 145.339 223.4 146.213C225.727 147.96 230.964 150.29 241.727 149.417C243.182 149.417 244.345 150.29 244.636 151.747C245.509 159.319 248.127 180.289 244.345 186.988C241.145 191.648 226.6 198.056 222.527 199.803Z" fill="white" stroke="#080D18" stroke-width="1.45455" stroke-miterlimit="10" stroke-linecap="round" stroke-linejoin="round"/>
<path d="M131.182 160.777L117.8 147.67C106.163 136.311 88.1271 134.564 75.0362 144.175C74.7453 144.466 74.4543 144.758 74.1634 144.758C60.1998 155.534 54.9634 174.465 61.0725 191.067L95.1089 281.063C100.054 293.878 114.309 294.752 124.782 285.723L188.2 239.123C188.2 239.123 204.491 232.424 210.018 230.385C228.636 223.395 233.291 216.405 233.291 216.405C234.163 215.24 234.745 211.745 233 210.872C233.873 209.998 234.163 209.415 234.163 209.415C235.618 207.668 235.618 201.843 231.254 203.882C233 202.134 233.582 201.26 233.582 201.26C235.036 199.513 235.327 193.105 229.8 196.018C229.509 196.018 229.509 196.309 229.218 196.309C230.673 194.562 230.673 188.154 225.436 191.067C212.927 198.348 196.345 203.008 196.345 203.008C203.036 193.105 199.545 184.368 196.345 185.242C193.436 186.115 190.818 200.969 182.963 203.008C177.727 204.464 175.691 211.163 175.109 215.24C174.818 217.279 173.363 219.318 171.618 220.483L120.709 246.987L102.091 195.144C101.218 193.105 101.8 190.775 103.545 189.319" fill="white"/>
<path d="M131.182 160.777L117.8 147.67C106.163 136.311 88.1271 134.564 75.0362 144.175C74.7453 144.466 74.4543 144.758 74.1634 144.758C60.1998 155.534 54.9634 174.465 61.0725 191.067L95.1089 281.063C100.054 293.878 114.309 294.752 124.782 285.723L188.2 239.123C188.2 239.123 204.491 232.424 210.018 230.385C228.636 223.395 233.291 216.405 233.291 216.405C234.163 215.24 234.745 211.745 233 210.872C233.873 209.998 234.163 209.415 234.163 209.415C235.618 207.668 235.618 201.843 231.254 203.882C233 202.134 233.582 201.26 233.582 201.26C235.036 199.513 235.327 193.105 229.8 196.018C229.509 196.018 229.509 196.309 229.218 196.309C230.673 194.562 230.673 188.154 225.436 191.067C212.927 198.348 196.345 203.008 196.345 203.008C203.036 193.105 199.545 184.368 196.345 185.242C193.436 186.115 190.818 200.969 182.963 203.008C177.727 204.464 175.691 211.163 175.109 215.24C174.818 217.279 173.363 219.318 171.618 220.483L120.709 246.987L102.091 195.144C101.218 193.105 101.8 190.775 103.545 189.319" stroke="#080D18" stroke-width="1.45455" stroke-miterlimit="10" stroke-linecap="round" stroke-linejoin="round"/>
<path d="M151.255 231.258C161.728 236.5 166.382 244.655 166.382 255.14L151.255 231.258ZM90.1643 91.4573C87.837 89.1273 84.0552 89.4186 81.7279 91.7486C79.4006 94.0786 79.6915 97.8648 82.0188 100.195C84.3461 102.525 88.1279 102.234 90.4552 99.9036M228.928 196.308C228.928 196.308 219.037 203.589 207.11 207.375L228.928 196.308ZM231.255 203.589C231.255 203.589 221.364 210.87 209.437 214.656L231.255 203.589ZM233.001 210.288C233.001 210.288 223.11 217.569 211.182 221.355L233.001 210.288ZM260.637 131.359C259.764 139.222 254.528 144.174 247.255 148.251L260.637 131.359Z" fill="white"/>
<path d="M151.255 231.258C161.728 236.5 166.382 244.655 166.382 255.14M90.1643 91.4573C87.837 89.1273 84.0552 89.4186 81.7279 91.7486C79.4006 94.0786 79.6915 97.8648 82.0188 100.195C84.3461 102.525 88.1279 102.234 90.4552 99.9036M228.928 196.308C228.928 196.308 219.037 203.589 207.11 207.375M231.255 203.589C231.255 203.589 221.364 210.87 209.437 214.656M233.001 210.288C233.001 210.288 223.11 217.569 211.182 221.355M260.637 131.359C259.764 139.222 254.528 144.174 247.255 148.251" stroke="#080D18" stroke-width="1.45455" stroke-miterlimit="10" stroke-linecap="round" stroke-linejoin="round"/>
<path d="M284.2 206.501C275.764 208.54 267.328 210.579 259.182 213.2C252.491 215.239 245.509 216.986 238.818 219.025C237.655 219.316 236.782 220.772 237.364 221.937L241.728 235.917C242.018 237.082 243.473 237.956 244.637 237.374L304.855 219.025C306.018 218.734 306.891 217.277 306.309 216.112L302.237 203.006C301.946 201.841 300.782 200.967 299.618 201.259C295.255 202.715 288.855 205.336 284.2 206.501Z" fill="#080D18"/>
<path d="M252.781 225.725C252.781 226.016 252.49 226.599 252.49 226.89C252.199 227.473 251.618 227.473 251.036 227.764C250.163 228.055 249.29 228.055 248.418 227.764C247.836 227.473 246.963 227.181 246.672 226.599C246.672 226.308 246.381 226.308 246.381 226.016C246.09 225.143 246.09 223.978 246.381 223.104C246.381 222.813 247.836 220.483 251.036 221.356C251.909 221.648 252.781 222.521 253.072 223.686C253.072 224.56 253.072 225.143 252.781 225.725ZM264.127 223.104C264.127 223.395 263.836 223.978 263.836 224.269C263.545 224.851 262.963 224.851 262.381 225.143C261.509 225.434 260.636 225.434 259.763 225.143C259.181 224.851 258.309 224.56 258.018 223.978C258.018 223.686 257.727 223.686 257.727 223.395C257.436 222.521 257.436 221.356 257.727 220.483C257.727 220.191 259.181 217.861 262.381 218.735C263.254 219.026 264.127 219.9 264.418 221.065C264.418 221.939 264.127 222.521 264.127 223.104ZM275.472 219.609C275.472 219.9 275.181 220.483 275.181 220.774C274.89 221.356 274.309 221.356 273.727 221.648C272.854 221.939 271.981 221.939 271.109 221.648C270.527 221.356 269.654 221.065 269.363 220.483C269.363 220.191 269.072 220.191 269.072 219.9C268.781 219.026 268.781 217.861 269.072 216.988C269.072 216.696 270.527 214.366 273.727 215.24C274.599 215.531 275.472 216.405 275.763 217.57C275.763 218.444 275.472 219.026 275.472 219.609ZM286.818 216.696C286.818 216.988 286.527 217.57 286.527 217.861C286.236 218.444 285.654 218.444 285.072 218.735C284.199 219.026 283.327 219.026 282.454 218.735C281.872 218.444 280.999 218.153 280.709 217.57C280.709 217.279 280.418 217.279 280.418 216.988C280.127 216.114 280.127 214.949 280.418 214.075C280.418 213.784 281.872 211.454 285.072 212.328C285.945 212.619 286.818 213.493 287.109 214.658C287.109 215.24 286.818 215.823 286.818 216.696ZM297.872 213.201C297.872 213.493 297.581 214.075 297.581 214.366C297.29 214.949 296.709 214.949 296.127 215.24C295.254 215.531 294.381 215.531 293.509 215.24C292.927 214.949 292.054 214.658 291.763 214.075C291.763 213.784 291.472 213.784 291.472 213.493C291.181 212.619 291.181 211.454 291.472 210.58C291.472 210.289 292.927 207.959 296.127 208.833C296.999 209.124 297.872 209.998 298.163 211.163C298.163 211.745 298.163 212.619 297.872 213.201Z" fill="white"/>
<path d="M229.219 170.676C229.219 171.55 228.928 172.424 228.346 173.006C227.764 173.88 226.6 174.463 225.437 174.754H225.146C226.31 177.084 227.764 180.579 226.31 181.161C225.146 181.744 218.746 181.744 217.291 181.161C215.837 180.579 217.582 176.793 218.746 174.463C217.582 173.88 216.71 173.298 216.128 172.424C215.837 172.133 215.546 171.841 215.546 171.259C214.673 169.22 214.964 167.181 215.546 165.143C215.837 164.269 218.746 159.318 225.437 161.356C227.473 161.939 229.219 163.978 229.8 166.016C229.51 167.764 229.51 169.22 229.219 170.676Z" fill="#E91B41"/>
<path d="M150.382 135.437L202.745 130.194L150.382 135.437Z" fill="white"/>
<path d="M150.382 135.437L202.745 130.194" stroke="#080D18" stroke-width="1.45455" stroke-miterlimit="10" stroke-linecap="round" stroke-linejoin="round"/>
<path d="M120.709 246.985L113.728 251.063" stroke="#080D18" stroke-width="1.45455" stroke-miterlimit="10" stroke-linecap="round" stroke-linejoin="round"/>
<path d="M190.818 115.632L203.037 122.913L190.818 115.632Z" fill="white"/>
<path d="M190.818 115.632L203.037 122.913" stroke="#080D18" stroke-width="1.45455" stroke-miterlimit="10" stroke-linecap="round" stroke-linejoin="round"/>
<path d="M85.2178 95.8252H87.2541H85.2178Z" fill="#080D18"/>
<path d="M85.2178 95.8252H87.2541" stroke="#080D18" stroke-width="1.45455" stroke-miterlimit="10" stroke-linecap="round" stroke-linejoin="round"/>
<path d="M118.964 71.9433C118.964 71.9433 111.691 70.487 109.655 77.1858M113.145 83.5933L89 90.5833M128.855 85.6321C128.855 90.5833 125.364 94.6609 121 94.6609C116.636 94.6609 113.145 90.5833 113.145 85.6321C113.145 80.6808 116.636 76.6033 121 76.6033C125.364 76.6033 128.855 80.6808 128.855 85.6321Z" stroke="#080D18" stroke-width="1.45455" stroke-miterlimit="10" stroke-linecap="round" stroke-linejoin="round"/>
<path d="M122.454 91.7504C123.579 91.7504 124.491 90.8376 124.491 89.7116C124.491 88.5856 123.579 87.6729 122.454 87.6729C121.33 87.6729 120.418 88.5856 120.418 89.7116C120.418 90.8376 121.33 91.7504 122.454 91.7504Z" fill="#080D18"/>
<path d="M246.091 147.669L198.964 123.787L203.618 122.913L246.091 147.669Z" fill="#080D18"/>
<path d="M111.691 134.562L127.4 156.988L111.4 142.717L111.691 134.562Z" fill="#080D18" stroke="#080D18" stroke-width="1.45455" stroke-miterlimit="10" stroke-linecap="round" stroke-linejoin="round"/>
</svg>
